<svg width="1440" height="639" viewBox="0 0 1440 639" fill="none" xmlns="http://www.w3.org/2000/svg">
<mask id="mask0_770_7374" style="mask-type:alpha" maskUnits="userSpaceOnUse" x="-40" y="-52" width="1519" height="703">
<rect x="-39.5586" y="-52" width="1518" height="702.607" fill="url(#paint0_radial_770_7374)"/>
</mask>
<g mask="url(#mask0_770_7374)">
<rect x="-39" y="-22" width="66" height="66" stroke="#C4D2FF" stroke-width="1.11864"/>
<rect x="27" y="-22" width="66" height="66" stroke="#C4D2FF" stroke-width="1.11864"/>
<rect x="93" y="-22" width="66" height="66" stroke="#C4D2FF" stroke-width="1.11864"/>
<rect x="159" y="-22" width="66" height="66" stroke="#C4D2FF" stroke-width="1.11864"/>
<rect x="225" y="-22" width="66" height="66" stroke="#C4D2FF" stroke-width="1.11864"/>
<rect x="291" y="-22" width="66" height="66" stroke="#C4D2FF" stroke-width="1.11864"/>
<rect x="357" y="-22" width="66" height="66" stroke="#C4D2FF" stroke-width="1.11864"/>
<rect x="423" y="-22" width="66" height="66" stroke="#C4D2FF" stroke-width="1.11864"/>
<rect x="489" y="-22" width="66" height="66" stroke="#C4D2FF" stroke-width="1.11864"/>
<rect x="555" y="-22" width="66" height="66" stroke="#C4D2FF" stroke-width="1.11864"/>
<rect x="621" y="-22" width="66" height="66" stroke="#C4D2FF" stroke-width="1.11864"/>
<rect x="687" y="-22" width="66" height="66" stroke="#C4D2FF" stroke-width="1.11864"/>
<rect x="753" y="-22" width="66" height="66" stroke="#C4D2FF" stroke-width="1.11864"/>
<rect x="819" y="-22" width="66" height="66" stroke="#C4D2FF" stroke-width="1.11864"/>
<rect x="885" y="-22" width="66" height="66" stroke="#C4D2FF" stroke-width="1.11864"/>
<rect x="951" y="-22" width="66" height="66" stroke="#C4D2FF" stroke-width="1.11864"/>
<rect x="1017" y="-22" width="66" height="66" stroke="#C4D2FF" stroke-width="1.11864"/>
<rect x="1083" y="-22" width="66" height="66" stroke="#C4D2FF" stroke-width="1.11864"/>
<rect x="1149" y="-22" width="66" height="66" stroke="#C4D2FF" stroke-width="1.11864"/>
<rect x="1215" y="-22" width="66" height="66" stroke="#C4D2FF" stroke-width="1.11864"/>
<rect x="1281" y="-22" width="66" height="66" stroke="#C4D2FF" stroke-width="1.11864"/>
<rect x="1347" y="-22" width="66" height="66" stroke="#C4D2FF" stroke-width="1.11864"/>
<rect x="1413" y="-22" width="66" height="66" stroke="#C4D2FF" stroke-width="1.11864"/>
<rect x="-39" y="44" width="66" height="66" stroke="#C4D2FF" stroke-width="1.11864"/>
<rect x="27" y="44" width="66" height="66" stroke="#C4D2FF" stroke-width="1.11864"/>
<rect x="93" y="44" width="66" height="66" stroke="#C4D2FF" stroke-width="1.11864"/>
<rect x="159" y="44" width="66" height="66" stroke="#C4D2FF" stroke-width="1.11864"/>
<rect x="225" y="44" width="66" height="66" stroke="#C4D2FF" stroke-width="1.11864"/>
<rect x="291" y="44" width="66" height="66" stroke="#C4D2FF" stroke-width="1.11864"/>
<rect x="357" y="44" width="66" height="66" stroke="#C4D2FF" stroke-width="1.11864"/>
<rect x="423" y="44" width="66" height="66" stroke="#C4D2FF" stroke-width="1.11864"/>
<rect x="489" y="44" width="66" height="66" stroke="#C4D2FF" stroke-width="1.11864"/>
<rect x="555" y="44" width="66" height="66" stroke="#C4D2FF" stroke-width="1.11864"/>
<rect x="621" y="44" width="66" height="66" stroke="#C4D2FF" stroke-width="1.11864"/>
<rect x="687" y="44" width="66" height="66" stroke="#C4D2FF" stroke-width="1.11864"/>
<rect x="753" y="44" width="66" height="66" stroke="#C4D2FF" stroke-width="1.11864"/>
<rect x="819" y="44" width="66" height="66" stroke="#C4D2FF" stroke-width="1.11864"/>
<rect x="885" y="44" width="66" height="66" stroke="#C4D2FF" stroke-width="1.11864"/>
<rect x="951" y="44" width="66" height="66" stroke="#C4D2FF" stroke-width="1.11864"/>
<rect x="1017" y="44" width="66" height="66" stroke="#C4D2FF" stroke-width="1.11864"/>
<rect x="1083" y="44" width="66" height="66" stroke="#C4D2FF" stroke-width="1.11864"/>
<rect x="1149" y="44" width="66" height="66" stroke="#C4D2FF" stroke-width="1.11864"/>
<rect x="1215" y="44" width="66" height="66" stroke="#C4D2FF" stroke-width="1.11864"/>
<rect x="1281" y="44" width="66" height="66" stroke="#C4D2FF" stroke-width="1.11864"/>
<rect x="1347" y="44" width="66" height="66" stroke="#C4D2FF" stroke-width="1.11864"/>
<rect x="1413" y="44" width="66" height="66" stroke="#C4D2FF" stroke-width="1.11864"/>
<rect x="-39" y="110" width="66" height="66" stroke="#C4D2FF" stroke-width="1.11864"/>
<rect x="27" y="110" width="66" height="66" stroke="#C4D2FF" stroke-width="1.11864"/>
<rect x="93" y="110" width="66" height="66" stroke="#C4D2FF" stroke-width="1.11864"/>
<rect x="159" y="110" width="66" height="66" stroke="#C4D2FF" stroke-width="1.11864"/>
<rect x="225" y="110" width="66" height="66" stroke="#C4D2FF" stroke-width="1.11864"/>
<rect x="291" y="110" width="66" height="66" stroke="#C4D2FF" stroke-width="1.11864"/>
<rect x="357" y="110" width="66" height="66" stroke="#C4D2FF" stroke-width="1.11864"/>
<rect x="423" y="110" width="66" height="66" stroke="#C4D2FF" stroke-width="1.11864"/>
<rect x="489" y="110" width="66" height="66" fill="#CAD7FF" stroke="#C4D2FF" stroke-width="1.11864"/>
<rect x="555" y="110" width="66" height="66" stroke="#C4D2FF" stroke-width="1.11864"/>
<rect x="621" y="110" width="66" height="66" stroke="#C4D2FF" stroke-width="1.11864"/>
<rect x="687" y="110" width="66" height="66" stroke="#C4D2FF" stroke-width="1.11864"/>
<rect x="753" y="110" width="66" height="66" stroke="#C4D2FF" stroke-width="1.11864"/>
<rect x="819" y="110" width="66" height="66" stroke="#C4D2FF" stroke-width="1.11864"/>
<rect x="885" y="110" width="66" height="66" stroke="#C4D2FF" stroke-width="1.11864"/>
<rect x="951" y="110" width="66" height="66" stroke="#C4D2FF" stroke-width="1.11864"/>
<rect x="1017" y="110" width="66" height="66" stroke="#C4D2FF" stroke-width="1.11864"/>
<rect x="1083" y="110" width="66" height="66" stroke="#C4D2FF" stroke-width="1.11864"/>
<rect x="1149" y="110" width="66" height="66" stroke="#C4D2FF" stroke-width="1.11864"/>
<rect x="1215" y="110" width="66" height="66" stroke="#C4D2FF" stroke-width="1.11864"/>
<rect x="1281" y="110" width="66" height="66" stroke="#C4D2FF" stroke-width="1.11864"/>
<rect x="1347" y="110" width="66" height="66" stroke="#C4D2FF" stroke-width="1.11864"/>
<path d="M-39 176H27V242H-39V176Z" fill="#CAD7FF" stroke="#C4D2FF" stroke-width="1.11864"/>
<rect x="27" y="176" width="66" height="66" stroke="#C4D2FF" stroke-width="1.11864"/>
<rect x="93" y="176" width="66" height="66" stroke="#C4D2FF" stroke-width="1.11864"/>
<rect x="159" y="176" width="66" height="66" stroke="#C4D2FF" stroke-width="1.11864"/>
<rect x="225" y="176" width="66" height="66" stroke="#C4D2FF" stroke-width="1.11864"/>
<rect x="291" y="176" width="66" height="66" stroke="#C4D2FF" stroke-width="1.11864"/>
<rect x="357" y="176" width="66" height="66" stroke="#C4D2FF" stroke-width="1.11864"/>
<rect x="423" y="176" width="66" height="66" stroke="#C4D2FF" stroke-width="1.11864"/>
<rect x="489" y="176" width="66" height="66" stroke="#C4D2FF" stroke-width="1.11864"/>
<rect x="555" y="176" width="66" height="66" stroke="#C4D2FF" stroke-width="1.11864"/>
<rect x="621" y="176" width="66" height="66" stroke="#C4D2FF" stroke-width="1.11864"/>
<rect x="687" y="176" width="66" height="66" stroke="#C4D2FF" stroke-width="1.11864"/>
<rect x="753" y="176" width="66" height="66" stroke="#C4D2FF" stroke-width="1.11864"/>
<rect x="819" y="176" width="66" height="66" stroke="#C4D2FF" stroke-width="1.11864"/>
<rect x="885" y="176" width="66" height="66" stroke="#C4D2FF" stroke-width="1.11864"/>
<rect x="951" y="176" width="66" height="66" stroke="#C4D2FF" stroke-width="1.11864"/>
<rect x="1017" y="176" width="66" height="66" stroke="#C4D2FF" stroke-width="1.11864"/>
<rect x="1083" y="176" width="66" height="66" stroke="#C4D2FF" stroke-width="1.11864"/>
<rect x="1149" y="176" width="66" height="66" stroke="#C4D2FF" stroke-width="1.11864"/>
<path d="M1215 176H1281V242H1215V176Z" fill="#CAD7FF" stroke="#C4D2FF" stroke-width="1.11864"/>
<rect x="1281" y="176" width="66" height="66" stroke="#C4D2FF" stroke-width="1.11864"/>
<rect x="1347" y="176" width="66" height="66" stroke="#C4D2FF" stroke-width="1.11864"/>
<rect x="1413" y="176" width="66" height="66" stroke="#C4D2FF" stroke-width="1.11864"/>
<rect x="-39" y="242" width="66" height="66" stroke="#C4D2FF" stroke-width="1.11864"/>
<rect x="27" y="242" width="66" height="66" stroke="#C4D2FF" stroke-width="1.11864"/>
<rect x="93" y="242" width="66" height="66" stroke="#C4D2FF" stroke-width="1.11864"/>
<rect x="159" y="242" width="66" height="66" stroke="#C4D2FF" stroke-width="1.11864"/>
<rect x="225" y="242" width="66" height="66" stroke="#C4D2FF" stroke-width="1.11864"/>
<rect x="291" y="242" width="66" height="66" stroke="#C4D2FF" stroke-width="1.11864"/>
<rect x="357" y="242" width="66" height="66" stroke="#C4D2FF" stroke-width="1.11864"/>
<rect x="423" y="242" width="66" height="66" stroke="#C4D2FF" stroke-width="1.11864"/>
<rect x="489" y="242" width="66" height="66" stroke="#C4D2FF" stroke-width="1.11864"/>
<rect x="555" y="242" width="66" height="66" stroke="#C4D2FF" stroke-width="1.11864"/>
<rect x="621" y="242" width="66" height="66" stroke="#C4D2FF" stroke-width="1.11864"/>
<rect x="687" y="242" width="66" height="66" stroke="#C4D2FF" stroke-width="1.11864"/>
<rect x="753" y="242" width="66" height="66" stroke="#C4D2FF" stroke-width="1.11864"/>
<rect x="819" y="242" width="66" height="66" stroke="#C4D2FF" stroke-width="1.11864"/>
<rect x="885" y="242" width="66" height="66" stroke="#C4D2FF" stroke-width="1.11864"/>
<rect x="951" y="242" width="66" height="66" stroke="#C4D2FF" stroke-width="1.11864"/>
<rect x="1017" y="242" width="66" height="66" stroke="#C4D2FF" stroke-width="1.11864"/>
<rect x="1083" y="242" width="66" height="66" stroke="#C4D2FF" stroke-width="1.11864"/>
<rect x="1149" y="242" width="66" height="66" stroke="#C4D2FF" stroke-width="1.11864"/>
<rect x="1215" y="242" width="66" height="66" stroke="#C4D2FF" stroke-width="1.11864"/>
<rect x="1281" y="242" width="66" height="66" stroke="#C4D2FF" stroke-width="1.11864"/>
<rect x="1347" y="242" width="66" height="66" stroke="#C4D2FF" stroke-width="1.11864"/>
<rect x="-39" y="308" width="66" height="66" stroke="#C4D2FF" stroke-width="1.11864"/>
<rect x="27" y="308" width="66" height="66" stroke="#C4D2FF" stroke-width="1.11864"/>
<rect x="93" y="308" width="66" height="66" stroke="#C4D2FF" stroke-width="1.11864"/>
<path d="M159 308H225V374H159V308Z" fill="#85B8FF" fill-opacity="0.29" stroke="#C4D2FF" stroke-width="1.11864"/>
<rect x="225" y="308" width="66" height="66" stroke="#C4D2FF" stroke-width="1.11864"/>
<rect x="291" y="308" width="66" height="66" stroke="#C4D2FF" stroke-width="1.11864"/>
<rect x="357" y="308" width="66" height="66" stroke="#C4D2FF" stroke-width="1.11864"/>
<rect x="423" y="308" width="66" height="66" stroke="#C4D2FF" stroke-width="1.11864"/>
<rect x="489" y="308" width="66" height="66" stroke="#C4D2FF" stroke-width="1.11864"/>
<rect x="555" y="308" width="66" height="66" stroke="#C4D2FF" stroke-width="1.11864"/>
<rect x="621" y="308" width="66" height="66" stroke="#C4D2FF" stroke-width="1.11864"/>
<rect x="687" y="308" width="66" height="66" stroke="#C4D2FF" stroke-width="1.11864"/>
<rect x="753" y="308" width="66" height="66" stroke="#C4D2FF" stroke-width="1.11864"/>
<rect x="819" y="308" width="66" height="66" stroke="#C4D2FF" stroke-width="1.11864"/>
<rect x="885" y="308" width="66" height="66" stroke="#C4D2FF" stroke-width="1.11864"/>
<rect x="951" y="308" width="66" height="66" stroke="#C4D2FF" stroke-width="1.11864"/>
<rect x="1017" y="308" width="66" height="66" stroke="#C4D2FF" stroke-width="1.11864"/>
<rect x="1083" y="308" width="66" height="66" stroke="#C4D2FF" stroke-width="1.11864"/>
<rect x="1149" y="308" width="66" height="66" stroke="#C4D2FF" stroke-width="1.11864"/>
<rect x="1215" y="308" width="66" height="66" stroke="#C4D2FF" stroke-width="1.11864"/>
<rect x="1281" y="308" width="66" height="66" stroke="#C4D2FF" stroke-width="1.11864"/>
<rect x="1347" y="308" width="66" height="66" stroke="#C4D2FF" stroke-width="1.11864"/>
<rect x="1413" y="308" width="66" height="66" stroke="#C4D2FF" stroke-width="1.11864"/>
<rect x="-39" y="374" width="66" height="66" stroke="#C4D2FF" stroke-width="1.11864"/>
<rect x="27" y="374" width="66" height="66" stroke="#C4D2FF" stroke-width="1.11864"/>
<rect x="93" y="374" width="66" height="66" stroke="#C4D2FF" stroke-width="1.11864"/>
<rect x="159" y="374" width="66" height="66" stroke="#C4D2FF" stroke-width="1.11864"/>
<rect x="225" y="374" width="66" height="66" stroke="#C4D2FF" stroke-width="1.11864"/>
<rect x="291" y="374" width="66" height="66" stroke="#C4D2FF" stroke-width="1.11864"/>
<rect x="357" y="374" width="66" height="66" stroke="#C4D2FF" stroke-width="1.11864"/>
<rect x="423" y="374" width="66" height="66" stroke="#C4D2FF" stroke-width="1.11864"/>
<rect x="489" y="374" width="66" height="66" stroke="#C4D2FF" stroke-width="1.11864"/>
<rect x="555" y="374" width="66" height="66" stroke="#C4D2FF" stroke-width="1.11864"/>
<rect x="621" y="374" width="66" height="66" stroke="#C4D2FF" stroke-width="1.11864"/>
<rect x="687" y="374" width="66" height="66" stroke="#C4D2FF" stroke-width="1.11864"/>
<rect x="753" y="374" width="66" height="66" stroke="#C4D2FF" stroke-width="1.11864"/>
<rect x="819" y="374" width="66" height="66" stroke="#C4D2FF" stroke-width="1.11864"/>
<rect x="885" y="374" width="66" height="66" stroke="#C4D2FF" stroke-width="1.11864"/>
<rect x="951" y="374" width="66" height="66" stroke="#C4D2FF" stroke-width="1.11864"/>
<rect x="1017" y="374" width="66" height="66" stroke="#C4D2FF" stroke-width="1.11864"/>
<rect x="1083" y="374" width="66" height="66" stroke="#C4D2FF" stroke-width="1.11864"/>
<rect x="1149" y="374" width="66" height="66" stroke="#C4D2FF" stroke-width="1.11864"/>
<rect x="1215" y="374" width="66" height="66" stroke="#C4D2FF" stroke-width="1.11864"/>
<rect x="1281" y="374" width="66" height="66" stroke="#C4D2FF" stroke-width="1.11864"/>
<rect x="1347" y="374" width="66" height="66" stroke="#C4D2FF" stroke-width="1.11864"/>
<rect x="-39" y="440" width="66" height="66" stroke="#C4D2FF" stroke-width="1.11864"/>
<rect x="27" y="440" width="66" height="66" stroke="#C4D2FF" stroke-width="1.11864"/>
<rect x="93" y="440" width="66" height="66" stroke="#C4D2FF" stroke-width="1.11864"/>
<rect x="159" y="440" width="66" height="66" stroke="#C4D2FF" stroke-width="1.11864"/>
<rect x="225" y="440" width="66" height="66" stroke="#C4D2FF" stroke-width="1.11864"/>
<rect x="291" y="440" width="66" height="66" stroke="#C4D2FF" stroke-width="1.11864"/>
<rect x="357" y="440" width="66" height="66" stroke="#C4D2FF" stroke-width="1.11864"/>
<rect x="423" y="440" width="66" height="66" stroke="#C4D2FF" stroke-width="1.11864"/>
<rect x="489" y="440" width="66" height="66" stroke="#C4D2FF" stroke-width="1.11864"/>
<rect x="555" y="440" width="66" height="66" stroke="#C4D2FF" stroke-width="1.11864"/>
<rect x="621" y="440" width="66" height="66" stroke="#C4D2FF" stroke-width="1.11864"/>
<rect x="687" y="440" width="66" height="66" stroke="#C4D2FF" stroke-width="1.11864"/>
<rect x="753" y="440" width="66" height="66" stroke="#C4D2FF" stroke-width="1.11864"/>
<rect x="819" y="440" width="66" height="66" stroke="#C4D2FF" stroke-width="1.11864"/>
<rect x="885" y="440" width="66" height="66" stroke="#C4D2FF" stroke-width="1.11864"/>
<rect x="951" y="440" width="66" height="66" stroke="#C4D2FF" stroke-width="1.11864"/>
<rect x="1017" y="440" width="66" height="66" stroke="#C4D2FF" stroke-width="1.11864"/>
<rect x="1083" y="440" width="66" height="66" stroke="#C4D2FF" stroke-width="1.11864"/>
<rect x="1149" y="440" width="66" height="66" stroke="#C4D2FF" stroke-width="1.11864"/>
<rect x="1215" y="440" width="66" height="66" stroke="#C4D2FF" stroke-width="1.11864"/>
<rect x="1281" y="440" width="66" height="66" stroke="#C4D2FF" stroke-width="1.11864"/>
<rect x="1347" y="440" width="66" height="66" stroke="#C4D2FF" stroke-width="1.11864"/>
<rect x="1413" y="440" width="66" height="66" stroke="#C4D2FF" stroke-width="1.11864"/>
<rect x="-39" y="506" width="66" height="66" stroke="#C4D2FF" stroke-width="1.11864"/>
<rect x="27" y="506" width="66" height="66" stroke="#C4D2FF" stroke-width="1.11864"/>
<rect x="93" y="506" width="66" height="66" stroke="#C4D2FF" stroke-width="1.11864"/>
<rect x="159" y="506" width="66" height="66" stroke="#C4D2FF" stroke-width="1.11864"/>
<rect x="225" y="506" width="66" height="66" stroke="#C4D2FF" stroke-width="1.11864"/>
<rect x="291" y="506" width="66" height="66" stroke="#C4D2FF" stroke-width="1.11864"/>
<rect x="357" y="506" width="66" height="66" stroke="#C4D2FF" stroke-width="1.11864"/>
<rect x="423" y="506" width="66" height="66" stroke="#C4D2FF" stroke-width="1.11864"/>
<rect x="489" y="506" width="66" height="66" stroke="#C4D2FF" stroke-width="1.11864"/>
<rect x="555" y="506" width="66" height="66" stroke="#C4D2FF" stroke-width="1.11864"/>
<rect x="621" y="506" width="66" height="66" stroke="#C4D2FF" stroke-width="1.11864"/>
<rect x="687" y="506" width="66" height="66" stroke="#C4D2FF" stroke-width="1.11864"/>
<rect x="753" y="506" width="66" height="66" stroke="#C4D2FF" stroke-width="1.11864"/>
<rect x="819" y="506" width="66" height="66" stroke="#C4D2FF" stroke-width="1.11864"/>
<rect x="885" y="506" width="66" height="66" stroke="#C4D2FF" stroke-width="1.11864"/>
<rect x="951" y="506" width="66" height="66" stroke="#C4D2FF" stroke-width="1.11864"/>
<rect x="1017" y="506" width="66" height="66" stroke="#C4D2FF" stroke-width="1.11864"/>
<rect x="1083" y="506" width="66" height="66" stroke="#C4D2FF" stroke-width="1.11864"/>
<rect x="1149" y="506" width="66" height="66" stroke="#C4D2FF" stroke-width="1.11864"/>
<rect x="1215" y="506" width="66" height="66" stroke="#C4D2FF" stroke-width="1.11864"/>
<rect x="1281" y="506" width="66" height="66" stroke="#C4D2FF" stroke-width="1.11864"/>
<rect x="1347" y="506" width="66" height="66" stroke="#C4D2FF" stroke-width="1.11864"/>
<rect x="1413" y="506" width="66" height="66" stroke="#C4D2FF" stroke-width="1.11864"/>
<rect x="-39" y="572" width="66" height="66" stroke="#C4D2FF" stroke-width="1.11864"/>
<rect x="27" y="572" width="66" height="66" stroke="#C4D2FF" stroke-width="1.11864"/>
<rect x="93" y="572" width="66" height="66" stroke="#C4D2FF" stroke-width="1.11864"/>
<rect x="159" y="572" width="66" height="66" stroke="#C4D2FF" stroke-width="1.11864"/>
<rect x="225" y="572" width="66" height="66" stroke="#C4D2FF" stroke-width="1.11864"/>
<rect x="291" y="572" width="66" height="66" stroke="#C4D2FF" stroke-width="1.11864"/>
<rect x="357" y="572" width="66" height="66" stroke="#C4D2FF" stroke-width="1.11864"/>
<rect x="423" y="572" width="66" height="66" stroke="#C4D2FF" stroke-width="1.11864"/>
<rect x="489" y="572" width="66" height="66" stroke="#C4D2FF" stroke-width="1.11864"/>
<rect x="555" y="572" width="66" height="66" stroke="#C4D2FF" stroke-width="1.11864"/>
<rect x="621" y="572" width="66" height="66" stroke="#C4D2FF" stroke-width="1.11864"/>
<rect x="687" y="572" width="66" height="66" stroke="#C4D2FF" stroke-width="1.11864"/>
<rect x="753" y="572" width="66" height="66" stroke="#C4D2FF" stroke-width="1.11864"/>
<rect x="819" y="572" width="66" height="66" stroke="#C4D2FF" stroke-width="1.11864"/>
<rect x="885" y="572" width="66" height="66" stroke="#C4D2FF" stroke-width="1.11864"/>
<rect x="951" y="572" width="66" height="66" stroke="#C4D2FF" stroke-width="1.11864"/>
<rect x="1017" y="572" width="66" height="66" stroke="#C4D2FF" stroke-width="1.11864"/>
<rect x="1083" y="572" width="66" height="66" stroke="#C4D2FF" stroke-width="1.11864"/>
<rect x="1149" y="572" width="66" height="66" stroke="#C4D2FF" stroke-width="1.11864"/>
<rect x="1215" y="572" width="66" height="66" stroke="#C4D2FF" stroke-width="1.11864"/>
<rect x="1281" y="572" width="66" height="66" stroke="#C4D2FF" stroke-width="1.11864"/>
<rect x="1347" y="572" width="66" height="66" stroke="#C4D2FF" stroke-width="1.11864"/>
<rect x="1413" y="572" width="66" height="66" stroke="#C4D2FF" stroke-width="1.11864"/>
</g>
<defs>
<radialGradient id="paint0_radial_770_7374" cx="0" cy="0" r="1" gradientUnits="userSpaceOnUse" gradientTransform="translate(719.441 -154.593) rotate(90) scale(805.201 1082.95)">
<stop stop-color="#D9D9D9"/>
<stop offset="0.885" stop-color="#D9D9D9" stop-opacity="0.292"/>
<stop offset="1" stop-color="#D9D9D9" stop-opacity="0"/>
</radialGradient>
</defs>
</svg>
