<svg width="635" height="549" viewBox="0 0 635 549" fill="none" xmlns="http://www.w3.org/2000/svg">
<mask id="path-1-inside-1_770_7614" fill="white">
<path fill-rule="evenodd" clip-rule="evenodd" d="M553.263 30.9785C562.279 40.8244 569.16 52.3513 573.905 64.4786L574.142 65.0789L574.498 66.1596C579.006 78.4069 581.498 91.7349 581.498 105.663C581.498 119.592 579.006 132.92 574.498 145.167L574.024 146.368L573.787 146.848C569.041 159.095 562.161 170.502 553.145 180.348L165.104 604.202C127.498 645.266 65.929 645.266 28.2044 604.202C-9.40148 563.137 -9.40148 495.777 28.2044 454.712L250.993 211.326H97.3661C44.101 211.326 0.563497 163.778 0.563497 105.663C0.563497 47.5485 44.101 0 97.3661 0H484.576C497.388 0 509.607 2.76167 520.759 7.68461L521.589 8.04482L522.301 8.40504C533.452 13.5681 543.892 21.0126 552.908 30.8585"/>
</mask>
<path fill-rule="evenodd" clip-rule="evenodd" d="M553.263 30.9785C562.279 40.8244 569.16 52.3513 573.905 64.4786L574.142 65.0789L574.498 66.1596C579.006 78.4069 581.498 91.7349 581.498 105.663C581.498 119.592 579.006 132.92 574.498 145.167L574.024 146.368L573.787 146.848C569.041 159.095 562.161 170.502 553.145 180.348L165.104 604.202C127.498 645.266 65.929 645.266 28.2044 604.202C-9.40148 563.137 -9.40148 495.777 28.2044 454.712L250.993 211.326H97.3661C44.101 211.326 0.563497 163.778 0.563497 105.663C0.563497 47.5485 44.101 0 97.3661 0H484.576C497.388 0 509.607 2.76167 520.759 7.68461L521.589 8.04482L522.301 8.40504C533.452 13.5681 543.892 21.0126 552.908 30.8585" fill="#BECFFF" fill-opacity="0.35"/>
<path d="M573.905 64.4786L572.974 64.843L572.975 64.8461L573.905 64.4786ZM574.142 65.0789L575.092 64.7662L575.083 64.7385L575.073 64.7115L574.142 65.0789ZM574.498 66.1596L573.549 66.4724L573.554 66.4888L573.56 66.505L574.498 66.1596ZM574.498 145.167L575.428 145.534L575.433 145.523L575.437 145.512L574.498 145.167ZM574.024 146.368L574.92 146.81L574.939 146.773L574.954 146.735L574.024 146.368ZM573.787 146.848L572.89 146.405L572.87 146.445L572.854 146.487L573.787 146.848ZM553.145 180.348L552.407 179.673L552.407 179.673L553.145 180.348ZM165.104 604.202L165.842 604.877L165.842 604.877L165.104 604.202ZM28.2044 604.202L27.4669 604.877L27.468 604.878L28.2044 604.202ZM28.2044 454.712L28.9419 455.388L28.9421 455.387L28.2044 454.712ZM250.993 211.326L251.73 212.002L253.264 210.326H250.993V211.326ZM520.759 7.68461L520.355 8.59945L520.361 8.60203L520.759 7.68461ZM521.589 8.04482L522.041 7.15258L522.014 7.1392L521.987 7.1274L521.589 8.04482ZM522.301 8.40504L521.849 9.29728L521.865 9.30516L521.881 9.31249L522.301 8.40504ZM553.263 30.9785L552.526 31.6539C561.451 41.4006 568.269 52.8194 572.974 64.843L573.905 64.4786L574.836 64.1142C570.051 51.8833 563.108 40.2483 554.001 30.3032L553.263 30.9785ZM573.905 64.4786L572.975 64.8461L573.212 65.4464L574.142 65.0789L575.073 64.7115L574.835 64.1111L573.905 64.4786ZM574.142 65.0789L573.193 65.3917L573.549 66.4724L574.498 66.1596L575.448 65.8468L575.092 64.7662L574.142 65.0789ZM574.498 66.1596L573.56 66.505C578.028 78.6435 580.498 91.8547 580.498 105.663H581.498H582.498C582.498 91.6152 579.985 78.1703 575.437 65.8142L574.498 66.1596ZM581.498 105.663H580.498C580.498 119.472 578.028 132.683 573.56 144.821L574.498 145.167L575.437 145.512C579.985 133.156 582.498 119.711 582.498 105.663H581.498ZM574.498 145.167L573.568 144.799L573.094 146L574.024 146.368L574.954 146.735L575.428 145.534L574.498 145.167ZM574.024 146.368L573.127 145.925L572.89 146.405L573.787 146.848L574.683 147.291L574.92 146.81L574.024 146.368ZM573.787 146.848L572.854 146.487C568.151 158.625 561.334 169.924 552.407 179.673L553.145 180.348L553.882 181.023C562.987 171.08 569.932 159.565 574.719 147.209L573.787 146.848ZM553.145 180.348L552.407 179.673L164.367 603.526L165.104 604.202L165.842 604.877L553.883 181.023L553.145 180.348ZM165.104 604.202L164.367 603.526C127.158 644.157 66.2698 644.159 28.9408 603.525L28.2044 604.202L27.468 604.878C65.5881 646.373 127.839 646.375 165.842 604.877L165.104 604.202ZM28.2044 604.202L28.9419 603.526C-8.31397 562.844 -8.31397 496.07 28.9419 455.388L28.2044 454.712L27.4669 454.037C-10.489 495.484 -10.489 563.43 27.4669 604.877L28.2044 604.202ZM28.2044 454.712L28.9421 455.387L251.73 212.002L250.993 211.326L250.255 210.651L27.4668 454.037L28.2044 454.712ZM250.993 211.326V210.326H97.3661V211.326V212.326H250.993V211.326ZM97.3661 211.326V210.326C44.734 210.326 1.5635 163.31 1.5635 105.663H0.563497H-0.436503C-0.436503 164.246 43.4679 212.326 97.3661 212.326V211.326ZM0.563497 105.663H1.5635C1.5635 48.0163 44.734 1 97.3661 1V0V-1C43.4679 -1 -0.436503 47.0806 -0.436503 105.663H0.563497ZM97.3661 0V1H484.576V0V-1H97.3661V0ZM484.576 0V1C497.243 1 509.325 3.73004 520.355 8.59943L520.759 7.68461L521.163 6.7698C509.89 1.79329 497.534 -1 484.576 -1V0ZM520.759 7.68461L520.361 8.60203L521.191 8.96223L521.589 8.04482L521.987 7.1274L521.157 6.7672L520.759 7.68461ZM521.589 8.04482L521.138 8.93705L521.849 9.29728L522.301 8.40504L522.752 7.5128L522.041 7.15258L521.589 8.04482ZM522.301 8.40504L521.881 9.31249C532.914 14.4211 543.245 21.7875 552.17 31.5338L552.908 30.8585L553.645 30.1831C544.538 20.2377 533.99 12.7152 522.721 7.49759L522.301 8.40504Z" fill="url(#paint0_linear_770_7614)" mask="url(#path-1-inside-1_770_7614)"/>
<path d="M533.57 434.557C589.294 434.557 634.499 479.126 634.499 534.076C634.499 589.147 589.294 633.717 533.57 633.717C477.847 633.717 432.641 589.147 432.641 534.076C432.641 479.006 477.846 434.557 533.57 434.557Z" fill="#BECFFF" fill-opacity="0.35" stroke="url(#paint1_linear_770_7614)"/>
<defs>
<linearGradient id="paint0_linear_770_7614" x1="132.026" y1="26.0098" x2="50.2552" y2="649.106" gradientUnits="userSpaceOnUse">
<stop stop-color="#B2C8FF"/>
<stop offset="1" stop-color="white" stop-opacity="0.54"/>
</linearGradient>
<linearGradient id="paint1_linear_770_7614" x1="533.57" y1="434.057" x2="533.57" y2="634.216" gradientUnits="userSpaceOnUse">
<stop stop-color="#B2C8FF"/>
<stop offset="1" stop-color="white"/>
</linearGradient>
</defs>
</svg>
