<svg width="608" height="393" viewBox="0 0 608 393" fill="none" xmlns="http://www.w3.org/2000/svg">
<g clip-path="url(#clip0_729_3813)">
<g filter="url(#filter0_d_729_3813)">
<g clip-path="url(#clip1_729_3813)">
<g filter="url(#filter1_d_729_3813)">
<g clip-path="url(#clip2_729_3813)">
<rect x="64" width="250" height="400" rx="16" fill="#FAFAFA"/>
<g filter="url(#filter2_d_729_3813)">
<path d="M88 30C88 26.6863 90.6863 24 94 24H284C287.314 24 290 26.6863 290 30V56C290 59.3137 287.314 62 284 62H94C90.6863 62 88 59.3137 88 56V30Z" fill="white" shape-rendering="crispEdges"/>
<path d="M88 30C88 26.6863 90.6863 24 94 24H284C287.314 24 290 26.6863 290 30V56C290 59.3137 287.314 62 284 62H94C90.6863 62 88 59.3137 88 56V30Z" stroke="#196BE6" stroke-width="2" shape-rendering="crispEdges"/>
<path d="M105.538 49V39.62H102.654V38.57H109.514V39.62H106.658V49H105.538ZM110.252 49V41.496H111.302V49H110.252ZM110.238 40.04L108.642 37.94H110.084L111.302 40.04H110.238ZM112.971 49V41.496H114.021V42.924L113.853 42.714C114.058 42.2753 114.362 41.9347 114.763 41.692C115.174 41.4493 115.622 41.328 116.107 41.328C116.686 41.328 117.208 41.4913 117.675 41.818C118.142 42.1447 118.473 42.5693 118.669 43.092L118.375 43.106C118.562 42.5273 118.884 42.0887 119.341 41.79C119.808 41.482 120.321 41.328 120.881 41.328C121.385 41.328 121.847 41.4493 122.267 41.692C122.696 41.9347 123.037 42.2707 123.289 42.7C123.55 43.12 123.681 43.596 123.681 44.128V49H122.631V44.534C122.631 44.0767 122.547 43.6893 122.379 43.372C122.22 43.0547 122.001 42.812 121.721 42.644C121.441 42.4667 121.119 42.378 120.755 42.378C120.4 42.378 120.078 42.4667 119.789 42.644C119.5 42.812 119.271 43.0593 119.103 43.386C118.935 43.7033 118.851 44.086 118.851 44.534V49H117.801V44.534C117.801 44.0767 117.717 43.6893 117.549 43.372C117.39 43.0547 117.171 42.812 116.891 42.644C116.611 42.4667 116.289 42.378 115.925 42.378C115.561 42.378 115.234 42.4667 114.945 42.644C114.665 42.812 114.441 43.0593 114.273 43.386C114.105 43.7033 114.021 44.086 114.021 44.534V49H112.971ZM127.505 49V38.402H128.555V45.822L128.107 45.752L132.321 41.496H133.679L130.739 44.506L133.945 49H132.685L129.675 44.842L130.347 44.898L128.205 47.11L128.555 46.242V49H127.505ZM134.895 49V41.496H135.945V49H134.895ZM134.895 40.11V38.57H135.945V40.11H134.895ZM141.23 49.168C140.53 49.168 139.895 49 139.326 48.664C138.766 48.3187 138.323 47.8473 137.996 47.25C137.669 46.6527 137.506 45.976 137.506 45.22C137.506 44.464 137.665 43.7967 137.982 43.218C138.299 42.63 138.729 42.168 139.27 41.832C139.821 41.496 140.437 41.328 141.118 41.328C141.659 41.328 142.14 41.4307 142.56 41.636C142.989 41.832 143.353 42.1027 143.652 42.448C143.951 42.784 144.179 43.1667 144.338 43.596C144.497 44.016 144.576 44.45 144.576 44.898C144.576 44.9913 144.571 45.0987 144.562 45.22C144.553 45.332 144.539 45.4487 144.52 45.57H138.178V44.59H143.918L143.414 45.01C143.498 44.4967 143.437 44.0393 143.232 43.638C143.036 43.2273 142.751 42.9053 142.378 42.672C142.005 42.4293 141.585 42.308 141.118 42.308C140.651 42.308 140.217 42.4293 139.816 42.672C139.424 42.9147 139.116 43.2553 138.892 43.694C138.668 44.1233 138.579 44.6367 138.626 45.234C138.579 45.8313 138.673 46.354 138.906 46.802C139.149 47.2407 139.475 47.5813 139.886 47.824C140.306 48.0667 140.754 48.188 141.23 48.188C141.781 48.188 142.243 48.0573 142.616 47.796C142.989 47.5347 143.293 47.208 143.526 46.816L144.422 47.292C144.273 47.628 144.044 47.9407 143.736 48.23C143.428 48.51 143.059 48.7387 142.63 48.916C142.21 49.084 141.743 49.168 141.23 49.168ZM138.78 40.04L140.46 38.08H141.636L143.33 40.04H142.098L141.048 38.906L140.012 40.04H138.78ZM142.756 39.06L143.694 37.24H145.136L143.82 39.06H142.756ZM146.147 49V41.496H147.197V42.924L147.029 42.714C147.235 42.2753 147.538 41.9347 147.939 41.692C148.35 41.4493 148.798 41.328 149.283 41.328C149.862 41.328 150.385 41.4913 150.851 41.818C151.318 42.1447 151.649 42.5693 151.845 43.092L151.551 43.106C151.738 42.5273 152.06 42.0887 152.517 41.79C152.984 41.482 153.497 41.328 154.057 41.328C154.561 41.328 155.023 41.4493 155.443 41.692C155.873 41.9347 156.213 42.2707 156.465 42.7C156.727 43.12 156.857 43.596 156.857 44.128V49H155.807V44.534C155.807 44.0767 155.723 43.6893 155.555 43.372C155.397 43.0547 155.177 42.812 154.897 42.644C154.617 42.4667 154.295 42.378 153.931 42.378C153.577 42.378 153.255 42.4667 152.965 42.644C152.676 42.812 152.447 43.0593 152.279 43.386C152.111 43.7033 152.027 44.086 152.027 44.534V49H150.977V44.534C150.977 44.0767 150.893 43.6893 150.725 43.372C150.567 43.0547 150.347 42.812 150.067 42.644C149.787 42.4667 149.465 42.378 149.101 42.378C148.737 42.378 148.411 42.4667 148.121 42.644C147.841 42.812 147.617 43.0593 147.449 43.386C147.281 43.7033 147.197 44.086 147.197 44.534V49H146.147ZM162.641 49V39.62H159.757V38.57H166.617V39.62H163.761V49H162.641ZM166.731 49V41.496H167.781V42.728L167.641 42.546C167.818 42.1913 168.084 41.9113 168.439 41.706C168.803 41.5007 169.242 41.398 169.755 41.398H170.231V42.448H169.573C169.032 42.448 168.598 42.616 168.271 42.952C167.944 43.288 167.781 43.764 167.781 44.38V49H166.731ZM173.842 49.168C173.319 49.168 172.843 49.0467 172.414 48.804C171.984 48.552 171.644 48.2067 171.392 47.768C171.149 47.32 171.028 46.8067 171.028 46.228V41.496H172.078V46.102C172.078 46.5033 172.157 46.858 172.316 47.166C172.484 47.4647 172.712 47.698 173.002 47.866C173.3 48.034 173.641 48.118 174.024 48.118C174.406 48.118 174.747 48.034 175.046 47.866C175.344 47.6887 175.578 47.4413 175.746 47.124C175.914 46.7973 175.998 46.41 175.998 45.962V41.496H176.53C176.716 41.496 176.88 41.4493 177.02 41.356C177.169 41.2533 177.244 41.0527 177.244 40.754C177.244 40.558 177.211 40.3713 177.146 40.194C177.09 40.0073 177.02 39.8207 176.936 39.634H177.972C178.056 39.8207 178.13 40.012 178.196 40.208C178.261 40.404 178.294 40.6187 178.294 40.852C178.294 41.3373 178.158 41.7013 177.888 41.944C177.617 42.1867 177.262 42.322 176.824 42.35L177.048 42.014V49H175.998V48.076C175.774 48.4213 175.475 48.692 175.102 48.888C174.728 49.0747 174.308 49.168 173.842 49.168ZM182.742 49.168C182.032 49.168 181.388 49 180.81 48.664C180.231 48.3187 179.769 47.852 179.424 47.264C179.088 46.6667 178.92 45.99 178.92 45.234C178.92 44.4873 179.088 43.82 179.424 43.232C179.76 42.644 180.212 42.182 180.782 41.846C181.36 41.5007 182.014 41.328 182.742 41.328H184.324C184.445 41.328 184.557 41.3093 184.66 41.272C184.772 41.2253 184.86 41.1507 184.926 41.048C185 40.936 185.038 40.782 185.038 40.586C185.038 40.39 185.005 40.2033 184.94 40.026C184.884 39.8393 184.814 39.6527 184.73 39.466H185.766C185.85 39.6527 185.924 39.844 185.99 40.04C186.055 40.236 186.088 40.4507 186.088 40.684C186.088 41.1133 185.976 41.4493 185.752 41.692C185.528 41.9347 185.234 42.084 184.87 42.14L184.912 41.986C185.416 42.3313 185.812 42.784 186.102 43.344C186.4 43.904 186.55 44.534 186.55 45.234C186.55 45.9993 186.377 46.6807 186.032 47.278C185.686 47.866 185.224 48.328 184.646 48.664C184.076 49 183.442 49.168 182.742 49.168ZM182.742 48.118C183.246 48.118 183.698 47.992 184.1 47.74C184.51 47.488 184.832 47.1427 185.066 46.704C185.308 46.2653 185.43 45.7753 185.43 45.234C185.43 44.6927 185.308 44.2073 185.066 43.778C184.832 43.3487 184.51 43.008 184.1 42.756C183.698 42.504 183.246 42.378 182.742 42.378C182.238 42.378 181.78 42.504 181.37 42.756C180.968 43.008 180.646 43.3487 180.404 43.778C180.161 44.2073 180.04 44.6927 180.04 45.234C180.04 45.7753 180.161 46.2653 180.404 46.704C180.646 47.1427 180.968 47.488 181.37 47.74C181.78 47.992 182.238 48.118 182.742 48.118ZM182.21 40.04L180.614 37.94H182.056L183.274 40.04H182.21ZM188.122 49V41.496H189.172V42.952L188.934 42.896C189.12 42.4107 189.424 42.028 189.844 41.748C190.273 41.468 190.768 41.328 191.328 41.328C191.86 41.328 192.336 41.4493 192.756 41.692C193.185 41.9347 193.521 42.2707 193.764 42.7C194.016 43.12 194.142 43.596 194.142 44.128V49H193.092V44.534C193.092 44.0767 193.008 43.6893 192.84 43.372C192.681 43.0547 192.452 42.812 192.154 42.644C191.864 42.4667 191.528 42.378 191.146 42.378C190.763 42.378 190.422 42.4667 190.124 42.644C189.825 42.812 189.592 43.0593 189.424 43.386C189.256 43.7033 189.172 44.086 189.172 44.534V49H188.122ZM199.423 52.08C198.91 52.08 198.434 52.0007 197.995 51.842C197.566 51.6833 197.192 51.464 196.875 51.184C196.567 50.9133 196.329 50.596 196.161 50.232L197.127 49.714C197.276 50.0687 197.542 50.3767 197.925 50.638C198.308 50.8993 198.798 51.03 199.395 51.03C199.852 51.03 200.272 50.9413 200.655 50.764C201.038 50.5867 201.346 50.3253 201.579 49.98C201.812 49.6347 201.929 49.21 201.929 48.706V47.04L202.097 47.194C201.836 47.7353 201.448 48.1553 200.935 48.454C200.422 48.7433 199.862 48.888 199.255 48.888C198.555 48.888 197.925 48.72 197.365 48.384C196.805 48.048 196.362 47.5953 196.035 47.026C195.718 46.4473 195.559 45.808 195.559 45.108C195.559 44.3987 195.718 43.7593 196.035 43.19C196.362 42.6207 196.8 42.168 197.351 41.832C197.911 41.496 198.546 41.328 199.255 41.328C199.862 41.328 200.412 41.468 200.907 41.748C201.411 42.028 201.808 42.406 202.097 42.882L201.929 43.176V41.496H202.979V48.706C202.979 49.35 202.825 49.924 202.517 50.428C202.218 50.9413 201.798 51.3427 201.257 51.632C200.725 51.9307 200.114 52.08 199.423 52.08ZM199.311 47.838C199.796 47.838 200.235 47.7167 200.627 47.474C201.019 47.222 201.332 46.8907 201.565 46.48C201.808 46.06 201.929 45.6027 201.929 45.108C201.929 44.6133 201.808 44.1607 201.565 43.75C201.332 43.33 201.019 42.9987 200.627 42.756C200.235 42.504 199.796 42.378 199.311 42.378C198.816 42.378 198.368 42.504 197.967 42.756C197.566 42.9987 197.248 43.3253 197.015 43.736C196.791 44.1467 196.679 44.604 196.679 45.108C196.679 45.6027 196.791 46.06 197.015 46.48C197.248 46.8907 197.561 47.222 197.953 47.474C198.354 47.7167 198.807 47.838 199.311 47.838Z" fill="#111827" fill-opacity="0.4"/>
</g>
<g clip-path="url(#clip3_729_3813)">
<g filter="url(#filter3_d_729_3813)">
<path d="M97 91C97 88.7909 98.7909 87 101 87H111C113.209 87 115 88.7909 115 91V101C115 103.209 113.209 105 111 105H101C98.7909 105 97 103.209 97 101V91Z" fill="#196BE6" shape-rendering="crispEdges"/>
<path d="M102.5 96L105 98.5L110 93.5" stroke="white" stroke-width="1.5" stroke-linecap="round" stroke-linejoin="round"/>
</g>
<path d="M127.195 102V92.175H124.165V90.825H131.665V92.175H128.68V102H127.195ZM135.282 102.18C134.502 102.18 133.807 101.995 133.197 101.625C132.587 101.255 132.107 100.75 131.757 100.11C131.407 99.46 131.232 98.735 131.232 97.935C131.232 97.125 131.402 96.405 131.742 95.775C132.092 95.145 132.562 94.65 133.152 94.29C133.752 93.92 134.422 93.735 135.162 93.735C135.762 93.735 136.292 93.845 136.752 94.065C137.222 94.275 137.617 94.565 137.937 94.935C138.267 95.295 138.517 95.71 138.687 96.18C138.867 96.64 138.957 97.12 138.957 97.62C138.957 97.73 138.947 97.855 138.927 97.995C138.917 98.125 138.902 98.25 138.882 98.37H132.252V97.17H138.072L137.412 97.71C137.502 97.19 137.452 96.725 137.262 96.315C137.072 95.905 136.792 95.58 136.422 95.34C136.052 95.1 135.632 94.98 135.162 94.98C134.692 94.98 134.262 95.1 133.872 95.34C133.482 95.58 133.177 95.925 132.957 96.375C132.747 96.815 132.662 97.34 132.702 97.95C132.662 98.54 132.752 99.06 132.972 99.51C133.202 99.95 133.522 100.295 133.932 100.545C134.352 100.785 134.807 100.905 135.297 100.905C135.837 100.905 136.292 100.78 136.662 100.53C137.032 100.28 137.332 99.96 137.562 99.57L138.732 100.17C138.572 100.54 138.322 100.88 137.982 101.19C137.652 101.49 137.257 101.73 136.797 101.91C136.347 102.09 135.842 102.18 135.282 102.18ZM132.507 92.4L134.292 90.075H135.897L137.697 92.4H136.167L135.102 91.035L134.037 92.4H132.507ZM140.476 102V93.915H141.841V95.49L141.616 95.355C141.816 94.845 142.136 94.45 142.576 94.17C143.026 93.88 143.551 93.735 144.151 93.735C144.731 93.735 145.246 93.865 145.696 94.125C146.156 94.385 146.516 94.745 146.776 95.205C147.046 95.665 147.181 96.185 147.181 96.765V102H145.771V97.215C145.771 96.765 145.691 96.385 145.531 96.075C145.371 95.765 145.141 95.525 144.841 95.355C144.551 95.175 144.216 95.085 143.836 95.085C143.456 95.085 143.116 95.175 142.816 95.355C142.526 95.525 142.296 95.77 142.126 96.09C141.956 96.4 141.871 96.775 141.871 97.215V102H140.476ZM154.455 102.09C153.665 102.09 153.055 101.865 152.625 101.415C152.205 100.965 151.995 100.33 151.995 99.51V95.25H150.525V93.915H150.825C151.185 93.915 151.47 93.805 151.68 93.585C151.89 93.365 151.995 93.075 151.995 92.715V92.055H153.39V93.915H155.205V95.25H153.39V99.465C153.39 99.735 153.43 99.97 153.51 100.17C153.6 100.37 153.745 100.53 153.945 100.65C154.145 100.76 154.41 100.815 154.74 100.815C154.81 100.815 154.895 100.81 154.995 100.8C155.105 100.79 155.205 100.78 155.295 100.77V102C155.165 102.03 155.02 102.05 154.86 102.06C154.7 102.08 154.565 102.09 154.455 102.09ZM159.085 102.18C158.555 102.18 158.085 102.085 157.675 101.895C157.275 101.695 156.96 101.425 156.73 101.085C156.5 100.735 156.385 100.335 156.385 99.885C156.385 99.455 156.475 99.07 156.655 98.73C156.845 98.38 157.135 98.085 157.525 97.845C157.925 97.605 158.425 97.435 159.025 97.335L162.025 96.84V98.01L159.34 98.46C158.82 98.55 158.44 98.715 158.2 98.955C157.97 99.195 157.855 99.49 157.855 99.84C157.855 100.17 157.985 100.445 158.245 100.665C158.515 100.885 158.85 100.995 159.25 100.995C159.76 100.995 160.2 100.89 160.57 100.68C160.95 100.46 161.245 100.165 161.455 99.795C161.675 99.425 161.785 99.015 161.785 98.565V96.51C161.785 96.07 161.62 95.715 161.29 95.445C160.97 95.165 160.545 95.025 160.015 95.025C159.555 95.025 159.145 95.145 158.785 95.385C158.435 95.615 158.175 95.925 158.005 96.315L156.79 95.685C156.94 95.315 157.18 94.985 157.51 94.695C157.84 94.395 158.225 94.16 158.665 93.99C159.105 93.82 159.565 93.735 160.045 93.735C160.665 93.735 161.21 93.855 161.68 94.095C162.15 94.325 162.515 94.65 162.775 95.07C163.045 95.48 163.18 95.96 163.18 96.51V102H161.815V100.47L162.07 100.56C161.9 100.88 161.67 101.16 161.38 101.4C161.09 101.64 160.75 101.83 160.36 101.97C159.97 102.11 159.545 102.18 159.085 102.18ZM159.355 92.4L157.69 90.03H159.565L160.765 92.4H159.355ZM165.043 102V93.915H166.438V102H165.043ZM165.043 92.625V90.825H166.438V92.625H165.043ZM170.595 102V90.645H171.99V98.43L171.42 98.295L175.71 93.915H177.495L174.39 97.17L177.705 102H176.055L173.025 97.62L173.895 97.575L171.54 100.035L171.99 99.015V102H170.595ZM178.659 102V90.645H180.054V95.49L179.799 95.355C179.999 94.845 180.319 94.45 180.759 94.17C181.209 93.88 181.734 93.735 182.334 93.735C182.914 93.735 183.429 93.865 183.879 94.125C184.339 94.385 184.699 94.745 184.959 95.205C185.229 95.665 185.364 96.185 185.364 96.765V102H183.954V97.215C183.954 96.765 183.869 96.385 183.699 96.075C183.539 95.765 183.314 95.525 183.024 95.355C182.734 95.175 182.399 95.085 182.019 95.085C181.649 95.085 181.314 95.175 181.014 95.355C180.714 95.525 180.479 95.77 180.309 96.09C180.139 96.4 180.054 96.775 180.054 97.215V102H178.659ZM190.9 102.18C190.12 102.18 189.415 102 188.785 101.64C188.155 101.27 187.655 100.765 187.285 100.125C186.915 99.485 186.73 98.76 186.73 97.95C186.73 97.14 186.91 96.42 187.27 95.79C187.64 95.16 188.14 94.66 188.77 94.29C189.4 93.92 190.11 93.735 190.9 93.735C191.68 93.735 192.385 93.92 193.015 94.29C193.645 94.65 194.14 95.145 194.5 95.775C194.87 96.405 195.055 97.13 195.055 97.95C195.055 98.77 194.865 99.5 194.485 100.14C194.105 100.77 193.6 101.27 192.97 101.64C192.35 102 191.66 102.18 190.9 102.18ZM190.9 100.83C191.4 100.83 191.85 100.705 192.25 100.455C192.66 100.205 192.98 99.86 193.21 99.42C193.45 98.98 193.57 98.49 193.57 97.95C193.57 97.4 193.45 96.915 193.21 96.495C192.98 96.065 192.66 95.725 192.25 95.475C191.85 95.215 191.4 95.085 190.9 95.085C190.39 95.085 189.93 95.215 189.52 95.475C189.12 95.725 188.8 96.065 188.56 96.495C188.32 96.915 188.2 97.4 188.2 97.95C188.2 98.49 188.32 98.98 188.56 99.42C188.8 99.86 189.12 100.205 189.52 100.455C189.93 100.705 190.39 100.83 190.9 100.83ZM198.945 102.18C198.415 102.18 197.945 102.085 197.535 101.895C197.135 101.695 196.82 101.425 196.59 101.085C196.36 100.735 196.245 100.335 196.245 99.885C196.245 99.455 196.335 99.07 196.515 98.73C196.705 98.38 196.995 98.085 197.385 97.845C197.785 97.605 198.285 97.435 198.885 97.335L201.885 96.84V98.01L199.2 98.46C198.68 98.55 198.3 98.715 198.06 98.955C197.83 99.195 197.715 99.49 197.715 99.84C197.715 100.17 197.845 100.445 198.105 100.665C198.375 100.885 198.71 100.995 199.11 100.995C199.62 100.995 200.06 100.89 200.43 100.68C200.81 100.46 201.105 100.165 201.315 99.795C201.535 99.425 201.645 99.015 201.645 98.565V96.51C201.645 96.07 201.48 95.715 201.15 95.445C200.83 95.165 200.405 95.025 199.875 95.025C199.415 95.025 199.005 95.145 198.645 95.385C198.295 95.615 198.035 95.925 197.865 96.315L196.65 95.685C196.8 95.315 197.04 94.985 197.37 94.695C197.7 94.395 198.085 94.16 198.525 93.99C198.965 93.82 199.425 93.735 199.905 93.735C200.525 93.735 201.07 93.855 201.54 94.095C202.01 94.325 202.375 94.65 202.635 95.07C202.905 95.48 203.04 95.96 203.04 96.51V102H201.675V100.47L201.93 100.56C201.76 100.88 201.53 101.16 201.24 101.4C200.95 101.64 200.61 101.83 200.22 101.97C199.83 102.11 199.405 102.18 198.945 102.18ZM200.025 93L199.41 92.22C199.67 92.12 199.855 92 199.965 91.86C200.085 91.72 200.145 91.555 200.145 91.365C200.145 91.185 200.07 91.035 199.92 90.915C199.78 90.795 199.59 90.735 199.35 90.735C199.23 90.735 199.11 90.745 198.99 90.765C198.88 90.785 198.745 90.83 198.585 90.9L198.39 89.985C198.58 89.875 198.775 89.805 198.975 89.775C199.175 89.735 199.37 89.715 199.56 89.715C200.12 89.715 200.57 89.86 200.91 90.15C201.26 90.43 201.435 90.8 201.435 91.26C201.435 91.63 201.305 91.97 201.045 92.28C200.785 92.58 200.445 92.82 200.025 93ZM204.903 102V93.915H206.268V95.49L206.043 95.355C206.243 94.845 206.563 94.45 207.003 94.17C207.453 93.88 207.978 93.735 208.578 93.735C209.158 93.735 209.673 93.865 210.123 94.125C210.583 94.385 210.943 94.745 211.203 95.205C211.473 95.665 211.608 96.185 211.608 96.765V102H210.198V97.215C210.198 96.765 210.118 96.385 209.958 96.075C209.798 95.765 209.568 95.525 209.268 95.355C208.978 95.175 208.643 95.085 208.263 95.085C207.883 95.085 207.543 95.175 207.243 95.355C206.953 95.525 206.723 95.77 206.553 96.09C206.383 96.4 206.298 96.775 206.298 97.215V102H204.903Z" fill="#111827" fill-opacity="0.9"/>
</g>
<g clip-path="url(#clip4_729_3813)">
<g filter="url(#filter4_d_729_3813)">
<path d="M97 131C97 128.791 98.7909 127 101 127H111C113.209 127 115 128.791 115 131V141C115 143.209 113.209 145 111 145H101C98.7909 145 97 143.209 97 141V131Z" fill="#196BE6" shape-rendering="crispEdges"/>
<path d="M102.5 136L105 138.5L110 133.5" stroke="white" stroke-width="1.5" stroke-linecap="round" stroke-linejoin="round"/>
</g>
<path d="M125.245 142V130.825H126.475L132.895 139.855L132.34 139.915V130.825H133.825V142H132.595L126.205 132.91L126.715 132.85V142H125.245ZM139.709 145.3C139.139 145.3 138.609 145.21 138.119 145.03C137.639 144.85 137.224 144.6 136.874 144.28C136.534 143.97 136.274 143.605 136.094 143.185L137.399 142.585C137.539 142.965 137.804 143.285 138.194 143.545C138.594 143.815 139.094 143.95 139.694 143.95C140.154 143.95 140.569 143.86 140.939 143.68C141.319 143.51 141.619 143.25 141.839 142.9C142.059 142.56 142.169 142.145 142.169 141.655V139.84L142.424 140.11C142.144 140.66 141.739 141.08 141.209 141.37C140.689 141.66 140.114 141.805 139.484 141.805C138.724 141.805 138.044 141.63 137.444 141.28C136.844 140.92 136.374 140.435 136.034 139.825C135.694 139.205 135.524 138.52 135.524 137.77C135.524 137.01 135.694 136.325 136.034 135.715C136.374 135.105 136.839 134.625 137.429 134.275C138.029 133.915 138.709 133.735 139.469 133.735C140.099 133.735 140.669 133.88 141.179 134.17C141.699 134.45 142.114 134.84 142.424 135.34L142.214 135.715V133.915H143.579V141.655C143.579 142.355 143.414 142.98 143.084 143.53C142.754 144.08 142.294 144.51 141.704 144.82C141.124 145.14 140.459 145.3 139.709 145.3ZM139.604 140.455C140.084 140.455 140.514 140.335 140.894 140.095C141.284 139.855 141.594 139.535 141.824 139.135C142.054 138.725 142.169 138.27 142.169 137.77C142.169 137.28 142.054 136.83 141.824 136.42C141.594 136.01 141.284 135.685 140.894 135.445C140.514 135.205 140.084 135.085 139.604 135.085C139.114 135.085 138.669 135.205 138.269 135.445C137.869 135.685 137.554 136.01 137.324 136.42C137.104 136.82 136.994 137.27 136.994 137.77C136.994 138.27 137.104 138.725 137.324 139.135C137.554 139.535 137.864 139.855 138.254 140.095C138.654 140.335 139.104 140.455 139.604 140.455ZM148.307 142.18C147.727 142.18 147.202 142.045 146.732 141.775C146.272 141.505 145.912 141.13 145.652 140.65C145.402 140.16 145.277 139.6 145.277 138.97V133.915H146.672V138.82C146.672 139.22 146.752 139.57 146.912 139.87C147.082 140.17 147.312 140.405 147.602 140.575C147.902 140.745 148.242 140.83 148.622 140.83C149.002 140.83 149.337 140.745 149.627 140.575C149.927 140.405 150.157 140.16 150.317 139.84C150.487 139.52 150.572 139.14 150.572 138.7V133.915H151.982V142H150.617V140.425L150.842 140.56C150.652 141.07 150.327 141.47 149.867 141.76C149.417 142.04 148.897 142.18 148.307 142.18ZM157.683 142.18C156.903 142.18 156.198 142 155.568 141.64C154.938 141.27 154.438 140.765 154.068 140.125C153.698 139.485 153.513 138.76 153.513 137.95C153.513 137.14 153.693 136.42 154.053 135.79C154.423 135.16 154.923 134.66 155.553 134.29C156.183 133.92 156.893 133.735 157.683 133.735C158.463 133.735 159.168 133.92 159.798 134.29C160.428 134.65 160.923 135.145 161.283 135.775C161.653 136.405 161.838 137.13 161.838 137.95C161.838 138.77 161.648 139.5 161.268 140.14C160.888 140.77 160.383 141.27 159.753 141.64C159.133 142 158.443 142.18 157.683 142.18ZM157.683 140.83C158.183 140.83 158.633 140.705 159.033 140.455C159.443 140.205 159.763 139.86 159.993 139.42C160.233 138.98 160.353 138.49 160.353 137.95C160.353 137.4 160.233 136.915 159.993 136.495C159.763 136.065 159.443 135.725 159.033 135.475C158.633 135.215 158.183 135.085 157.683 135.085C157.173 135.085 156.713 135.215 156.303 135.475C155.903 135.725 155.583 136.065 155.343 136.495C155.103 136.915 154.983 137.4 154.983 137.95C154.983 138.49 155.103 138.98 155.343 139.42C155.583 139.86 155.903 140.205 156.303 140.455C156.713 140.705 157.173 140.83 157.683 140.83ZM155.088 132.4L156.873 130.225H158.478L160.278 132.4H158.748L157.683 131.185L156.618 132.4H155.088ZM160.563 131.305L159.183 129.28H160.953L161.853 131.305H160.563ZM163.358 142V133.915H164.723V135.49L164.498 135.355C164.698 134.845 165.018 134.45 165.458 134.17C165.908 133.88 166.433 133.735 167.033 133.735C167.613 133.735 168.128 133.865 168.578 134.125C169.038 134.385 169.398 134.745 169.658 135.205C169.928 135.665 170.063 136.185 170.063 136.765V142H168.653V137.215C168.653 136.765 168.573 136.385 168.413 136.075C168.253 135.765 168.023 135.525 167.723 135.355C167.433 135.175 167.098 135.085 166.718 135.085C166.338 135.085 165.998 135.175 165.698 135.355C165.408 135.525 165.178 135.77 165.008 136.09C164.838 136.4 164.753 136.775 164.753 137.215V142H163.358Z" fill="#111827" fill-opacity="0.9"/>
</g>
<g clip-path="url(#clip5_729_3813)">
<g filter="url(#filter5_d_729_3813)">
<path d="M97 171C97 168.791 98.7909 167 101 167H111C113.209 167 115 168.791 115 171V181C115 183.209 113.209 185 111 185H101C98.7909 185 97 183.209 97 181V171Z" fill="#196BE6" shape-rendering="crispEdges"/>
<path d="M102.5 176L105 178.5L110 173.5" stroke="white" stroke-width="1.5" stroke-linecap="round" stroke-linejoin="round"/>
</g>
<path d="M124.36 177.035V175.76H129.1V177.035H124.36ZM125.245 182V170.825H128.905C130.035 170.825 131.02 171.055 131.86 171.515C132.7 171.975 133.35 172.625 133.81 173.465C134.27 174.295 134.5 175.275 134.5 176.405C134.5 177.525 134.27 178.505 133.81 179.345C133.35 180.185 132.7 180.84 131.86 181.31C131.02 181.77 130.035 182 128.905 182H125.245ZM126.715 180.65H128.92C129.75 180.65 130.465 180.475 131.065 180.125C131.675 179.775 132.145 179.285 132.475 178.655C132.805 178.015 132.97 177.265 132.97 176.405C132.97 175.535 132.8 174.785 132.46 174.155C132.13 173.525 131.66 173.04 131.05 172.7C130.45 172.35 129.74 172.175 128.92 172.175H126.715V180.65ZM135.898 182V173.915H137.293V182H135.898ZM135.898 172.625V170.825H137.293V172.625H135.898ZM135.763 185.03V183.35H137.443V185.03H135.763ZM141.528 182.18C140.998 182.18 140.528 182.085 140.118 181.895C139.718 181.695 139.403 181.425 139.173 181.085C138.943 180.735 138.828 180.335 138.828 179.885C138.828 179.455 138.918 179.07 139.098 178.73C139.288 178.38 139.578 178.085 139.968 177.845C140.368 177.605 140.868 177.435 141.468 177.335L144.468 176.84V178.01L141.783 178.46C141.263 178.55 140.883 178.715 140.643 178.955C140.413 179.195 140.298 179.49 140.298 179.84C140.298 180.17 140.428 180.445 140.688 180.665C140.958 180.885 141.293 180.995 141.693 180.995C142.203 180.995 142.643 180.89 143.013 180.68C143.393 180.46 143.688 180.165 143.898 179.795C144.118 179.425 144.228 179.015 144.228 178.565V176.51C144.228 176.07 144.063 175.715 143.733 175.445C143.413 175.165 142.988 175.025 142.458 175.025C141.998 175.025 141.588 175.145 141.228 175.385C140.878 175.615 140.618 175.925 140.448 176.315L139.233 175.685C139.383 175.315 139.623 174.985 139.953 174.695C140.283 174.395 140.668 174.16 141.108 173.99C141.548 173.82 142.008 173.735 142.488 173.735C143.108 173.735 143.653 173.855 144.123 174.095C144.593 174.325 144.958 174.65 145.218 175.07C145.488 175.48 145.623 175.96 145.623 176.51V182H144.258V180.47L144.513 180.56C144.343 180.88 144.113 181.16 143.823 181.4C143.533 181.64 143.193 181.83 142.803 181.97C142.413 182.11 141.988 182.18 141.528 182.18ZM153.528 182.18C152.738 182.18 152.033 181.995 151.413 181.625C150.803 181.255 150.323 180.75 149.973 180.11C149.623 179.47 149.448 178.75 149.448 177.95C149.448 177.14 149.623 176.42 149.973 175.79C150.323 175.16 150.803 174.66 151.413 174.29C152.033 173.92 152.738 173.735 153.528 173.735C154.058 173.735 154.553 173.83 155.013 174.02C155.473 174.21 155.878 174.465 156.228 174.785C156.578 175.105 156.833 175.48 156.993 175.91L155.748 176.51C155.558 176.09 155.268 175.75 154.878 175.49C154.488 175.22 154.038 175.085 153.528 175.085C153.038 175.085 152.593 175.21 152.193 175.46C151.803 175.71 151.493 176.05 151.263 176.48C151.033 176.91 150.918 177.405 150.918 177.965C150.918 178.505 151.033 178.995 151.263 179.435C151.493 179.865 151.803 180.205 152.193 180.455C152.593 180.705 153.038 180.83 153.528 180.83C154.038 180.83 154.488 180.7 154.878 180.44C155.268 180.17 155.558 179.815 155.748 179.375L156.993 180.005C156.833 180.425 156.578 180.8 156.228 181.13C155.878 181.45 155.473 181.705 155.013 181.895C154.553 182.085 154.058 182.18 153.528 182.18ZM158.517 182V170.645H159.912V175.49L159.657 175.355C159.857 174.845 160.177 174.45 160.617 174.17C161.067 173.88 161.592 173.735 162.192 173.735C162.772 173.735 163.287 173.865 163.737 174.125C164.197 174.385 164.557 174.745 164.817 175.205C165.087 175.665 165.222 176.185 165.222 176.765V182H163.812V177.215C163.812 176.765 163.727 176.385 163.557 176.075C163.397 175.765 163.172 175.525 162.882 175.355C162.592 175.175 162.257 175.085 161.877 175.085C161.507 175.085 161.172 175.175 160.872 175.355C160.572 175.525 160.337 175.77 160.167 176.09C159.997 176.4 159.912 176.775 159.912 177.215V182H158.517ZM166.708 182V173.915H168.103V182H166.708ZM167.518 173L166.903 172.22C167.163 172.12 167.348 172 167.458 171.86C167.578 171.72 167.638 171.555 167.638 171.365C167.638 171.185 167.563 171.035 167.413 170.915C167.273 170.795 167.083 170.735 166.843 170.735C166.723 170.735 166.603 170.745 166.483 170.765C166.373 170.785 166.238 170.83 166.078 170.9L165.883 169.985C166.073 169.875 166.268 169.805 166.468 169.775C166.668 169.735 166.863 169.715 167.053 169.715C167.613 169.715 168.063 169.86 168.403 170.15C168.753 170.43 168.928 170.8 168.928 171.26C168.928 171.63 168.798 171.97 168.538 172.28C168.278 172.58 167.938 172.82 167.518 173Z" fill="#111827" fill-opacity="0.9"/>
</g>
<g clip-path="url(#clip6_729_3813)">
<g filter="url(#filter6_d_729_3813)">
<path d="M97 211C97 208.791 98.7909 207 101 207H111C113.209 207 115 208.791 115 211V221C115 223.209 113.209 225 111 225H101C98.7909 225 97 223.209 97 221V211Z" fill="#196BE6" shape-rendering="crispEdges"/>
<path d="M102.5 216L105 218.5L110 213.5" stroke="white" stroke-width="1.5" stroke-linecap="round" stroke-linejoin="round"/>
</g>
<path d="M130.405 222.18C129.615 222.18 128.885 222.04 128.215 221.76C127.545 221.47 126.965 221.065 126.475 220.545C125.985 220.025 125.6 219.415 125.32 218.715C125.05 218.015 124.915 217.25 124.915 216.42C124.915 215.58 125.05 214.81 125.32 214.11C125.59 213.41 125.97 212.8 126.46 212.28C126.95 211.76 127.53 211.36 128.2 211.08C128.87 210.79 129.6 210.645 130.39 210.645C131.16 210.645 131.85 210.78 132.46 211.05C133.08 211.32 133.6 211.67 134.02 212.1C134.45 212.53 134.755 212.99 134.935 213.48L133.615 214.125C133.355 213.475 132.95 212.96 132.4 212.58C131.85 212.2 131.18 212.01 130.39 212.01C129.61 212.01 128.915 212.195 128.305 212.565C127.705 212.935 127.235 213.45 126.895 214.11C126.555 214.77 126.385 215.54 126.385 216.42C126.385 217.29 126.555 218.055 126.895 218.715C127.245 219.375 127.72 219.89 128.32 220.26C128.93 220.63 129.625 220.815 130.405 220.815C131.085 220.815 131.7 220.67 132.25 220.38C132.8 220.09 133.235 219.69 133.555 219.18C133.875 218.67 134.035 218.08 134.035 217.41V216.72L134.71 217.35H130.39V216.075H135.52V217.065C135.52 217.845 135.385 218.55 135.115 219.18C134.845 219.81 134.475 220.35 134.005 220.8C133.535 221.24 132.99 221.58 132.37 221.82C131.75 222.06 131.095 222.18 130.405 222.18ZM137.041 222V213.915H138.436V222H137.041ZM137.041 212.625V210.825H138.436V212.625H137.041ZM144.14 222.18C143.36 222.18 142.655 222 142.025 221.64C141.395 221.27 140.895 220.765 140.525 220.125C140.155 219.485 139.97 218.76 139.97 217.95C139.97 217.14 140.15 216.42 140.51 215.79C140.88 215.16 141.38 214.66 142.01 214.29C142.64 213.92 143.35 213.735 144.14 213.735H145.79C145.91 213.735 146.025 213.72 146.135 213.69C146.255 213.65 146.35 213.575 146.42 213.465C146.5 213.355 146.54 213.185 146.54 212.955C146.54 212.765 146.51 212.57 146.45 212.37C146.39 212.17 146.315 211.97 146.225 211.77H147.53C147.62 211.98 147.7 212.19 147.77 212.4C147.84 212.6 147.875 212.83 147.875 213.09C147.875 213.59 147.745 213.98 147.485 214.26C147.225 214.53 146.89 214.7 146.48 214.77L146.555 214.485C147.085 214.855 147.505 215.34 147.815 215.94C148.135 216.53 148.295 217.2 148.295 217.95C148.295 218.77 148.105 219.5 147.725 220.14C147.345 220.77 146.84 221.27 146.21 221.64C145.59 222 144.9 222.18 144.14 222.18ZM144.14 220.83C144.64 220.83 145.09 220.705 145.49 220.455C145.9 220.205 146.22 219.86 146.45 219.42C146.69 218.98 146.81 218.49 146.81 217.95C146.81 217.4 146.69 216.915 146.45 216.495C146.22 216.065 145.9 215.725 145.49 215.475C145.09 215.215 144.64 215.085 144.14 215.085C143.63 215.085 143.17 215.215 142.76 215.475C142.36 215.725 142.04 216.065 141.8 216.495C141.56 216.915 141.44 217.4 141.44 217.95C141.44 218.49 141.56 218.98 141.8 219.42C142.04 219.86 142.36 220.205 142.76 220.455C143.17 220.705 143.63 220.83 144.14 220.83ZM143.435 212.4L144.62 210.03H146.51L144.83 212.4H143.435ZM149.815 222V213.915H151.21V222H149.815ZM149.815 212.625V210.825H151.21V212.625H149.815ZM158.652 222.09C157.862 222.09 157.252 221.865 156.822 221.415C156.402 220.965 156.192 220.33 156.192 219.51V215.25H154.722V213.915H155.022C155.382 213.915 155.667 213.805 155.877 213.585C156.087 213.365 156.192 213.075 156.192 212.715V212.055H157.587V213.915H159.402V215.25H157.587V219.465C157.587 219.735 157.627 219.97 157.707 220.17C157.797 220.37 157.942 220.53 158.142 220.65C158.342 220.76 158.607 220.815 158.937 220.815C159.007 220.815 159.092 220.81 159.192 220.8C159.302 220.79 159.402 220.78 159.492 220.77V222C159.362 222.03 159.217 222.05 159.057 222.06C158.897 222.08 158.762 222.09 158.652 222.09ZM160.804 222V213.915H162.199V222H160.804ZM160.804 212.4L161.989 210.03H163.879L162.199 212.4H160.804ZM163.849 222V213.915H165.214V215.49L164.989 215.355C165.189 214.845 165.509 214.45 165.949 214.17C166.399 213.88 166.924 213.735 167.524 213.735C168.104 213.735 168.619 213.865 169.069 214.125C169.529 214.385 169.889 214.745 170.149 215.205C170.419 215.665 170.554 216.185 170.554 216.765V222H169.144V217.215C169.144 216.765 169.064 216.385 168.904 216.075C168.744 215.765 168.514 215.525 168.214 215.355C167.924 215.175 167.589 215.085 167.209 215.085C166.829 215.085 166.489 215.175 166.189 215.355C165.899 215.525 165.669 215.77 165.499 216.09C165.329 216.4 165.244 216.775 165.244 217.215V222H163.849ZM172.25 222V210.645H173.645V215.49L173.39 215.355C173.59 214.845 173.91 214.45 174.35 214.17C174.8 213.88 175.325 213.735 175.925 213.735C176.505 213.735 177.02 213.865 177.47 214.125C177.93 214.385 178.29 214.745 178.55 215.205C178.82 215.665 178.955 216.185 178.955 216.765V222H177.545V217.215C177.545 216.765 177.46 216.385 177.29 216.075C177.13 215.765 176.905 215.525 176.615 215.355C176.325 215.175 175.99 215.085 175.61 215.085C175.24 215.085 174.905 215.175 174.605 215.355C174.305 215.525 174.07 215.77 173.9 216.09C173.73 216.4 173.645 216.775 173.645 217.215V222H172.25Z" fill="#111827" fill-opacity="0.9"/>
</g>
<g clip-path="url(#clip7_729_3813)">
<g filter="url(#filter7_d_729_3813)">
<path d="M97 251C97 248.791 98.7909 247 101 247H111C113.209 247 115 248.791 115 251V261C115 263.209 113.209 265 111 265H101C98.7909 265 97 263.209 97 261V251Z" fill="#196BE6" shape-rendering="crispEdges"/>
</g>
</g>
</g>
</g>
</g>
</g>
<g filter="url(#filter8_d_729_3813)">
<g clip-path="url(#clip8_729_3813)">
<g filter="url(#filter9_d_729_3813)">
<path d="M256 50C256 46.6863 258.686 44 262 44H538C541.314 44 544 46.6863 544 50V460C544 463.314 541.314 466 538 466H262C258.686 466 256 463.314 256 460V50Z" fill="#FAFAFA"/>
<path d="M284 104.6C284 103.716 284.716 103 285.6 103H302.046C302.776 103 303.465 103.331 303.921 103.901L308.8 110C309.268 110.585 309.268 111.415 308.8 112L303.921 118.099C303.465 118.669 302.776 119 302.046 119H285.6C284.716 119 284 118.284 284 117.4V104.6Z" fill="#F43F5E"/>
<path d="M325.245 117V105.825H326.715V115.65H331.62V117H325.245ZM336.527 117.18C335.747 117.18 335.052 116.995 334.442 116.625C333.832 116.255 333.352 115.75 333.002 115.11C332.652 114.46 332.477 113.735 332.477 112.935C332.477 112.125 332.647 111.405 332.987 110.775C333.337 110.145 333.807 109.65 334.397 109.29C334.997 108.92 335.667 108.735 336.407 108.735C337.007 108.735 337.537 108.845 337.997 109.065C338.467 109.275 338.862 109.565 339.182 109.935C339.512 110.295 339.762 110.71 339.932 111.18C340.112 111.64 340.202 112.12 340.202 112.62C340.202 112.73 340.192 112.855 340.172 112.995C340.162 113.125 340.147 113.25 340.127 113.37H333.497V112.17H339.317L338.657 112.71C338.747 112.19 338.697 111.725 338.507 111.315C338.317 110.905 338.037 110.58 337.667 110.34C337.297 110.1 336.877 109.98 336.407 109.98C335.937 109.98 335.507 110.1 335.117 110.34C334.727 110.58 334.422 110.925 334.202 111.375C333.992 111.815 333.907 112.34 333.947 112.95C333.907 113.54 333.997 114.06 334.217 114.51C334.447 114.95 334.767 115.295 335.177 115.545C335.597 115.785 336.052 115.905 336.542 115.905C337.082 115.905 337.537 115.78 337.907 115.53C338.277 115.28 338.577 114.96 338.807 114.57L339.977 115.17C339.817 115.54 339.567 115.88 339.227 116.19C338.897 116.49 338.502 116.73 338.042 116.91C337.592 117.09 337.087 117.18 336.527 117.18ZM343.989 117.18C343.459 117.18 342.989 117.085 342.579 116.895C342.179 116.695 341.864 116.425 341.634 116.085C341.404 115.735 341.289 115.335 341.289 114.885C341.289 114.455 341.379 114.07 341.559 113.73C341.749 113.38 342.039 113.085 342.429 112.845C342.829 112.605 343.329 112.435 343.929 112.335L346.929 111.84V113.01L344.244 113.46C343.724 113.55 343.344 113.715 343.104 113.955C342.874 114.195 342.759 114.49 342.759 114.84C342.759 115.17 342.889 115.445 343.149 115.665C343.419 115.885 343.754 115.995 344.154 115.995C344.664 115.995 345.104 115.89 345.474 115.68C345.854 115.46 346.149 115.165 346.359 114.795C346.579 114.425 346.689 114.015 346.689 113.565V111.51C346.689 111.07 346.524 110.715 346.194 110.445C345.874 110.165 345.449 110.025 344.919 110.025C344.459 110.025 344.049 110.145 343.689 110.385C343.339 110.615 343.079 110.925 342.909 111.315L341.694 110.685C341.844 110.315 342.084 109.985 342.414 109.695C342.744 109.395 343.129 109.16 343.569 108.99C344.009 108.82 344.469 108.735 344.949 108.735C345.569 108.735 346.114 108.855 346.584 109.095C347.054 109.325 347.419 109.65 347.679 110.07C347.949 110.48 348.084 110.96 348.084 111.51V117H346.719V115.47L346.974 115.56C346.804 115.88 346.574 116.16 346.284 116.4C345.994 116.64 345.654 116.83 345.264 116.97C344.874 117.11 344.449 117.18 343.989 117.18ZM353.622 117.18C352.862 117.18 352.177 116.995 351.567 116.625C350.967 116.255 350.492 115.75 350.142 115.11C349.792 114.47 349.617 113.755 349.617 112.965C349.617 112.155 349.792 111.435 350.142 110.805C350.492 110.165 350.967 109.66 351.567 109.29C352.177 108.92 352.862 108.735 353.622 108.735C354.292 108.735 354.887 108.88 355.407 109.17C355.927 109.45 356.337 109.83 356.637 110.31L356.412 110.655V105.645H357.822V117H356.457V115.275L356.637 115.515C356.357 116.045 355.947 116.455 355.407 116.745C354.877 117.035 354.282 117.18 353.622 117.18ZM353.742 115.83C354.252 115.83 354.707 115.705 355.107 115.455C355.507 115.205 355.822 114.865 356.052 114.435C356.292 113.995 356.412 113.505 356.412 112.965C356.412 112.415 356.292 111.925 356.052 111.495C355.822 111.055 355.507 110.71 355.107 110.46C354.707 110.21 354.252 110.085 353.742 110.085C353.242 110.085 352.787 110.215 352.377 110.475C351.977 110.725 351.662 111.065 351.432 111.495C351.202 111.915 351.087 112.405 351.087 112.965C351.087 113.505 351.202 113.995 351.432 114.435C351.662 114.865 351.977 115.205 352.377 115.455C352.777 115.705 353.232 115.83 353.742 115.83Z" fill="#111827" fill-opacity="0.9"/>
<path d="M284 148.6C284 147.716 284.716 147 285.6 147H302.046C302.776 147 303.465 147.331 303.921 147.901L308.8 154C309.268 154.585 309.268 155.415 308.8 156L303.921 162.099C303.465 162.669 302.776 163 302.046 163H285.6C284.716 163 284 162.284 284 161.4V148.6Z" fill="#16A34A"/>
<path d="M330.39 161.18C329.6 161.18 328.87 161.04 328.2 160.76C327.54 160.47 326.96 160.065 326.46 159.545C325.97 159.025 325.59 158.415 325.32 157.715C325.05 157.015 324.915 156.25 324.915 155.42C324.915 154.58 325.05 153.81 325.32 153.11C325.59 152.41 325.97 151.8 326.46 151.28C326.95 150.76 327.53 150.36 328.2 150.08C328.87 149.79 329.6 149.645 330.39 149.645C331.16 149.645 331.85 149.78 332.46 150.05C333.08 150.32 333.6 150.67 334.02 151.1C334.45 151.53 334.755 151.99 334.935 152.48L333.585 153.095C333.325 152.475 332.92 151.975 332.37 151.595C331.82 151.205 331.16 151.01 330.39 151.01C329.61 151.01 328.915 151.195 328.305 151.565C327.705 151.935 327.235 152.45 326.895 153.11C326.555 153.77 326.385 154.54 326.385 155.42C326.385 156.29 326.555 157.055 326.895 157.715C327.235 158.375 327.705 158.89 328.305 159.26C328.915 159.63 329.61 159.815 330.39 159.815C331.16 159.815 331.82 159.625 332.37 159.245C332.92 158.855 333.325 158.35 333.585 157.73L334.935 158.345C334.755 158.835 334.45 159.295 334.02 159.725C333.6 160.155 333.08 160.505 332.46 160.775C331.85 161.045 331.16 161.18 330.39 161.18ZM340.163 161.18C339.383 161.18 338.678 161 338.048 160.64C337.418 160.27 336.918 159.765 336.548 159.125C336.178 158.485 335.993 157.76 335.993 156.95C335.993 156.14 336.173 155.42 336.533 154.79C336.903 154.16 337.403 153.66 338.033 153.29C338.663 152.92 339.373 152.735 340.163 152.735C340.943 152.735 341.648 152.92 342.278 153.29C342.908 153.65 343.403 154.145 343.763 154.775C344.133 155.405 344.318 156.13 344.318 156.95C344.318 157.77 344.128 158.5 343.748 159.14C343.368 159.77 342.863 160.27 342.233 160.64C341.613 161 340.923 161.18 340.163 161.18ZM340.163 159.83C340.663 159.83 341.113 159.705 341.513 159.455C341.923 159.205 342.243 158.86 342.473 158.42C342.713 157.98 342.833 157.49 342.833 156.95C342.833 156.4 342.713 155.915 342.473 155.495C342.243 155.065 341.923 154.725 341.513 154.475C341.113 154.215 340.663 154.085 340.163 154.085C339.653 154.085 339.193 154.215 338.783 154.475C338.383 154.725 338.063 155.065 337.823 155.495C337.583 155.915 337.463 156.4 337.463 156.95C337.463 157.49 337.583 157.98 337.823 158.42C338.063 158.86 338.383 159.205 338.783 159.455C339.193 159.705 339.653 159.83 340.163 159.83ZM345.837 161V152.915H347.202V154.49L346.977 154.355C347.177 153.845 347.497 153.45 347.937 153.17C348.387 152.88 348.912 152.735 349.512 152.735C350.092 152.735 350.607 152.865 351.057 153.125C351.517 153.385 351.877 153.745 352.137 154.205C352.407 154.665 352.542 155.185 352.542 155.765V161H351.132V156.215C351.132 155.765 351.052 155.385 350.892 155.075C350.732 154.765 350.502 154.525 350.202 154.355C349.912 154.175 349.577 154.085 349.197 154.085C348.817 154.085 348.477 154.175 348.177 154.355C347.887 154.525 347.657 154.77 347.487 155.09C347.317 155.4 347.232 155.775 347.232 156.215V161H345.837ZM356.342 161L353.177 152.915H354.737L357.272 159.755H356.732L359.282 152.915H360.842L357.662 161H356.342ZM365.364 161.18C364.584 161.18 363.889 160.995 363.279 160.625C362.669 160.255 362.189 159.75 361.839 159.11C361.489 158.46 361.314 157.735 361.314 156.935C361.314 156.125 361.484 155.405 361.824 154.775C362.174 154.145 362.644 153.65 363.234 153.29C363.834 152.92 364.504 152.735 365.244 152.735C365.844 152.735 366.374 152.845 366.834 153.065C367.304 153.275 367.699 153.565 368.019 153.935C368.349 154.295 368.599 154.71 368.769 155.18C368.949 155.64 369.039 156.12 369.039 156.62C369.039 156.73 369.029 156.855 369.009 156.995C368.999 157.125 368.984 157.25 368.964 157.37H362.334V156.17H368.154L367.494 156.71C367.584 156.19 367.534 155.725 367.344 155.315C367.154 154.905 366.874 154.58 366.504 154.34C366.134 154.1 365.714 153.98 365.244 153.98C364.774 153.98 364.344 154.1 363.954 154.34C363.564 154.58 363.259 154.925 363.039 155.375C362.829 155.815 362.744 156.34 362.784 156.95C362.744 157.54 362.834 158.06 363.054 158.51C363.284 158.95 363.604 159.295 364.014 159.545C364.434 159.785 364.889 159.905 365.379 159.905C365.919 159.905 366.374 159.78 366.744 159.53C367.114 159.28 367.414 158.96 367.644 158.57L368.814 159.17C368.654 159.54 368.404 159.88 368.064 160.19C367.734 160.49 367.339 160.73 366.879 160.91C366.429 161.09 365.924 161.18 365.364 161.18ZM370.558 161V152.915H371.923V154.4L371.773 154.19C371.963 153.73 372.253 153.39 372.643 153.17C373.033 152.94 373.508 152.825 374.068 152.825H374.563V154.145H373.858C373.288 154.145 372.828 154.325 372.478 154.685C372.128 155.035 371.953 155.535 371.953 156.185V161H370.558ZM378.86 161.09C378.07 161.09 377.46 160.865 377.03 160.415C376.61 159.965 376.4 159.33 376.4 158.51V154.25H374.93V152.915H375.23C375.59 152.915 375.875 152.805 376.085 152.585C376.295 152.365 376.4 152.075 376.4 151.715V151.055H377.795V152.915H379.61V154.25H377.795V158.465C377.795 158.735 377.835 158.97 377.915 159.17C378.005 159.37 378.15 159.53 378.35 159.65C378.55 159.76 378.815 159.815 379.145 159.815C379.215 159.815 379.3 159.81 379.4 159.8C379.51 159.79 379.61 159.78 379.7 159.77V161C379.57 161.03 379.425 161.05 379.265 161.06C379.105 161.08 378.97 161.09 378.86 161.09ZM384.722 161.18C383.942 161.18 383.247 160.995 382.637 160.625C382.027 160.255 381.547 159.75 381.197 159.11C380.847 158.46 380.672 157.735 380.672 156.935C380.672 156.125 380.842 155.405 381.182 154.775C381.532 154.145 382.002 153.65 382.592 153.29C383.192 152.92 383.862 152.735 384.602 152.735C385.202 152.735 385.732 152.845 386.192 153.065C386.662 153.275 387.057 153.565 387.377 153.935C387.707 154.295 387.957 154.71 388.127 155.18C388.307 155.64 388.397 156.12 388.397 156.62C388.397 156.73 388.387 156.855 388.367 156.995C388.357 157.125 388.342 157.25 388.322 157.37H381.692V156.17H387.512L386.852 156.71C386.942 156.19 386.892 155.725 386.702 155.315C386.512 154.905 386.232 154.58 385.862 154.34C385.492 154.1 385.072 153.98 384.602 153.98C384.132 153.98 383.702 154.1 383.312 154.34C382.922 154.58 382.617 154.925 382.397 155.375C382.187 155.815 382.102 156.34 382.142 156.95C382.102 157.54 382.192 158.06 382.412 158.51C382.642 158.95 382.962 159.295 383.372 159.545C383.792 159.785 384.247 159.905 384.737 159.905C385.277 159.905 385.732 159.78 386.102 159.53C386.472 159.28 386.772 158.96 387.002 158.57L388.172 159.17C388.012 159.54 387.762 159.88 387.422 160.19C387.092 160.49 386.697 160.73 386.237 160.91C385.787 161.09 385.282 161.18 384.722 161.18ZM393.591 161.18C392.831 161.18 392.146 160.995 391.536 160.625C390.936 160.255 390.461 159.75 390.111 159.11C389.761 158.47 389.586 157.755 389.586 156.965C389.586 156.155 389.761 155.435 390.111 154.805C390.461 154.165 390.936 153.66 391.536 153.29C392.146 152.92 392.831 152.735 393.591 152.735C394.261 152.735 394.856 152.88 395.376 153.17C395.896 153.45 396.306 153.83 396.606 154.31L396.381 154.655V149.645H397.791V161H396.426V159.275L396.606 159.515C396.326 160.045 395.916 160.455 395.376 160.745C394.846 161.035 394.251 161.18 393.591 161.18ZM393.711 159.83C394.221 159.83 394.676 159.705 395.076 159.455C395.476 159.205 395.791 158.865 396.021 158.435C396.261 157.995 396.381 157.505 396.381 156.965C396.381 156.415 396.261 155.925 396.021 155.495C395.791 155.055 395.476 154.71 395.076 154.46C394.676 154.21 394.221 154.085 393.711 154.085C393.211 154.085 392.756 154.215 392.346 154.475C391.946 154.725 391.631 155.065 391.401 155.495C391.171 155.915 391.056 156.405 391.056 156.965C391.056 157.505 391.171 157.995 391.401 158.435C391.631 158.865 391.946 159.205 392.346 159.455C392.746 159.705 393.201 159.83 393.711 159.83Z" fill="#111827" fill-opacity="0.9"/>
<path d="M264 186C264 182.686 266.686 180 270 180H530C533.314 180 536 182.686 536 186V220C536 223.314 533.314 226 530 226H270C266.686 226 264 223.314 264 220V186Z" fill="#EFF3FF"/>
<path d="M284 196.6C284 195.716 284.716 195 285.6 195H302.046C302.776 195 303.465 195.331 303.921 195.901L308.8 202C309.268 202.585 309.268 203.415 308.8 204L303.921 210.099C303.465 210.669 302.776 211 302.046 211H285.6C284.716 211 284 210.284 284 209.4V196.6Z" fill="#7C3AED"/>
<path d="M328.73 208H325.199V197.091H328.842C329.911 197.091 330.829 197.309 331.596 197.746C332.363 198.179 332.951 198.803 333.359 199.616C333.771 200.425 333.977 201.397 333.977 202.529C333.977 203.666 333.769 204.642 333.354 205.459C332.942 206.276 332.345 206.904 331.564 207.345C330.783 207.782 329.838 208 328.73 208ZM326.844 206.562H328.64C329.471 206.562 330.161 206.406 330.712 206.093C331.262 205.777 331.674 205.321 331.947 204.724C332.221 204.124 332.358 203.392 332.358 202.529C332.358 201.674 332.221 200.947 331.947 200.351C331.678 199.754 331.275 199.301 330.738 198.993C330.202 198.684 329.536 198.529 328.741 198.529H326.844V206.562ZM339.042 208.165C338.275 208.165 337.606 207.989 337.034 207.638C336.462 207.286 336.018 206.794 335.702 206.162C335.386 205.53 335.228 204.792 335.228 203.946C335.228 203.098 335.386 202.355 335.702 201.72C336.018 201.084 336.462 200.591 337.034 200.239C337.606 199.887 338.275 199.712 339.042 199.712C339.809 199.712 340.479 199.887 341.05 200.239C341.622 200.591 342.066 201.084 342.382 201.72C342.698 202.355 342.856 203.098 342.856 203.946C342.856 204.792 342.698 205.53 342.382 206.162C342.066 206.794 341.622 207.286 341.05 207.638C340.479 207.989 339.809 208.165 339.042 208.165ZM339.048 206.828C339.545 206.828 339.957 206.697 340.283 206.434C340.61 206.171 340.852 205.821 341.008 205.385C341.168 204.948 341.247 204.467 341.247 203.941C341.247 203.419 341.168 202.94 341.008 202.503C340.852 202.062 340.61 201.709 340.283 201.443C339.957 201.176 339.545 201.043 339.048 201.043C338.547 201.043 338.131 201.176 337.801 201.443C337.474 201.709 337.231 202.062 337.071 202.503C336.915 202.94 336.837 203.419 336.837 203.941C336.837 204.467 336.915 204.948 337.071 205.385C337.231 205.821 337.474 206.171 337.801 206.434C338.131 206.697 338.547 206.828 339.048 206.828ZM346.715 208.181C346.197 208.181 345.728 208.085 345.309 207.893C344.89 207.698 344.558 207.416 344.313 207.047C344.071 206.677 343.95 206.224 343.95 205.688C343.95 205.227 344.039 204.847 344.217 204.548C344.394 204.25 344.634 204.014 344.936 203.84C345.238 203.666 345.575 203.534 345.948 203.446C346.321 203.357 346.701 203.289 347.088 203.243C347.578 203.186 347.976 203.14 348.281 203.105C348.586 203.066 348.808 203.004 348.947 202.918C349.085 202.833 349.155 202.695 349.155 202.503V202.466C349.155 202 349.023 201.64 348.76 201.384C348.501 201.129 348.114 201.001 347.599 201.001C347.063 201.001 346.64 201.12 346.331 201.358C346.026 201.592 345.815 201.853 345.698 202.141L344.201 201.8C344.378 201.303 344.638 200.901 344.978 200.596C345.323 200.287 345.719 200.063 346.166 199.925C346.614 199.783 347.084 199.712 347.578 199.712C347.905 199.712 348.251 199.751 348.617 199.829C348.986 199.903 349.33 200.042 349.65 200.244C349.973 200.447 350.238 200.736 350.444 201.113C350.65 201.485 350.753 201.97 350.753 202.567V208H349.197V206.881H349.133C349.03 207.087 348.876 207.29 348.67 207.489C348.464 207.687 348.199 207.853 347.876 207.984C347.553 208.115 347.166 208.181 346.715 208.181ZM347.061 206.903C347.502 206.903 347.878 206.816 348.19 206.642C348.507 206.468 348.746 206.24 348.91 205.96C349.076 205.676 349.16 205.372 349.16 205.049V203.994C349.103 204.051 348.993 204.104 348.83 204.154C348.67 204.2 348.487 204.241 348.281 204.277C348.075 204.309 347.874 204.339 347.679 204.367C347.484 204.392 347.32 204.413 347.189 204.431C346.88 204.47 346.598 204.536 346.342 204.628C346.09 204.721 345.888 204.854 345.735 205.028C345.586 205.198 345.511 205.425 345.511 205.71C345.511 206.104 345.657 206.402 345.948 206.604C346.239 206.803 346.61 206.903 347.061 206.903ZM354.167 203.142V208H352.574V199.818H354.103V201.15H354.204C354.392 200.717 354.687 200.369 355.088 200.106C355.493 199.843 356.003 199.712 356.617 199.712C357.174 199.712 357.663 199.829 358.082 200.063C358.501 200.294 358.826 200.638 359.057 201.097C359.287 201.555 359.403 202.121 359.403 202.796V208H357.81V202.988C357.81 202.395 357.656 201.931 357.347 201.597C357.038 201.26 356.613 201.091 356.074 201.091C355.704 201.091 355.376 201.171 355.088 201.331C354.804 201.491 354.579 201.725 354.412 202.034C354.248 202.339 354.167 202.709 354.167 203.142ZM362.832 203.142V208H361.239V197.091H362.81V201.15H362.911C363.103 200.71 363.396 200.36 363.79 200.1C364.184 199.841 364.699 199.712 365.335 199.712C365.896 199.712 366.386 199.827 366.805 200.058C367.228 200.289 367.555 200.633 367.785 201.091C368.02 201.546 368.137 202.114 368.137 202.796V208H366.544V202.988C366.544 202.387 366.39 201.922 366.081 201.592C365.772 201.258 365.342 201.091 364.792 201.091C364.415 201.091 364.078 201.171 363.78 201.331C363.485 201.491 363.252 201.725 363.082 202.034C362.915 202.339 362.832 202.709 362.832 203.142ZM375.225 203.142V208H373.632V199.818H375.161V201.15H375.262C375.45 200.717 375.745 200.369 376.146 200.106C376.551 199.843 377.061 199.712 377.675 199.712C378.232 199.712 378.721 199.829 379.14 200.063C379.559 200.294 379.884 200.638 380.115 201.097C380.345 201.555 380.461 202.121 380.461 202.796V208H378.868V202.988C378.868 202.395 378.714 201.931 378.405 201.597C378.096 201.26 377.671 201.091 377.132 201.091C376.762 201.091 376.434 201.171 376.146 201.331C375.862 201.491 375.637 201.725 375.47 202.034C375.306 202.339 375.225 202.709 375.225 203.142ZM385.727 211.239C385.077 211.239 384.518 211.153 384.049 210.983C383.584 210.813 383.204 210.587 382.909 210.306C382.615 210.026 382.394 209.719 382.249 209.385L383.618 208.82C383.714 208.977 383.842 209.142 384.001 209.316C384.165 209.493 384.385 209.644 384.662 209.768C384.942 209.893 385.303 209.955 385.743 209.955C386.347 209.955 386.846 209.808 387.24 209.513C387.634 209.222 387.831 208.756 387.831 208.117V206.509H387.73C387.634 206.683 387.496 206.876 387.315 207.089C387.137 207.302 386.892 207.487 386.58 207.643C386.267 207.799 385.86 207.877 385.36 207.877C384.713 207.877 384.131 207.727 383.613 207.425C383.098 207.119 382.689 206.67 382.387 206.077C382.089 205.48 381.94 204.747 381.94 203.877C381.94 203.007 382.087 202.261 382.382 201.64C382.68 201.018 383.089 200.543 383.607 200.212C384.126 199.879 384.713 199.712 385.37 199.712C385.878 199.712 386.288 199.797 386.601 199.967C386.913 200.134 387.157 200.33 387.331 200.553C387.508 200.777 387.645 200.974 387.741 201.145H387.858V199.818H389.419V208.181C389.419 208.884 389.255 209.461 388.929 209.912C388.602 210.363 388.16 210.697 387.602 210.914C387.048 211.13 386.423 211.239 385.727 211.239ZM385.711 206.556C386.169 206.556 386.556 206.45 386.872 206.237C387.192 206.02 387.434 205.711 387.597 205.31C387.764 204.905 387.847 204.42 387.847 203.856C387.847 203.305 387.766 202.821 387.602 202.402C387.439 201.983 387.199 201.656 386.883 201.422C386.567 201.184 386.176 201.065 385.711 201.065C385.232 201.065 384.832 201.189 384.513 201.438C384.193 201.683 383.952 202.016 383.788 202.439C383.629 202.862 383.549 203.334 383.549 203.856C383.549 204.392 383.63 204.863 383.794 205.267C383.957 205.672 384.198 205.988 384.518 206.216C384.841 206.443 385.239 206.556 385.711 206.556ZM392.847 203.142V208H391.255V197.091H392.826V201.15H392.927C393.119 200.71 393.412 200.36 393.806 200.1C394.2 199.841 394.715 199.712 395.351 199.712C395.912 199.712 396.402 199.827 396.821 200.058C397.244 200.289 397.57 200.633 397.801 201.091C398.036 201.546 398.153 202.114 398.153 202.796V208H396.56V202.988C396.56 202.387 396.406 201.922 396.097 201.592C395.788 201.258 395.358 201.091 394.808 201.091C394.431 201.091 394.094 201.171 393.795 201.331C393.501 201.491 393.268 201.725 393.098 202.034C392.931 202.339 392.847 202.709 392.847 203.142ZM399.978 208V199.818H401.571V208H399.978ZM400.782 198.556C400.505 198.556 400.268 198.463 400.069 198.279C399.873 198.091 399.776 197.867 399.776 197.608C399.776 197.345 399.873 197.121 400.069 196.936C400.268 196.748 400.505 196.654 400.782 196.654C401.059 196.654 401.296 196.748 401.491 196.936C401.69 197.121 401.789 197.345 401.789 197.608C401.789 197.867 401.69 198.091 401.491 198.279C401.296 198.463 401.059 198.556 400.782 198.556ZM406.94 208.165C406.134 208.165 405.439 207.993 404.857 207.648C404.278 207.3 403.831 206.812 403.515 206.184C403.202 205.551 403.046 204.811 403.046 203.962C403.046 203.124 403.202 202.386 403.515 201.746C403.831 201.107 404.271 200.608 404.836 200.25C405.404 199.891 406.068 199.712 406.828 199.712C407.29 199.712 407.737 199.788 408.17 199.941C408.603 200.093 408.992 200.333 409.337 200.66C409.681 200.987 409.953 201.411 410.152 201.933C410.351 202.451 410.45 203.082 410.45 203.824V204.388H403.946V203.195H408.889C408.889 202.776 408.804 202.405 408.634 202.082C408.463 201.755 408.223 201.498 407.915 201.31C407.609 201.121 407.25 201.027 406.839 201.027C406.391 201.027 406 201.137 405.667 201.358C405.336 201.574 405.081 201.858 404.9 202.21C404.722 202.558 404.633 202.936 404.633 203.344V204.277C404.633 204.824 404.729 205.289 404.921 205.672C405.116 206.056 405.388 206.349 405.736 206.551C406.084 206.75 406.491 206.849 406.956 206.849C407.258 206.849 407.533 206.807 407.781 206.722C408.03 206.633 408.245 206.501 408.426 206.327C408.607 206.153 408.745 205.939 408.841 205.683L410.349 205.955C410.228 206.398 410.011 206.787 409.699 207.121C409.39 207.451 409.001 207.709 408.532 207.893C408.067 208.075 407.536 208.165 406.94 208.165ZM407.861 198.838L406.769 197.411L405.672 198.838H404.234V198.758L406.103 196.5H407.43L409.305 198.758V198.838H407.861ZM406.764 210.823C406.491 210.823 406.254 210.731 406.055 210.546C405.857 210.362 405.757 210.138 405.757 209.875C405.757 209.612 405.857 209.388 406.055 209.204C406.254 209.019 406.491 208.927 406.764 208.927C407.041 208.927 407.277 209.019 407.472 209.204C407.671 209.388 407.771 209.612 407.771 209.875C407.771 210.138 407.671 210.362 407.472 210.546C407.277 210.731 407.041 210.823 406.764 210.823ZM411.917 211.068V199.818H413.473V201.145H413.606C413.698 200.974 413.831 200.777 414.005 200.553C414.179 200.33 414.421 200.134 414.73 199.967C415.039 199.797 415.447 199.712 415.955 199.712C416.615 199.712 417.205 199.879 417.723 200.212C418.242 200.546 418.648 201.027 418.943 201.656C419.241 202.284 419.391 203.041 419.391 203.925C419.391 204.809 419.243 205.567 418.948 206.2C418.654 206.828 418.249 207.313 417.734 207.654C417.219 207.991 416.631 208.16 415.971 208.16C415.474 208.16 415.067 208.076 414.751 207.909C414.438 207.743 414.193 207.547 414.016 207.324C413.838 207.1 413.702 206.901 413.606 206.727H413.51V211.068H411.917ZM413.478 203.909C413.478 204.484 413.561 204.989 413.728 205.422C413.895 205.855 414.137 206.194 414.453 206.439C414.769 206.681 415.156 206.801 415.614 206.801C416.09 206.801 416.487 206.675 416.807 206.423C417.127 206.168 417.368 205.821 417.531 205.385C417.698 204.948 417.782 204.456 417.782 203.909C417.782 203.369 417.7 202.885 417.537 202.455C417.377 202.025 417.136 201.686 416.812 201.438C416.493 201.189 416.093 201.065 415.614 201.065C415.152 201.065 414.762 201.184 414.442 201.422C414.126 201.659 413.886 201.991 413.723 202.418C413.56 202.844 413.478 203.341 413.478 203.909Z" fill="#196BE6"/>
<path d="M284 244.6C284 243.716 284.716 243 285.6 243H302.046C302.776 243 303.465 243.331 303.921 243.901L308.8 250C309.268 250.585 309.268 251.415 308.8 252L303.921 258.099C303.465 258.669 302.776 259 302.046 259H285.6C284.716 259 284 258.284 284 257.4V244.6Z" fill="#6B7280"/>
<path d="M330.39 257.18C329.6 257.18 328.87 257.04 328.2 256.76C327.54 256.47 326.96 256.065 326.46 255.545C325.97 255.025 325.59 254.415 325.32 253.715C325.05 253.015 324.915 252.25 324.915 251.42C324.915 250.58 325.05 249.81 325.32 249.11C325.59 248.41 325.97 247.8 326.46 247.28C326.95 246.76 327.53 246.36 328.2 246.08C328.87 245.79 329.6 245.645 330.39 245.645C331.16 245.645 331.85 245.78 332.46 246.05C333.08 246.32 333.6 246.67 334.02 247.1C334.45 247.53 334.755 247.99 334.935 248.48L333.585 249.095C333.325 248.475 332.92 247.975 332.37 247.595C331.82 247.205 331.16 247.01 330.39 247.01C329.61 247.01 328.915 247.195 328.305 247.565C327.705 247.935 327.235 248.45 326.895 249.11C326.555 249.77 326.385 250.54 326.385 251.42C326.385 252.29 326.555 253.055 326.895 253.715C327.235 254.375 327.705 254.89 328.305 255.26C328.915 255.63 329.61 255.815 330.39 255.815C331.16 255.815 331.82 255.625 332.37 255.245C332.92 254.855 333.325 254.35 333.585 253.73L334.935 254.345C334.755 254.835 334.45 255.295 334.02 255.725C333.6 256.155 333.08 256.505 332.46 256.775C331.85 257.045 331.16 257.18 330.39 257.18ZM336.469 257V245.645H337.864V250.49L337.609 250.355C337.809 249.845 338.129 249.45 338.569 249.17C339.019 248.88 339.544 248.735 340.144 248.735C340.724 248.735 341.239 248.865 341.689 249.125C342.149 249.385 342.509 249.745 342.769 250.205C343.039 250.665 343.174 251.185 343.174 251.765V257H341.764V252.215C341.764 251.765 341.679 251.385 341.509 251.075C341.349 250.765 341.124 250.525 340.834 250.355C340.544 250.175 340.209 250.085 339.829 250.085C339.459 250.085 339.124 250.175 338.824 250.355C338.524 250.525 338.289 250.77 338.119 251.09C337.949 251.4 337.864 251.775 337.864 252.215V257H336.469ZM344.661 257V248.915H346.056V257H344.661ZM344.661 247.4L345.846 245.03H347.736L346.056 247.4H344.661ZM347.705 257V248.915H349.07V250.49L348.845 250.355C349.045 249.845 349.365 249.45 349.805 249.17C350.255 248.88 350.78 248.735 351.38 248.735C351.96 248.735 352.475 248.865 352.925 249.125C353.385 249.385 353.745 249.745 354.005 250.205C354.275 250.665 354.41 251.185 354.41 251.765V257H353V252.215C353 251.765 352.92 251.385 352.76 251.075C352.6 250.765 352.37 250.525 352.07 250.355C351.78 250.175 351.445 250.085 351.065 250.085C350.685 250.085 350.345 250.175 350.045 250.355C349.755 250.525 349.525 250.77 349.355 251.09C349.185 251.4 349.1 251.775 349.1 252.215V257H347.705ZM356.107 257V245.645H357.502V250.49L357.247 250.355C357.447 249.845 357.767 249.45 358.207 249.17C358.657 248.88 359.182 248.735 359.782 248.735C360.362 248.735 360.877 248.865 361.327 249.125C361.787 249.385 362.147 249.745 362.407 250.205C362.677 250.665 362.812 251.185 362.812 251.765V257H361.402V252.215C361.402 251.765 361.317 251.385 361.147 251.075C360.987 250.765 360.762 250.525 360.472 250.355C360.182 250.175 359.847 250.085 359.467 250.085C359.097 250.085 358.762 250.175 358.462 250.355C358.162 250.525 357.927 250.77 357.757 251.09C357.587 251.4 357.502 251.775 357.502 252.215V257H356.107ZM366.801 260V248.915H368.166V250.655L367.986 250.31C368.286 249.83 368.696 249.45 369.216 249.17C369.736 248.88 370.331 248.735 371.001 248.735C371.761 248.735 372.441 248.92 373.041 249.29C373.651 249.66 374.131 250.165 374.481 250.805C374.831 251.435 375.006 252.155 375.006 252.965C375.006 253.755 374.831 254.47 374.481 255.11C374.131 255.75 373.651 256.255 373.041 256.625C372.441 256.995 371.756 257.18 370.986 257.18C370.336 257.18 369.741 257.035 369.201 256.745C368.671 256.455 368.261 256.045 367.971 255.515L368.196 255.275V260H366.801ZM370.881 255.83C371.391 255.83 371.846 255.705 372.246 255.455C372.646 255.205 372.956 254.865 373.176 254.435C373.406 253.995 373.521 253.505 373.521 252.965C373.521 252.405 373.406 251.915 373.176 251.495C372.956 251.065 372.646 250.725 372.246 250.475C371.846 250.215 371.391 250.085 370.881 250.085C370.371 250.085 369.911 250.21 369.501 250.46C369.101 250.71 368.781 251.055 368.541 251.495C368.311 251.925 368.196 252.415 368.196 252.965C368.196 253.505 368.311 253.995 368.541 254.435C368.781 254.865 369.101 255.205 369.501 255.455C369.911 255.705 370.371 255.83 370.881 255.83ZM376.535 257V245.645H377.93V250.49L377.675 250.355C377.875 249.845 378.195 249.45 378.635 249.17C379.085 248.88 379.61 248.735 380.21 248.735C380.79 248.735 381.305 248.865 381.755 249.125C382.215 249.385 382.575 249.745 382.835 250.205C383.105 250.665 383.24 251.185 383.24 251.765V257H381.83V252.215C381.83 251.765 381.745 251.385 381.575 251.075C381.415 250.765 381.19 250.525 380.9 250.355C380.61 250.175 380.275 250.085 379.895 250.085C379.525 250.085 379.19 250.175 378.89 250.355C378.59 250.525 378.355 250.77 378.185 251.09C378.015 251.4 377.93 251.775 377.93 252.215V257H376.535ZM387.801 257.18C387.221 257.18 386.696 257.045 386.226 256.775C385.766 256.505 385.406 256.13 385.146 255.65C384.896 255.16 384.771 254.6 384.771 253.97V248.915H386.166V253.82C386.166 254.22 386.246 254.57 386.406 254.87C386.576 255.17 386.806 255.405 387.096 255.575C387.396 255.745 387.736 255.83 388.116 255.83C388.496 255.83 388.831 255.745 389.121 255.575C389.421 255.405 389.651 255.16 389.811 254.84C389.981 254.52 390.066 254.14 390.066 253.7V248.915H391.476V257H390.111V255.425L390.336 255.56C390.146 256.07 389.821 256.47 389.361 256.76C388.911 257.04 388.391 257.18 387.801 257.18ZM388.326 248L387.711 247.22C387.971 247.12 388.156 247 388.266 246.86C388.386 246.72 388.446 246.555 388.446 246.365C388.446 246.185 388.371 246.035 388.221 245.915C388.081 245.795 387.891 245.735 387.651 245.735C387.531 245.735 387.411 245.745 387.291 245.765C387.181 245.785 387.046 245.83 386.886 245.9L386.691 244.985C386.881 244.875 387.076 244.805 387.276 244.775C387.476 244.735 387.671 244.715 387.861 244.715C388.421 244.715 388.871 244.86 389.211 245.15C389.561 245.43 389.736 245.8 389.736 246.26C389.736 246.63 389.606 246.97 389.346 247.28C389.086 247.58 388.746 247.82 388.326 248Z" fill="#111827" fill-opacity="0.9"/>
<path d="M284 292.6C284 291.716 284.716 291 285.6 291H302.046C302.776 291 303.465 291.331 303.921 291.901L308.8 298C309.268 298.585 309.268 299.415 308.8 300L303.921 306.099C303.465 306.669 302.776 307 302.046 307H285.6C284.716 307 284 306.284 284 305.4V292.6Z" fill="#16A34A"/>
<path d="M330.39 305.18C329.6 305.18 328.87 305.04 328.2 304.76C327.54 304.47 326.96 304.065 326.46 303.545C325.97 303.025 325.59 302.415 325.32 301.715C325.05 301.015 324.915 300.25 324.915 299.42C324.915 298.58 325.05 297.81 325.32 297.11C325.59 296.41 325.97 295.8 326.46 295.28C326.95 294.76 327.53 294.36 328.2 294.08C328.87 293.79 329.6 293.645 330.39 293.645C331.16 293.645 331.85 293.78 332.46 294.05C333.08 294.32 333.6 294.67 334.02 295.1C334.45 295.53 334.755 295.99 334.935 296.48L333.585 297.095C333.325 296.475 332.92 295.975 332.37 295.595C331.82 295.205 331.16 295.01 330.39 295.01C329.61 295.01 328.915 295.195 328.305 295.565C327.705 295.935 327.235 296.45 326.895 297.11C326.555 297.77 326.385 298.54 326.385 299.42C326.385 300.29 326.555 301.055 326.895 301.715C327.235 302.375 327.705 302.89 328.305 303.26C328.915 303.63 329.61 303.815 330.39 303.815C331.16 303.815 331.82 303.625 332.37 303.245C332.92 302.855 333.325 302.35 333.585 301.73L334.935 302.345C334.755 302.835 334.45 303.295 334.02 303.725C333.6 304.155 333.08 304.505 332.46 304.775C331.85 305.045 331.16 305.18 330.39 305.18ZM340.163 305.18C339.383 305.18 338.678 305 338.048 304.64C337.418 304.27 336.918 303.765 336.548 303.125C336.178 302.485 335.993 301.76 335.993 300.95C335.993 300.14 336.173 299.42 336.533 298.79C336.903 298.16 337.403 297.66 338.033 297.29C338.663 296.92 339.373 296.735 340.163 296.735C340.943 296.735 341.648 296.92 342.278 297.29C342.908 297.65 343.403 298.145 343.763 298.775C344.133 299.405 344.318 300.13 344.318 300.95C344.318 301.77 344.128 302.5 343.748 303.14C343.368 303.77 342.863 304.27 342.233 304.64C341.613 305 340.923 305.18 340.163 305.18ZM340.163 303.83C340.663 303.83 341.113 303.705 341.513 303.455C341.923 303.205 342.243 302.86 342.473 302.42C342.713 301.98 342.833 301.49 342.833 300.95C342.833 300.4 342.713 299.915 342.473 299.495C342.243 299.065 341.923 298.725 341.513 298.475C341.113 298.215 340.663 298.085 340.163 298.085C339.653 298.085 339.193 298.215 338.783 298.475C338.383 298.725 338.063 299.065 337.823 299.495C337.583 299.915 337.463 300.4 337.463 300.95C337.463 301.49 337.583 301.98 337.823 302.42C338.063 302.86 338.383 303.205 338.783 303.455C339.193 303.705 339.653 303.83 340.163 303.83ZM345.837 305V296.915H347.202V298.49L346.977 298.355C347.177 297.845 347.497 297.45 347.937 297.17C348.387 296.88 348.912 296.735 349.512 296.735C350.092 296.735 350.607 296.865 351.057 297.125C351.517 297.385 351.877 297.745 352.137 298.205C352.407 298.665 352.542 299.185 352.542 299.765V305H351.132V300.215C351.132 299.765 351.052 299.385 350.892 299.075C350.732 298.765 350.502 298.525 350.202 298.355C349.912 298.175 349.577 298.085 349.197 298.085C348.817 298.085 348.477 298.175 348.177 298.355C347.887 298.525 347.657 298.77 347.487 299.09C347.317 299.4 347.232 299.775 347.232 300.215V305H345.837ZM356.342 305L353.177 296.915H354.737L357.272 303.755H356.732L359.282 296.915H360.842L357.662 305H356.342ZM365.364 305.18C364.584 305.18 363.889 304.995 363.279 304.625C362.669 304.255 362.189 303.75 361.839 303.11C361.489 302.46 361.314 301.735 361.314 300.935C361.314 300.125 361.484 299.405 361.824 298.775C362.174 298.145 362.644 297.65 363.234 297.29C363.834 296.92 364.504 296.735 365.244 296.735C365.844 296.735 366.374 296.845 366.834 297.065C367.304 297.275 367.699 297.565 368.019 297.935C368.349 298.295 368.599 298.71 368.769 299.18C368.949 299.64 369.039 300.12 369.039 300.62C369.039 300.73 369.029 300.855 369.009 300.995C368.999 301.125 368.984 301.25 368.964 301.37H362.334V300.17H368.154L367.494 300.71C367.584 300.19 367.534 299.725 367.344 299.315C367.154 298.905 366.874 298.58 366.504 298.34C366.134 298.1 365.714 297.98 365.244 297.98C364.774 297.98 364.344 298.1 363.954 298.34C363.564 298.58 363.259 298.925 363.039 299.375C362.829 299.815 362.744 300.34 362.784 300.95C362.744 301.54 362.834 302.06 363.054 302.51C363.284 302.95 363.604 303.295 364.014 303.545C364.434 303.785 364.889 303.905 365.379 303.905C365.919 303.905 366.374 303.78 366.744 303.53C367.114 303.28 367.414 302.96 367.644 302.57L368.814 303.17C368.654 303.54 368.404 303.88 368.064 304.19C367.734 304.49 367.339 304.73 366.879 304.91C366.429 305.09 365.924 305.18 365.364 305.18ZM370.558 305V296.915H371.923V298.4L371.773 298.19C371.963 297.73 372.253 297.39 372.643 297.17C373.033 296.94 373.508 296.825 374.068 296.825H374.563V298.145H373.858C373.288 298.145 372.828 298.325 372.478 298.685C372.128 299.035 371.953 299.535 371.953 300.185V305H370.558ZM378.86 305.09C378.07 305.09 377.46 304.865 377.03 304.415C376.61 303.965 376.4 303.33 376.4 302.51V298.25H374.93V296.915H375.23C375.59 296.915 375.875 296.805 376.085 296.585C376.295 296.365 376.4 296.075 376.4 295.715V295.055H377.795V296.915H379.61V298.25H377.795V302.465C377.795 302.735 377.835 302.97 377.915 303.17C378.005 303.37 378.15 303.53 378.35 303.65C378.55 303.76 378.815 303.815 379.145 303.815C379.215 303.815 379.3 303.81 379.4 303.8C379.51 303.79 379.61 303.78 379.7 303.77V305C379.57 305.03 379.425 305.05 379.265 305.06C379.105 305.08 378.97 305.09 378.86 305.09ZM384.722 305.18C383.942 305.18 383.247 304.995 382.637 304.625C382.027 304.255 381.547 303.75 381.197 303.11C380.847 302.46 380.672 301.735 380.672 300.935C380.672 300.125 380.842 299.405 381.182 298.775C381.532 298.145 382.002 297.65 382.592 297.29C383.192 296.92 383.862 296.735 384.602 296.735C385.202 296.735 385.732 296.845 386.192 297.065C386.662 297.275 387.057 297.565 387.377 297.935C387.707 298.295 387.957 298.71 388.127 299.18C388.307 299.64 388.397 300.12 388.397 300.62C388.397 300.73 388.387 300.855 388.367 300.995C388.357 301.125 388.342 301.25 388.322 301.37H381.692V300.17H387.512L386.852 300.71C386.942 300.19 386.892 299.725 386.702 299.315C386.512 298.905 386.232 298.58 385.862 298.34C385.492 298.1 385.072 297.98 384.602 297.98C384.132 297.98 383.702 298.1 383.312 298.34C382.922 298.58 382.617 298.925 382.397 299.375C382.187 299.815 382.102 300.34 382.142 300.95C382.102 301.54 382.192 302.06 382.412 302.51C382.642 302.95 382.962 303.295 383.372 303.545C383.792 303.785 384.247 303.905 384.737 303.905C385.277 303.905 385.732 303.78 386.102 303.53C386.472 303.28 386.772 302.96 387.002 302.57L388.172 303.17C388.012 303.54 387.762 303.88 387.422 304.19C387.092 304.49 386.697 304.73 386.237 304.91C385.787 305.09 385.282 305.18 384.722 305.18ZM393.591 305.18C392.831 305.18 392.146 304.995 391.536 304.625C390.936 304.255 390.461 303.75 390.111 303.11C389.761 302.47 389.586 301.755 389.586 300.965C389.586 300.155 389.761 299.435 390.111 298.805C390.461 298.165 390.936 297.66 391.536 297.29C392.146 296.92 392.831 296.735 393.591 296.735C394.261 296.735 394.856 296.88 395.376 297.17C395.896 297.45 396.306 297.83 396.606 298.31L396.381 298.655V293.645H397.791V305H396.426V303.275L396.606 303.515C396.326 304.045 395.916 304.455 395.376 304.745C394.846 305.035 394.251 305.18 393.591 305.18ZM393.711 303.83C394.221 303.83 394.676 303.705 395.076 303.455C395.476 303.205 395.791 302.865 396.021 302.435C396.261 301.995 396.381 301.505 396.381 300.965C396.381 300.415 396.261 299.925 396.021 299.495C395.791 299.055 395.476 298.71 395.076 298.46C394.676 298.21 394.221 298.085 393.711 298.085C393.211 298.085 392.756 298.215 392.346 298.475C391.946 298.725 391.631 299.065 391.401 299.495C391.171 299.915 391.056 300.405 391.056 300.965C391.056 301.505 391.171 301.995 391.401 302.435C391.631 302.865 391.946 303.205 392.346 303.455C392.746 303.705 393.201 303.83 393.711 303.83Z" fill="#111827" fill-opacity="0.9"/>
<path d="M284 340.6C284 339.716 284.716 339 285.6 339H302.046C302.776 339 303.465 339.331 303.921 339.901L308.8 346C309.268 346.585 309.268 347.415 308.8 348L303.921 354.099C303.465 354.669 302.776 355 302.046 355H285.6C284.716 355 284 354.284 284 353.4V340.6Z" fill="#F97316"/>
<path d="M325.245 353V341.825H332.325V343.175H326.715V346.79H331.8V348.14H326.715V353H325.245ZM333.071 353V344.915H334.436V346.4L334.286 346.19C334.476 345.73 334.766 345.39 335.156 345.17C335.546 344.94 336.021 344.825 336.581 344.825H337.076V346.145H336.371C335.801 346.145 335.341 346.325 334.991 346.685C334.641 347.035 334.466 347.535 334.466 348.185V353H333.071ZM341.735 353.18C340.955 353.18 340.26 352.995 339.65 352.625C339.04 352.255 338.56 351.75 338.21 351.11C337.86 350.46 337.685 349.735 337.685 348.935C337.685 348.125 337.855 347.405 338.195 346.775C338.545 346.145 339.015 345.65 339.605 345.29C340.205 344.92 340.875 344.735 341.615 344.735C342.215 344.735 342.745 344.845 343.205 345.065C343.675 345.275 344.07 345.565 344.39 345.935C344.72 346.295 344.97 346.71 345.14 347.18C345.32 347.64 345.41 348.12 345.41 348.62C345.41 348.73 345.4 348.855 345.38 348.995C345.37 349.125 345.355 349.25 345.335 349.37H338.705V348.17H344.525L343.865 348.71C343.955 348.19 343.905 347.725 343.715 347.315C343.525 346.905 343.245 346.58 342.875 346.34C342.505 346.1 342.085 345.98 341.615 345.98C341.145 345.98 340.715 346.1 340.325 346.34C339.935 346.58 339.63 346.925 339.41 347.375C339.2 347.815 339.115 348.34 339.155 348.95C339.115 349.54 339.205 350.06 339.425 350.51C339.655 350.95 339.975 351.295 340.385 351.545C340.805 351.785 341.26 351.905 341.75 351.905C342.29 351.905 342.745 351.78 343.115 351.53C343.485 351.28 343.785 350.96 344.015 350.57L345.185 351.17C345.025 351.54 344.775 351.88 344.435 352.19C344.105 352.49 343.71 352.73 343.25 352.91C342.8 353.09 342.295 353.18 341.735 353.18ZM350.649 353.18C349.869 353.18 349.174 352.995 348.564 352.625C347.954 352.255 347.474 351.75 347.124 351.11C346.774 350.46 346.599 349.735 346.599 348.935C346.599 348.125 346.769 347.405 347.109 346.775C347.459 346.145 347.929 345.65 348.519 345.29C349.119 344.92 349.789 344.735 350.529 344.735C351.129 344.735 351.659 344.845 352.119 345.065C352.589 345.275 352.984 345.565 353.304 345.935C353.634 346.295 353.884 346.71 354.054 347.18C354.234 347.64 354.324 348.12 354.324 348.62C354.324 348.73 354.314 348.855 354.294 348.995C354.284 349.125 354.269 349.25 354.249 349.37H347.619V348.17H353.439L352.779 348.71C352.869 348.19 352.819 347.725 352.629 347.315C352.439 346.905 352.159 346.58 351.789 346.34C351.419 346.1 350.999 345.98 350.529 345.98C350.059 345.98 349.629 346.1 349.239 346.34C348.849 346.58 348.544 346.925 348.324 347.375C348.114 347.815 348.029 348.34 348.069 348.95C348.029 349.54 348.119 350.06 348.339 350.51C348.569 350.95 348.889 351.295 349.299 351.545C349.719 351.785 350.174 351.905 350.664 351.905C351.204 351.905 351.659 351.78 352.029 351.53C352.399 351.28 352.699 350.96 352.929 350.57L354.099 351.17C353.939 351.54 353.689 351.88 353.349 352.19C353.019 352.49 352.624 352.73 352.164 352.91C351.714 353.09 351.209 353.18 350.649 353.18Z" fill="#111827" fill-opacity="0.9"/>
<path d="M284 384.6C284 383.716 284.716 383 285.6 383H302.046C302.776 383 303.465 383.331 303.921 383.901L308.8 390C309.268 390.585 309.268 391.415 308.8 392L303.921 398.099C303.465 398.669 302.776 399 302.046 399H285.6C284.716 399 284 398.284 284 397.4V384.6Z" fill="#3A85ED"/>
<path d="M325.199 396V385.091H329.087C329.936 385.091 330.639 385.245 331.196 385.554C331.754 385.863 332.171 386.286 332.448 386.822C332.725 387.355 332.864 387.955 332.864 388.623C332.864 389.294 332.723 389.897 332.443 390.434C332.166 390.966 331.747 391.389 331.186 391.701C330.628 392.01 329.927 392.165 329.082 392.165H326.408V390.769H328.933C329.469 390.769 329.904 390.677 330.238 390.492C330.571 390.304 330.816 390.048 330.973 389.725C331.129 389.402 331.207 389.034 331.207 388.623C331.207 388.211 331.129 387.845 330.973 387.525C330.816 387.206 330.57 386.955 330.232 386.774C329.898 386.593 329.458 386.502 328.911 386.502H326.844V396H325.199ZM334.365 396V387.818H335.905V389.118H335.99C336.139 388.678 336.402 388.331 336.778 388.079C337.158 387.824 337.588 387.696 338.067 387.696C338.167 387.696 338.284 387.699 338.419 387.706C338.558 387.713 338.666 387.722 338.744 387.733V389.256C338.68 389.239 338.566 389.219 338.403 389.198C338.24 389.173 338.076 389.161 337.913 389.161C337.537 389.161 337.201 389.24 336.906 389.4C336.615 389.556 336.384 389.775 336.214 390.055C336.043 390.332 335.958 390.648 335.958 391.004V396H334.365ZM342.976 396.165C342.209 396.165 341.539 395.989 340.967 395.638C340.396 395.286 339.952 394.794 339.636 394.162C339.32 393.53 339.162 392.792 339.162 391.946C339.162 391.098 339.32 390.355 339.636 389.72C339.952 389.084 340.396 388.591 340.967 388.239C341.539 387.887 342.209 387.712 342.976 387.712C343.743 387.712 344.412 387.887 344.984 388.239C345.556 388.591 345.999 389.084 346.315 389.72C346.632 390.355 346.79 391.098 346.79 391.946C346.79 392.792 346.632 393.53 346.315 394.162C345.999 394.794 345.556 395.286 344.984 395.638C344.412 395.989 343.743 396.165 342.976 396.165ZM342.981 394.828C343.478 394.828 343.89 394.697 344.217 394.434C344.543 394.171 344.785 393.821 344.941 393.385C345.101 392.948 345.181 392.467 345.181 391.941C345.181 391.419 345.101 390.94 344.941 390.503C344.785 390.062 344.543 389.709 344.217 389.443C343.89 389.176 343.478 389.043 342.981 389.043C342.48 389.043 342.065 389.176 341.735 389.443C341.408 389.709 341.165 390.062 341.005 390.503C340.849 390.94 340.77 391.419 340.77 391.941C340.77 392.467 340.849 392.948 341.005 393.385C341.165 393.821 341.408 394.171 341.735 394.434C342.065 394.697 342.48 394.828 342.981 394.828Z" fill="#111827" fill-opacity="0.9"/>
</g>
</g>
</g>
</g>
<defs>
<filter id="filter0_d_729_3813" x="56" y="-4" width="266" height="261" filterUnits="userSpaceOnUse" color-interpolation-filters="sRGB">
<feFlood flood-opacity="0" result="BackgroundImageFix"/>
<feColorMatrix in="SourceAlpha" type="matrix" values="0 0 0 0 0 0 0 0 0 0 0 0 0 0 0 0 0 0 127 0" result="hardAlpha"/>
<feOffset dy="4"/>
<feGaussianBlur stdDeviation="4"/>
<feComposite in2="hardAlpha" operator="out"/>
<feColorMatrix type="matrix" values="0 0 0 0 0.370042 0 0 0 0 0.368882 0 0 0 0 0.368882 0 0 0 0.15 0"/>
<feBlend mode="normal" in2="BackgroundImageFix" result="effect1_dropShadow_729_3813"/>
<feBlend mode="normal" in="SourceGraphic" in2="effect1_dropShadow_729_3813" result="shape"/>
</filter>
<filter id="filter1_d_729_3813" x="46" y="-14" width="286" height="436" filterUnits="userSpaceOnUse" color-interpolation-filters="sRGB">
<feFlood flood-opacity="0" result="BackgroundImageFix"/>
<feColorMatrix in="SourceAlpha" type="matrix" values="0 0 0 0 0 0 0 0 0 0 0 0 0 0 0 0 0 0 127 0" result="hardAlpha"/>
<feOffset dy="4"/>
<feGaussianBlur stdDeviation="9"/>
<feComposite in2="hardAlpha" operator="out"/>
<feColorMatrix type="matrix" values="0 0 0 0 0.184314 0 0 0 0 0.168627 0 0 0 0 0.239216 0 0 0 0.16 0"/>
<feBlend mode="normal" in2="BackgroundImageFix" result="effect1_dropShadow_729_3813"/>
<feBlend mode="normal" in="SourceGraphic" in2="effect1_dropShadow_729_3813" result="shape"/>
</filter>
<filter id="filter2_d_729_3813" x="81" y="19" width="216" height="52" filterUnits="userSpaceOnUse" color-interpolation-filters="sRGB">
<feFlood flood-opacity="0" result="BackgroundImageFix"/>
<feColorMatrix in="SourceAlpha" type="matrix" values="0 0 0 0 0 0 0 0 0 0 0 0 0 0 0 0 0 0 127 0" result="hardAlpha"/>
<feOffset dy="2"/>
<feGaussianBlur stdDeviation="3"/>
<feComposite in2="hardAlpha" operator="out"/>
<feColorMatrix type="matrix" values="0 0 0 0 0.0980392 0 0 0 0 0.419608 0 0 0 0 0.901961 0 0 0 0.3 0"/>
<feBlend mode="normal" in2="BackgroundImageFix" result="effect1_dropShadow_729_3813"/>
<feBlend mode="normal" in="SourceGraphic" in2="effect1_dropShadow_729_3813" result="shape"/>
</filter>
<filter id="filter3_d_729_3813" x="91" y="83" width="30" height="30" filterUnits="userSpaceOnUse" color-interpolation-filters="sRGB">
<feFlood flood-opacity="0" result="BackgroundImageFix"/>
<feColorMatrix in="SourceAlpha" type="matrix" values="0 0 0 0 0 0 0 0 0 0 0 0 0 0 0 0 0 0 127 0" result="hardAlpha"/>
<feOffset dy="2"/>
<feGaussianBlur stdDeviation="3"/>
<feComposite in2="hardAlpha" operator="out"/>
<feColorMatrix type="matrix" values="0 0 0 0 0.0980392 0 0 0 0 0.419608 0 0 0 0 0.901961 0 0 0 0.3 0"/>
<feBlend mode="normal" in2="BackgroundImageFix" result="effect1_dropShadow_729_3813"/>
<feBlend mode="normal" in="SourceGraphic" in2="effect1_dropShadow_729_3813" result="shape"/>
</filter>
<filter id="filter4_d_729_3813" x="91" y="123" width="30" height="30" filterUnits="userSpaceOnUse" color-interpolation-filters="sRGB">
<feFlood flood-opacity="0" result="BackgroundImageFix"/>
<feColorMatrix in="SourceAlpha" type="matrix" values="0 0 0 0 0 0 0 0 0 0 0 0 0 0 0 0 0 0 127 0" result="hardAlpha"/>
<feOffset dy="2"/>
<feGaussianBlur stdDeviation="3"/>
<feComposite in2="hardAlpha" operator="out"/>
<feColorMatrix type="matrix" values="0 0 0 0 0.0980392 0 0 0 0 0.419608 0 0 0 0 0.901961 0 0 0 0.3 0"/>
<feBlend mode="normal" in2="BackgroundImageFix" result="effect1_dropShadow_729_3813"/>
<feBlend mode="normal" in="SourceGraphic" in2="effect1_dropShadow_729_3813" result="shape"/>
</filter>
<filter id="filter5_d_729_3813" x="91" y="163" width="30" height="30" filterUnits="userSpaceOnUse" color-interpolation-filters="sRGB">
<feFlood flood-opacity="0" result="BackgroundImageFix"/>
<feColorMatrix in="SourceAlpha" type="matrix" values="0 0 0 0 0 0 0 0 0 0 0 0 0 0 0 0 0 0 127 0" result="hardAlpha"/>
<feOffset dy="2"/>
<feGaussianBlur stdDeviation="3"/>
<feComposite in2="hardAlpha" operator="out"/>
<feColorMatrix type="matrix" values="0 0 0 0 0.0980392 0 0 0 0 0.419608 0 0 0 0 0.901961 0 0 0 0.3 0"/>
<feBlend mode="normal" in2="BackgroundImageFix" result="effect1_dropShadow_729_3813"/>
<feBlend mode="normal" in="SourceGraphic" in2="effect1_dropShadow_729_3813" result="shape"/>
</filter>
<filter id="filter6_d_729_3813" x="91" y="203" width="30" height="30" filterUnits="userSpaceOnUse" color-interpolation-filters="sRGB">
<feFlood flood-opacity="0" result="BackgroundImageFix"/>
<feColorMatrix in="SourceAlpha" type="matrix" values="0 0 0 0 0 0 0 0 0 0 0 0 0 0 0 0 0 0 127 0" result="hardAlpha"/>
<feOffset dy="2"/>
<feGaussianBlur stdDeviation="3"/>
<feComposite in2="hardAlpha" operator="out"/>
<feColorMatrix type="matrix" values="0 0 0 0 0.0980392 0 0 0 0 0.419608 0 0 0 0 0.901961 0 0 0 0.3 0"/>
<feBlend mode="normal" in2="BackgroundImageFix" result="effect1_dropShadow_729_3813"/>
<feBlend mode="normal" in="SourceGraphic" in2="effect1_dropShadow_729_3813" result="shape"/>
</filter>
<filter id="filter7_d_729_3813" x="91" y="243" width="30" height="30" filterUnits="userSpaceOnUse" color-interpolation-filters="sRGB">
<feFlood flood-opacity="0" result="BackgroundImageFix"/>
<feColorMatrix in="SourceAlpha" type="matrix" values="0 0 0 0 0 0 0 0 0 0 0 0 0 0 0 0 0 0 127 0" result="hardAlpha"/>
<feOffset dy="2"/>
<feGaussianBlur stdDeviation="3"/>
<feComposite in2="hardAlpha" operator="out"/>
<feColorMatrix type="matrix" values="0 0 0 0 0.0980392 0 0 0 0 0.419608 0 0 0 0 0.901961 0 0 0 0.3 0"/>
<feBlend mode="normal" in2="BackgroundImageFix" result="effect1_dropShadow_729_3813"/>
<feBlend mode="normal" in="SourceGraphic" in2="effect1_dropShadow_729_3813" result="shape"/>
</filter>
<filter id="filter8_d_729_3813" x="248" y="78" width="304" height="352" filterUnits="userSpaceOnUse" color-interpolation-filters="sRGB">
<feFlood flood-opacity="0" result="BackgroundImageFix"/>
<feColorMatrix in="SourceAlpha" type="matrix" values="0 0 0 0 0 0 0 0 0 0 0 0 0 0 0 0 0 0 127 0" result="hardAlpha"/>
<feOffset dy="4"/>
<feGaussianBlur stdDeviation="4"/>
<feComposite in2="hardAlpha" operator="out"/>
<feColorMatrix type="matrix" values="0 0 0 0 0.370042 0 0 0 0 0.368882 0 0 0 0 0.368882 0 0 0 0.15 0"/>
<feBlend mode="normal" in2="BackgroundImageFix" result="effect1_dropShadow_729_3813"/>
<feBlend mode="normal" in="SourceGraphic" in2="effect1_dropShadow_729_3813" result="shape"/>
</filter>
<filter id="filter9_d_729_3813" x="238" y="30" width="324" height="458" filterUnits="userSpaceOnUse" color-interpolation-filters="sRGB">
<feFlood flood-opacity="0" result="BackgroundImageFix"/>
<feColorMatrix in="SourceAlpha" type="matrix" values="0 0 0 0 0 0 0 0 0 0 0 0 0 0 0 0 0 0 127 0" result="hardAlpha"/>
<feOffset dy="4"/>
<feGaussianBlur stdDeviation="9"/>
<feComposite in2="hardAlpha" operator="out"/>
<feColorMatrix type="matrix" values="0 0 0 0 0.184314 0 0 0 0 0.168627 0 0 0 0 0.239216 0 0 0 0.16 0"/>
<feBlend mode="normal" in2="BackgroundImageFix" result="effect1_dropShadow_729_3813"/>
<feBlend mode="normal" in="SourceGraphic" in2="effect1_dropShadow_729_3813" result="shape"/>
</filter>
<clipPath id="clip0_729_3813">
<rect width="608" height="392.02" fill="white"/>
</clipPath>
<clipPath id="clip1_729_3813">
<rect x="64" width="250" height="245" rx="16" fill="white"/>
</clipPath>
<clipPath id="clip2_729_3813">
<rect x="64" width="250" height="400" rx="16" fill="white"/>
</clipPath>
<clipPath id="clip3_729_3813">
<rect width="202" height="36" fill="white" transform="translate(88 78)"/>
</clipPath>
<clipPath id="clip4_729_3813">
<rect width="202" height="36" fill="white" transform="translate(88 118)"/>
</clipPath>
<clipPath id="clip5_729_3813">
<rect width="202" height="36" fill="white" transform="translate(88 158)"/>
</clipPath>
<clipPath id="clip6_729_3813">
<rect width="202" height="36" fill="white" transform="translate(88 198)"/>
</clipPath>
<clipPath id="clip7_729_3813">
<rect width="202" height="36" fill="white" transform="translate(88 238)"/>
</clipPath>
<clipPath id="clip8_729_3813">
<rect x="256" y="82" width="288" height="336" rx="16" fill="white"/>
</clipPath>
</defs>
</svg>
