<svg width="400" height="362" viewBox="0 0 400 362" fill="none" xmlns="http://www.w3.org/2000/svg">
<g clip-path="url(#clip0_729_2014)">
<rect x="21.7236" y="123.072" width="356.573" height="356.239" rx="178.12" fill="url(#paint0_linear_729_2014)"/>
<rect x="95.3496" y="199.611" width="209.34" height="203.171" rx="101.586" fill="url(#paint1_linear_729_2014)"/>
<rect x="-100.865" y="40.4951" width="601.729" height="612.18" rx="300.865" fill="url(#paint2_linear_729_2014)"/>
<g clip-path="url(#clip1_729_2014)">
<path fill-rule="evenodd" clip-rule="evenodd" d="M240.128 252.928C240.014 252.752 239.936 252.556 239.898 252.35C239.86 252.144 239.862 251.933 239.906 251.728C239.949 251.523 240.033 251.329 240.151 251.156C240.27 250.983 240.422 250.836 240.597 250.722C240.773 250.608 240.969 250.529 241.175 250.491C241.381 250.453 241.593 250.456 241.797 250.499C242.002 250.543 242.197 250.626 242.369 250.745C242.542 250.863 242.689 251.015 242.803 251.191C245.469 255.294 247.527 259.761 248.914 264.453C250.272 269.048 251 273.904 251 278.92C251 293.003 245.292 305.753 236.062 314.982C226.833 324.212 214.083 329.92 200 329.92C192.755 329.92 185.857 328.404 179.604 325.671C174.349 323.375 169.554 320.215 165.397 316.371L165.865 322.201C165.894 322.621 165.755 323.035 165.48 323.353C165.204 323.672 164.815 323.869 164.395 323.902C163.976 323.934 163.56 323.801 163.239 323.529C162.917 323.257 162.716 322.87 162.678 322.451L161.869 312.369C161.851 312.137 161.883 311.903 161.965 311.685C162.047 311.466 162.175 311.268 162.342 311.105C162.508 310.941 162.708 310.816 162.928 310.738C163.147 310.66 163.382 310.631 163.614 310.653L173.669 311.459C174.089 311.497 174.476 311.699 174.748 312.02C175.019 312.342 175.153 312.757 175.12 313.177C175.087 313.596 174.89 313.986 174.572 314.261C174.253 314.536 173.839 314.675 173.419 314.647L167.731 314.191C171.614 317.746 176.056 320.636 180.879 322.746C186.727 325.302 193.194 326.72 200 326.72C213.2 326.72 225.15 321.37 233.8 312.72C242.45 304.07 247.8 292.12 247.8 278.92C247.8 274.198 247.12 269.645 245.852 265.353C244.553 260.957 242.625 256.772 240.128 252.928ZM234.135 235.639L234.602 241.465C230.446 237.623 225.652 234.464 220.399 232.169C214.145 229.436 207.245 227.92 200 227.92C185.917 227.92 173.167 233.628 163.938 242.858C154.708 252.087 149 264.837 149 278.92C149 283.936 149.729 288.791 151.086 293.386C152.474 298.078 154.533 302.546 157.199 306.65C157.433 306.998 157.794 307.241 158.204 307.325C158.615 307.409 159.042 307.328 159.394 307.1C159.745 306.872 159.993 306.514 160.083 306.105C160.173 305.695 160.098 305.267 159.874 304.912C157.377 301.067 155.449 296.882 154.149 292.486C152.881 288.194 152.2 283.642 152.2 278.92C152.2 265.721 157.55 253.77 166.2 245.12C174.85 236.47 186.8 231.12 200 231.12C206.807 231.12 213.275 232.538 219.124 235.094C223.947 237.203 228.39 240.094 232.273 243.65L226.581 243.193C226.161 243.165 225.747 243.303 225.429 243.579C225.11 243.854 224.913 244.244 224.881 244.663C224.848 245.083 224.982 245.498 225.253 245.82C225.525 246.141 225.912 246.343 226.331 246.381L236.387 247.187C236.619 247.209 236.853 247.18 237.073 247.102C237.293 247.024 237.493 246.899 237.659 246.735C237.825 246.572 237.954 246.374 238.035 246.155C238.117 245.937 238.15 245.703 238.132 245.471L237.323 235.389C237.285 234.97 237.083 234.582 236.762 234.311C236.44 234.039 236.025 233.905 235.605 233.938C235.186 233.971 234.796 234.168 234.521 234.487C234.246 234.805 234.107 235.219 234.135 235.639L234.135 235.639Z" fill="#BECFFF"/>
<path fill-rule="evenodd" clip-rule="evenodd" d="M179.521 297.024C170.682 297.024 163.45 289.792 163.45 280.953C163.45 273.101 169.211 266.344 176.958 265.089C176.957 265.02 176.955 264.952 176.955 264.882C176.955 254.916 185.035 246.836 195.002 246.836C200.99 246.836 206.296 249.754 209.579 254.244C211.19 253.142 213.098 252.554 215.05 252.557C220.413 252.557 224.76 256.904 224.76 262.266C224.76 263.339 224.585 264.372 224.263 265.337C231.292 267.05 236.55 273.416 236.55 280.953C236.55 289.792 229.318 297.024 220.479 297.024H179.521Z" fill="#5682FD"/>
<path fill-rule="evenodd" clip-rule="evenodd" d="M164.281 275.877C165.964 270.868 170.065 266.887 175.282 265.455C175.064 266.584 174.955 267.732 174.955 268.883C174.955 268.952 174.957 269.02 174.958 269.089C170.502 269.811 166.704 272.354 164.28 275.877L164.281 275.877ZM177.978 258.882C180.451 251.865 187.138 246.836 195.002 246.836C200.99 246.836 206.296 249.754 209.579 254.244C211.19 253.142 213.098 252.554 215.05 252.557C220.413 252.557 224.76 256.904 224.76 262.266C224.76 263.339 224.585 264.372 224.263 265.337C231.292 267.05 236.55 273.416 236.55 280.953C236.55 284.312 235.505 287.439 233.724 290.025C234.272 288.39 234.551 286.677 234.55 284.953C234.55 277.417 229.292 271.05 222.263 269.337C222.593 268.346 222.76 267.309 222.76 266.266C222.76 260.904 218.413 256.557 213.05 256.557C211.098 256.554 209.19 257.142 207.579 258.244C204.296 253.754 198.99 250.836 193.002 250.836C186.734 250.836 181.213 254.032 177.978 258.882Z" fill="#91B1FF"/>
<path fill-rule="evenodd" clip-rule="evenodd" d="M222.249 269.266H209.976C209.451 269.266 209.001 269.53 208.746 269.989L205.523 275.78C205.268 276.238 204.817 276.503 204.292 276.503H177.752C177.503 276.504 177.265 276.603 177.089 276.779C176.913 276.955 176.814 277.193 176.813 277.442V290.315C176.814 290.564 176.913 290.803 177.089 290.979C177.265 291.155 177.503 291.254 177.752 291.254H222.249C222.498 291.254 222.736 291.155 222.912 290.979C223.088 290.803 223.187 290.564 223.188 290.315V270.204C223.187 269.956 223.088 269.717 222.912 269.541C222.737 269.365 222.498 269.266 222.249 269.266H222.249Z" fill="#E876E3"/>
<path fill-rule="evenodd" clip-rule="evenodd" d="M222.249 269.266H209.976C209.451 269.266 209.001 269.53 208.746 269.989L207.91 271.491H220.024C220.272 271.492 220.511 271.591 220.687 271.766C220.863 271.942 220.962 272.181 220.962 272.43V291.254H222.249C222.498 291.253 222.736 291.154 222.912 290.978C223.088 290.802 223.187 290.564 223.188 290.315V270.204C223.187 269.955 223.088 269.717 222.912 269.541C222.736 269.365 222.498 269.266 222.249 269.266ZM204.292 276.503H177.752C177.503 276.503 177.265 276.602 177.089 276.778C176.913 276.954 176.814 277.193 176.813 277.442V278.728H202.226C202.751 278.728 203.201 278.463 203.456 278.005L204.292 276.503Z" fill="#B55CB1"/>
<path fill-rule="evenodd" clip-rule="evenodd" d="M175.946 282.476H189.088C189.627 282.476 190.091 282.719 190.398 283.162L192.496 286.189C192.803 286.632 193.267 286.875 193.806 286.875H224.054C224.557 286.875 224.99 287.084 225.302 287.478C225.614 287.871 225.72 288.34 225.606 288.83L220.728 309.772C220.558 310.502 219.926 311.003 219.177 311.003H180.541C180.168 311.006 179.805 310.875 179.518 310.636C179.231 310.396 179.038 310.063 178.974 309.694L174.378 284.353C174.291 283.872 174.41 283.423 174.723 283.048C175.036 282.673 175.457 282.476 175.946 282.476L175.946 282.476Z" fill="#FF82F9"/>
<path fill-rule="evenodd" clip-rule="evenodd" d="M175.946 282.477H176.667L181.199 307.47C181.264 307.838 181.456 308.172 181.743 308.411C182.03 308.651 182.393 308.781 182.767 308.779H220.96L220.728 309.772C220.558 310.503 219.926 311.004 219.177 311.004H180.541C180.168 311.006 179.805 310.876 179.518 310.636C179.231 310.397 179.038 310.064 178.974 309.695L174.378 284.354C174.291 283.873 174.41 283.424 174.723 283.049C175.036 282.674 175.457 282.477 175.946 282.477Z" fill="#B55CB1"/>
<path fill-rule="evenodd" clip-rule="evenodd" d="M182.719 294.113L184.557 304.249H189.743L187.905 294.113H182.719Z" fill="white"/>
<path fill-rule="evenodd" clip-rule="evenodd" d="M182.719 294.113L182.945 295.362H186.813L188.424 304.249H189.743L187.905 294.113H182.719Z" fill="#375DFA"/>
</g>
<g filter="url(#filter0_d_729_2014)">
<path d="M122.385 129.446C122.385 120.61 129.548 113.446 138.385 113.446H438.476C447.312 113.446 454.476 120.61 454.476 129.446V180.615C454.476 189.452 447.312 196.615 438.476 196.615H138.385C129.548 196.615 122.385 189.452 122.385 180.615V129.446Z" fill="#5682FD"/>
<path d="M141.062 148.03V134.62H145.454C146.81 134.62 147.992 134.896 149 135.448C150.008 136 150.788 136.78 151.34 137.788C151.892 138.784 152.168 139.96 152.168 141.316C152.168 142.66 151.892 143.836 151.34 144.844C150.788 145.852 150.008 146.638 149 147.202C147.992 147.754 146.81 148.03 145.454 148.03H141.062ZM142.826 146.41H145.472C146.468 146.41 147.326 146.2 148.046 145.78C148.778 145.36 149.342 144.772 149.738 144.016C150.134 143.248 150.332 142.348 150.332 141.316C150.332 140.272 150.128 139.372 149.72 138.616C149.324 137.86 148.76 137.278 148.028 136.87C147.308 136.45 146.456 136.24 145.472 136.24H142.826V146.41ZM156.927 148.246C156.291 148.246 155.727 148.132 155.235 147.904C154.755 147.664 154.377 147.34 154.101 146.932C153.825 146.512 153.687 146.032 153.687 145.492C153.687 144.976 153.795 144.514 154.011 144.106C154.239 143.686 154.587 143.332 155.055 143.044C155.535 142.756 156.135 142.552 156.855 142.432L160.455 141.838V143.242L157.233 143.782C156.609 143.89 156.153 144.088 155.865 144.376C155.589 144.664 155.451 145.018 155.451 145.438C155.451 145.834 155.607 146.164 155.919 146.428C156.243 146.692 156.645 146.824 157.125 146.824C157.737 146.824 158.265 146.698 158.709 146.446C159.165 146.182 159.519 145.828 159.771 145.384C160.035 144.94 160.167 144.448 160.167 143.908V141.442C160.167 140.914 159.969 140.488 159.573 140.164C159.189 139.828 158.679 139.66 158.043 139.66C157.491 139.66 156.999 139.804 156.567 140.092C156.147 140.368 155.835 140.74 155.631 141.208L154.173 140.452C154.353 140.008 154.641 139.612 155.037 139.264C155.433 138.904 155.895 138.622 156.423 138.418C156.951 138.214 157.503 138.112 158.079 138.112C158.823 138.112 159.477 138.256 160.041 138.544C160.605 138.82 161.043 139.21 161.355 139.714C161.679 140.206 161.841 140.782 161.841 141.442V148.03H160.203V146.194L160.509 146.302C160.305 146.686 160.029 147.022 159.681 147.31C159.333 147.598 158.925 147.826 158.457 147.994C157.989 148.162 157.479 148.246 156.927 148.246ZM156.963 151.666V149.65H158.979V151.666H156.963ZM172.012 148.246C171.076 148.246 170.242 148.024 169.51 147.58C168.778 147.136 168.202 146.53 167.782 145.762C167.362 144.982 167.152 144.112 167.152 143.152C167.152 142.18 167.356 141.316 167.764 140.56C168.184 139.804 168.748 139.21 169.456 138.778C170.176 138.334 170.98 138.112 171.868 138.112C172.588 138.112 173.224 138.244 173.776 138.508C174.34 138.76 174.814 139.108 175.198 139.552C175.594 139.984 175.894 140.482 176.098 141.046C176.314 141.598 176.422 142.174 176.422 142.774C176.422 142.906 176.41 143.056 176.386 143.224C176.374 143.38 176.356 143.53 176.332 143.674H168.376V142.234H175.36L174.568 142.882C174.676 142.258 174.616 141.7 174.388 141.208C174.16 140.716 173.824 140.326 173.38 140.038C172.936 139.75 172.432 139.606 171.868 139.606C171.304 139.606 170.788 139.75 170.32 140.038C169.852 140.326 169.486 140.74 169.222 141.28C168.97 141.808 168.868 142.438 168.916 143.17C168.868 143.878 168.976 144.502 169.24 145.042C169.516 145.57 169.9 145.984 170.392 146.284C170.896 146.572 171.442 146.716 172.03 146.716C172.678 146.716 173.224 146.566 173.668 146.266C174.112 145.966 174.472 145.582 174.748 145.114L176.152 145.834C175.96 146.278 175.66 146.686 175.252 147.058C174.856 147.418 174.382 147.706 173.83 147.922C173.29 148.138 172.684 148.246 172.012 148.246ZM178.605 148.03V138.328H180.243V140.308L180.009 140.002C180.249 139.39 180.633 138.922 181.161 138.598C181.689 138.274 182.283 138.112 182.943 138.112C183.699 138.112 184.377 138.322 184.977 138.742C185.589 139.162 186.009 139.714 186.237 140.398L185.769 140.416C186.021 139.66 186.447 139.09 187.047 138.706C187.647 138.31 188.313 138.112 189.045 138.112C189.717 138.112 190.323 138.268 190.863 138.58C191.415 138.892 191.853 139.324 192.177 139.876C192.501 140.428 192.663 141.052 192.663 141.748V148.03H190.971V142.288C190.971 141.748 190.875 141.292 190.683 140.92C190.491 140.548 190.227 140.26 189.891 140.056C189.567 139.84 189.183 139.732 188.739 139.732C188.307 139.732 187.917 139.84 187.569 140.056C187.233 140.26 186.963 140.554 186.759 140.938C186.567 141.31 186.471 141.76 186.471 142.288V148.03H184.779V142.288C184.779 141.748 184.683 141.292 184.491 140.92C184.299 140.548 184.035 140.26 183.699 140.056C183.375 139.84 182.991 139.732 182.547 139.732C182.115 139.732 181.725 139.84 181.377 140.056C181.041 140.26 180.771 140.554 180.567 140.938C180.375 141.31 180.279 141.76 180.279 142.288V148.03H178.605ZM202.651 148.246C201.703 148.246 200.857 148.024 200.113 147.58C199.381 147.136 198.805 146.53 198.385 145.762C197.965 144.994 197.755 144.13 197.755 143.17C197.755 142.198 197.965 141.334 198.385 140.578C198.805 139.822 199.381 139.222 200.113 138.778C200.857 138.334 201.703 138.112 202.651 138.112C203.287 138.112 203.881 138.226 204.433 138.454C204.985 138.682 205.471 138.988 205.891 139.372C206.311 139.756 206.617 140.206 206.809 140.722L205.315 141.442C205.087 140.938 204.739 140.53 204.271 140.218C203.803 139.894 203.263 139.732 202.651 139.732C202.063 139.732 201.529 139.882 201.049 140.182C200.581 140.482 200.209 140.89 199.933 141.406C199.657 141.922 199.519 142.516 199.519 143.188C199.519 143.836 199.657 144.424 199.933 144.952C200.209 145.468 200.581 145.876 201.049 146.176C201.529 146.476 202.063 146.626 202.651 146.626C203.263 146.626 203.803 146.47 204.271 146.158C204.739 145.834 205.087 145.408 205.315 144.88L206.809 145.636C206.617 146.14 206.311 146.59 205.891 146.986C205.471 147.37 204.985 147.676 204.433 147.904C203.881 148.132 203.287 148.246 202.651 148.246ZM208.997 148.03V134.404H210.671V140.218L210.365 140.056C210.605 139.444 210.989 138.97 211.517 138.634C212.057 138.286 212.687 138.112 213.407 138.112C214.103 138.112 214.721 138.268 215.261 138.58C215.813 138.892 216.245 139.324 216.557 139.876C216.881 140.428 217.043 141.052 217.043 141.748V148.03H215.351V142.288C215.351 141.748 215.249 141.292 215.045 140.92C214.853 140.548 214.583 140.26 214.235 140.056C213.887 139.84 213.485 139.732 213.029 139.732C212.585 139.732 212.183 139.84 211.823 140.056C211.463 140.26 211.181 140.554 210.977 140.938C210.773 141.31 210.671 141.76 210.671 142.288V148.03H208.997ZM222.283 148.246C221.647 148.246 221.083 148.132 220.591 147.904C220.111 147.664 219.733 147.34 219.457 146.932C219.181 146.512 219.043 146.032 219.043 145.492C219.043 144.976 219.151 144.514 219.367 144.106C219.595 143.686 219.943 143.332 220.411 143.044C220.891 142.756 221.491 142.552 222.211 142.432L225.811 141.838V143.242L222.589 143.782C221.965 143.89 221.509 144.088 221.221 144.376C220.945 144.664 220.807 145.018 220.807 145.438C220.807 145.834 220.963 146.164 221.275 146.428C221.599 146.692 222.001 146.824 222.481 146.824C223.093 146.824 223.621 146.698 224.065 146.446C224.521 146.182 224.875 145.828 225.127 145.384C225.391 144.94 225.523 144.448 225.523 143.908V141.442C225.523 140.914 225.325 140.488 224.929 140.164C224.545 139.828 224.035 139.66 223.399 139.66C222.847 139.66 222.355 139.804 221.923 140.092C221.503 140.368 221.191 140.74 220.987 141.208L219.529 140.452C219.709 140.008 219.997 139.612 220.393 139.264C220.789 138.904 221.251 138.622 221.779 138.418C222.307 138.214 222.859 138.112 223.435 138.112C224.179 138.112 224.833 138.256 225.397 138.544C225.961 138.82 226.399 139.21 226.711 139.714C227.035 140.206 227.197 140.782 227.197 141.442V148.03H225.559V146.194L225.865 146.302C225.661 146.686 225.385 147.022 225.037 147.31C224.689 147.598 224.281 147.826 223.813 147.994C223.345 148.162 222.835 148.246 222.283 148.246ZM222.607 136.51L220.609 133.666H222.859L224.299 136.51H222.607ZM234.4 148.246C233.464 148.246 232.618 148.03 231.862 147.598C231.106 147.154 230.506 146.548 230.062 145.78C229.618 145.012 229.396 144.142 229.396 143.17C229.396 142.198 229.612 141.334 230.044 140.578C230.488 139.822 231.088 139.222 231.844 138.778C232.6 138.334 233.452 138.112 234.4 138.112C235.336 138.112 236.182 138.334 236.938 138.778C237.694 139.21 238.288 139.804 238.72 140.56C239.164 141.316 239.386 142.186 239.386 143.17C239.386 144.154 239.158 145.03 238.702 145.798C238.246 146.554 237.64 147.154 236.884 147.598C236.14 148.03 235.312 148.246 234.4 148.246ZM234.4 146.626C235 146.626 235.54 146.476 236.02 146.176C236.512 145.876 236.896 145.462 237.172 144.934C237.46 144.406 237.604 143.818 237.604 143.17C237.604 142.51 237.46 141.928 237.172 141.424C236.896 140.908 236.512 140.5 236.02 140.2C235.54 139.888 235 139.732 234.4 139.732C233.788 139.732 233.236 139.888 232.744 140.2C232.264 140.5 231.88 140.908 231.592 141.424C231.304 141.928 231.16 142.51 231.16 143.17C231.16 143.818 231.304 144.406 231.592 144.934C231.88 145.462 232.264 145.876 232.744 146.176C233.236 146.476 233.788 146.626 234.4 146.626ZM247.525 148.246C246.889 148.246 246.325 148.132 245.833 147.904C245.353 147.664 244.975 147.34 244.699 146.932C244.423 146.512 244.285 146.032 244.285 145.492C244.285 144.976 244.393 144.514 244.609 144.106C244.837 143.686 245.185 143.332 245.653 143.044C246.133 142.756 246.733 142.552 247.453 142.432L251.053 141.838V143.242L247.831 143.782C247.207 143.89 246.751 144.088 246.463 144.376C246.187 144.664 246.049 145.018 246.049 145.438C246.049 145.834 246.205 146.164 246.517 146.428C246.841 146.692 247.243 146.824 247.723 146.824C248.335 146.824 248.863 146.698 249.307 146.446C249.763 146.182 250.117 145.828 250.369 145.384C250.633 144.94 250.765 144.448 250.765 143.908V141.442C250.765 140.914 250.567 140.488 250.171 140.164C249.787 139.828 249.277 139.66 248.641 139.66C248.089 139.66 247.597 139.804 247.165 140.092C246.745 140.368 246.433 140.74 246.229 141.208L244.771 140.452C244.951 140.008 245.239 139.612 245.635 139.264C246.031 138.904 246.493 138.622 247.021 138.418C247.549 138.214 248.101 138.112 248.677 138.112C249.421 138.112 250.075 138.256 250.639 138.544C251.203 138.82 251.641 139.21 251.953 139.714C252.277 140.206 252.439 140.782 252.439 141.442V148.03H250.801V146.194L251.107 146.302C250.903 146.686 250.627 147.022 250.279 147.31C249.931 147.598 249.523 147.826 249.055 147.994C248.587 148.162 248.077 148.246 247.525 148.246ZM255.034 148.03V138.328H256.672V140.218L256.402 140.056C256.642 139.444 257.026 138.97 257.554 138.634C258.094 138.286 258.724 138.112 259.444 138.112C260.14 138.112 260.758 138.268 261.298 138.58C261.85 138.892 262.282 139.324 262.594 139.876C262.918 140.428 263.08 141.052 263.08 141.748V148.03H261.388V142.288C261.388 141.748 261.292 141.292 261.1 140.92C260.908 140.548 260.632 140.26 260.272 140.056C259.924 139.84 259.522 139.732 259.066 139.732C258.61 139.732 258.202 139.84 257.842 140.056C257.494 140.26 257.218 140.554 257.014 140.938C256.81 141.31 256.708 141.76 256.708 142.288V148.03H255.034ZM265.476 148.03V134.404H267.15V140.218L266.844 140.056C267.084 139.444 267.468 138.97 267.996 138.634C268.536 138.286 269.166 138.112 269.886 138.112C270.582 138.112 271.2 138.268 271.74 138.58C272.292 138.892 272.724 139.324 273.036 139.876C273.36 140.428 273.522 141.052 273.522 141.748V148.03H271.83V142.288C271.83 141.748 271.728 141.292 271.524 140.92C271.332 140.548 271.062 140.26 270.714 140.056C270.366 139.84 269.964 139.732 269.508 139.732C269.064 139.732 268.662 139.84 268.302 140.056C267.942 140.26 267.66 140.554 267.456 140.938C267.252 141.31 267.15 141.76 267.15 142.288V148.03H265.476ZM274.747 150.19L280.795 135.358H282.685L276.637 150.19H274.747ZM288.609 148.246C287.661 148.246 286.815 148.024 286.071 147.58C285.339 147.136 284.763 146.53 284.343 145.762C283.923 144.994 283.713 144.13 283.713 143.17C283.713 142.198 283.923 141.334 284.343 140.578C284.763 139.822 285.339 139.222 286.071 138.778C286.815 138.334 287.661 138.112 288.609 138.112C289.245 138.112 289.839 138.226 290.391 138.454C290.943 138.682 291.429 138.988 291.849 139.372C292.269 139.756 292.575 140.206 292.767 140.722L291.273 141.442C291.045 140.938 290.697 140.53 290.229 140.218C289.761 139.894 289.221 139.732 288.609 139.732C288.021 139.732 287.487 139.882 287.007 140.182C286.539 140.482 286.167 140.89 285.891 141.406C285.615 141.922 285.477 142.516 285.477 143.188C285.477 143.836 285.615 144.424 285.891 144.952C286.167 145.468 286.539 145.876 287.007 146.176C287.487 146.476 288.021 146.626 288.609 146.626C289.221 146.626 289.761 146.47 290.229 146.158C290.697 145.834 291.045 145.408 291.273 144.88L292.767 145.636C292.575 146.14 292.269 146.59 291.849 146.986C291.429 147.37 290.943 147.676 290.391 147.904C289.839 148.132 289.245 148.246 288.609 148.246ZM294.954 148.03V134.404H296.628V140.218L296.322 140.056C296.562 139.444 296.946 138.97 297.474 138.634C298.014 138.286 298.644 138.112 299.364 138.112C300.06 138.112 300.678 138.268 301.218 138.58C301.77 138.892 302.202 139.324 302.514 139.876C302.838 140.428 303 141.052 303 141.748V148.03H301.308V142.288C301.308 141.748 301.206 141.292 301.002 140.92C300.81 140.548 300.54 140.26 300.192 140.056C299.844 139.84 299.442 139.732 298.986 139.732C298.542 139.732 298.14 139.84 297.78 140.056C297.42 140.26 297.138 140.554 296.934 140.938C296.73 141.31 296.628 141.76 296.628 142.288V148.03H294.954ZM305.396 148.03V138.328H307.07V148.03H305.396ZM305.396 136.78V134.62H307.07V136.78H305.396ZM305.234 151.666V149.65H307.25V151.666H305.234ZM309.955 150.532V149.722C310.327 149.626 310.609 149.44 310.801 149.164C310.993 148.888 311.101 148.51 311.125 148.03H310.315V145.87H312.061V147.4C312.061 148.264 311.881 148.96 311.521 149.488C311.173 150.016 310.651 150.364 309.955 150.532ZM321.001 148.246C320.365 148.246 319.801 148.132 319.309 147.904C318.829 147.664 318.451 147.34 318.175 146.932C317.899 146.512 317.761 146.032 317.761 145.492C317.761 144.976 317.869 144.514 318.085 144.106C318.313 143.686 318.661 143.332 319.129 143.044C319.609 142.756 320.209 142.552 320.929 142.432L324.529 141.838V143.242L321.307 143.782C320.683 143.89 320.227 144.088 319.939 144.376C319.663 144.664 319.525 145.018 319.525 145.438C319.525 145.834 319.681 146.164 319.993 146.428C320.317 146.692 320.719 146.824 321.199 146.824C321.811 146.824 322.339 146.698 322.783 146.446C323.239 146.182 323.593 145.828 323.845 145.384C324.109 144.94 324.241 144.448 324.241 143.908V141.442C324.241 140.914 324.043 140.488 323.647 140.164C323.263 139.828 322.753 139.66 322.117 139.66C321.565 139.66 321.073 139.804 320.641 140.092C320.221 140.368 319.909 140.74 319.705 141.208L318.247 140.452C318.427 140.008 318.715 139.612 319.111 139.264C319.507 138.904 319.969 138.622 320.497 138.418C321.025 138.214 321.577 138.112 322.153 138.112C322.897 138.112 323.551 138.256 324.115 138.544C324.679 138.82 325.117 139.21 325.429 139.714C325.753 140.206 325.915 140.782 325.915 141.442V148.03H324.277V146.194L324.583 146.302C324.379 146.686 324.103 147.022 323.755 147.31C323.407 147.598 322.999 147.826 322.531 147.994C322.063 148.162 321.553 148.246 321.001 148.246ZM328.511 148.03V138.328H330.149V140.218L329.879 140.056C330.119 139.444 330.503 138.97 331.031 138.634C331.571 138.286 332.201 138.112 332.921 138.112C333.617 138.112 334.235 138.268 334.775 138.58C335.327 138.892 335.759 139.324 336.071 139.876C336.395 140.428 336.557 141.052 336.557 141.748V148.03H334.865V142.288C334.865 141.748 334.769 141.292 334.577 140.92C334.385 140.548 334.109 140.26 333.749 140.056C333.401 139.84 332.999 139.732 332.543 139.732C332.087 139.732 331.679 139.84 331.319 140.056C330.971 140.26 330.695 140.554 330.491 140.938C330.287 141.31 330.185 141.76 330.185 142.288V148.03H328.511ZM338.952 148.03V134.404H340.626V140.218L340.32 140.056C340.56 139.444 340.944 138.97 341.472 138.634C342.012 138.286 342.642 138.112 343.362 138.112C344.058 138.112 344.676 138.268 345.216 138.58C345.768 138.892 346.2 139.324 346.512 139.876C346.836 140.428 346.998 141.052 346.998 141.748V148.03H345.306V142.288C345.306 141.748 345.204 141.292 345 140.92C344.808 140.548 344.538 140.26 344.19 140.056C343.842 139.84 343.44 139.732 342.984 139.732C342.54 139.732 342.138 139.84 341.778 140.056C341.418 140.26 341.136 140.554 340.932 140.938C340.728 141.31 340.626 141.76 340.626 142.288V148.03H338.952ZM348.224 150.19L354.272 135.358H356.162L350.114 150.19H348.224ZM362.085 148.246C361.137 148.246 360.291 148.024 359.547 147.58C358.815 147.136 358.239 146.53 357.819 145.762C357.399 144.994 357.189 144.13 357.189 143.17C357.189 142.198 357.399 141.334 357.819 140.578C358.239 139.822 358.815 139.222 359.547 138.778C360.291 138.334 361.137 138.112 362.085 138.112C362.721 138.112 363.315 138.226 363.867 138.454C364.419 138.682 364.905 138.988 365.325 139.372C365.745 139.756 366.051 140.206 366.243 140.722L364.749 141.442C364.521 140.938 364.173 140.53 363.705 140.218C363.237 139.894 362.697 139.732 362.085 139.732C361.497 139.732 360.963 139.882 360.483 140.182C360.015 140.482 359.643 140.89 359.367 141.406C359.091 141.922 358.953 142.516 358.953 143.188C358.953 143.836 359.091 144.424 359.367 144.952C359.643 145.468 360.015 145.876 360.483 146.176C360.963 146.476 361.497 146.626 362.085 146.626C362.697 146.626 363.237 146.47 363.705 146.158C364.173 145.834 364.521 145.408 364.749 144.88L366.243 145.636C366.051 146.14 365.745 146.59 365.325 146.986C364.905 147.37 364.419 147.676 363.867 147.904C363.315 148.132 362.721 148.246 362.085 148.246ZM368.431 148.03V134.404H370.105V140.218L369.799 140.056C370.039 139.444 370.423 138.97 370.951 138.634C371.491 138.286 372.121 138.112 372.841 138.112C373.537 138.112 374.155 138.268 374.695 138.58C375.247 138.892 375.679 139.324 375.991 139.876C376.315 140.428 376.477 141.052 376.477 141.748V148.03H374.785V142.288C374.785 141.748 374.683 141.292 374.479 140.92C374.287 140.548 374.017 140.26 373.669 140.056C373.321 139.84 372.919 139.732 372.463 139.732C372.019 139.732 371.617 139.84 371.257 140.056C370.897 140.26 370.615 140.554 370.411 140.938C370.207 141.31 370.105 141.76 370.105 142.288V148.03H368.431ZM378.872 148.03V138.328H380.546V148.03H378.872ZM378.872 136.78V134.62H380.546V136.78H378.872ZM378.71 151.666V149.65H380.726V151.666H378.71ZM145.364 176.246C144.416 176.246 143.57 176.024 142.826 175.58C142.094 175.136 141.518 174.53 141.098 173.762C140.678 172.994 140.468 172.13 140.468 171.17C140.468 170.198 140.678 169.334 141.098 168.578C141.518 167.822 142.094 167.222 142.826 166.778C143.57 166.334 144.416 166.112 145.364 166.112C146 166.112 146.594 166.226 147.146 166.454C147.698 166.682 148.184 166.988 148.604 167.372C149.024 167.756 149.33 168.206 149.522 168.722L148.028 169.442C147.8 168.938 147.452 168.53 146.984 168.218C146.516 167.894 145.976 167.732 145.364 167.732C144.776 167.732 144.242 167.882 143.762 168.182C143.294 168.482 142.922 168.89 142.646 169.406C142.37 169.922 142.232 170.516 142.232 171.188C142.232 171.836 142.37 172.424 142.646 172.952C142.922 173.468 143.294 173.876 143.762 174.176C144.242 174.476 144.776 174.626 145.364 174.626C145.976 174.626 146.516 174.47 146.984 174.158C147.452 173.834 147.8 173.408 148.028 172.88L149.522 173.636C149.33 174.14 149.024 174.59 148.604 174.986C148.184 175.37 147.698 175.676 147.146 175.904C146.594 176.132 146 176.246 145.364 176.246ZM154.431 176.246C153.795 176.246 153.231 176.132 152.739 175.904C152.259 175.664 151.881 175.34 151.605 174.932C151.329 174.512 151.191 174.032 151.191 173.492C151.191 172.976 151.299 172.514 151.515 172.106C151.743 171.686 152.091 171.332 152.559 171.044C153.039 170.756 153.639 170.552 154.359 170.432L157.959 169.838V171.242L154.737 171.782C154.113 171.89 153.657 172.088 153.369 172.376C153.093 172.664 152.955 173.018 152.955 173.438C152.955 173.834 153.111 174.164 153.423 174.428C153.747 174.692 154.149 174.824 154.629 174.824C155.241 174.824 155.769 174.698 156.213 174.446C156.669 174.182 157.023 173.828 157.275 173.384C157.539 172.94 157.671 172.448 157.671 171.908V169.442C157.671 168.914 157.473 168.488 157.077 168.164C156.693 167.828 156.183 167.66 155.547 167.66C154.995 167.66 154.503 167.804 154.071 168.092C153.651 168.368 153.339 168.74 153.135 169.208L151.677 168.452C151.857 168.008 152.145 167.612 152.541 167.264C152.937 166.904 153.399 166.622 153.927 166.418C154.455 166.214 155.007 166.112 155.583 166.112C156.327 166.112 156.981 166.256 157.545 166.544C158.109 166.82 158.547 167.21 158.859 167.714C159.183 168.206 159.345 168.782 159.345 169.442V176.03H157.707V174.194L158.013 174.302C157.809 174.686 157.533 175.022 157.185 175.31C156.837 175.598 156.429 175.826 155.961 175.994C155.493 176.162 154.983 176.246 154.431 176.246ZM152.487 164.51L154.629 161.9H156.555L158.715 164.51H156.879L155.601 163.052L154.323 164.51H152.487ZM159.057 163.196L157.401 160.766H159.525L160.605 163.196H159.057ZM161.941 176.03V166.328H163.579V168.218L163.309 168.056C163.549 167.444 163.933 166.97 164.461 166.634C165.001 166.286 165.631 166.112 166.351 166.112C167.047 166.112 167.665 166.268 168.205 166.58C168.757 166.892 169.189 167.324 169.501 167.876C169.825 168.428 169.987 169.052 169.987 169.748V176.03H168.295V170.288C168.295 169.748 168.199 169.292 168.007 168.92C167.815 168.548 167.539 168.26 167.179 168.056C166.831 167.84 166.429 167.732 165.973 167.732C165.517 167.732 165.109 167.84 164.749 168.056C164.401 168.26 164.125 168.554 163.921 168.938C163.717 169.31 163.615 169.76 163.615 170.288V176.03H161.941ZM179.957 176.246C179.021 176.246 178.187 176.024 177.455 175.58C176.723 175.136 176.147 174.53 175.727 173.762C175.307 172.982 175.097 172.112 175.097 171.152C175.097 170.18 175.301 169.316 175.709 168.56C176.129 167.804 176.693 167.21 177.401 166.778C178.121 166.334 178.925 166.112 179.813 166.112C180.533 166.112 181.169 166.244 181.721 166.508C182.285 166.76 182.759 167.108 183.143 167.552C183.539 167.984 183.839 168.482 184.043 169.046C184.259 169.598 184.367 170.174 184.367 170.774C184.367 170.906 184.355 171.056 184.331 171.224C184.319 171.38 184.301 171.53 184.277 171.674H176.321V170.234H183.305L182.513 170.882C182.621 170.258 182.561 169.7 182.333 169.208C182.105 168.716 181.769 168.326 181.325 168.038C180.881 167.75 180.377 167.606 179.813 167.606C179.249 167.606 178.733 167.75 178.265 168.038C177.797 168.326 177.431 168.74 177.167 169.28C176.915 169.808 176.813 170.438 176.861 171.17C176.813 171.878 176.921 172.502 177.185 173.042C177.461 173.57 177.845 173.984 178.337 174.284C178.841 174.572 179.387 174.716 179.975 174.716C180.623 174.716 181.169 174.566 181.613 174.266C182.057 173.966 182.417 173.582 182.693 173.114L184.097 173.834C183.905 174.278 183.605 174.686 183.197 175.058C182.801 175.418 182.327 175.706 181.775 175.922C181.235 176.138 180.629 176.246 179.957 176.246ZM186.55 176.03V166.328H188.188V168.308L187.954 168.002C188.194 167.39 188.578 166.922 189.106 166.598C189.634 166.274 190.228 166.112 190.888 166.112C191.644 166.112 192.322 166.322 192.922 166.742C193.534 167.162 193.954 167.714 194.182 168.398L193.714 168.416C193.966 167.66 194.392 167.09 194.992 166.706C195.592 166.31 196.258 166.112 196.99 166.112C197.662 166.112 198.268 166.268 198.808 166.58C199.36 166.892 199.798 167.324 200.122 167.876C200.446 168.428 200.608 169.052 200.608 169.748V176.03H198.916V170.288C198.916 169.748 198.82 169.292 198.628 168.92C198.436 168.548 198.172 168.26 197.836 168.056C197.512 167.84 197.128 167.732 196.684 167.732C196.252 167.732 195.862 167.84 195.514 168.056C195.178 168.26 194.908 168.554 194.704 168.938C194.512 169.31 194.416 169.76 194.416 170.288V176.03H192.724V170.288C192.724 169.748 192.628 169.292 192.436 168.92C192.244 168.548 191.98 168.26 191.644 168.056C191.32 167.84 190.936 167.732 190.492 167.732C190.06 167.732 189.67 167.84 189.322 168.056C188.986 168.26 188.716 168.554 188.512 168.938C188.32 169.31 188.224 169.76 188.224 170.288V176.03H186.55ZM206.097 176.03V162.404H207.771V168.218L207.465 168.056C207.705 167.444 208.089 166.97 208.617 166.634C209.157 166.286 209.787 166.112 210.507 166.112C211.203 166.112 211.821 166.268 212.361 166.58C212.913 166.892 213.345 167.324 213.657 167.876C213.981 168.428 214.143 169.052 214.143 169.748V176.03H212.451V170.288C212.451 169.748 212.349 169.292 212.145 168.92C211.953 168.548 211.683 168.26 211.335 168.056C210.987 167.84 210.585 167.732 210.129 167.732C209.685 167.732 209.283 167.84 208.923 168.056C208.563 168.26 208.281 168.554 208.077 168.938C207.873 169.31 207.771 169.76 207.771 170.288V176.03H206.097ZM221.146 176.246C220.21 176.246 219.364 176.03 218.608 175.598C217.852 175.154 217.252 174.548 216.808 173.78C216.364 173.012 216.142 172.142 216.142 171.17C216.142 170.198 216.358 169.334 216.79 168.578C217.234 167.822 217.834 167.222 218.59 166.778C219.346 166.334 220.198 166.112 221.146 166.112C222.082 166.112 222.928 166.334 223.684 166.778C224.44 167.21 225.034 167.804 225.466 168.56C225.91 169.316 226.132 170.186 226.132 171.17C226.132 172.154 225.904 173.03 225.448 173.798C224.992 174.554 224.386 175.154 223.63 175.598C222.886 176.03 222.058 176.246 221.146 176.246ZM221.146 174.626C221.746 174.626 222.286 174.476 222.766 174.176C223.258 173.876 223.642 173.462 223.918 172.934C224.206 172.406 224.35 171.818 224.35 171.17C224.35 170.51 224.206 169.928 223.918 169.424C223.642 168.908 223.258 168.5 222.766 168.2C222.286 167.888 221.746 167.732 221.146 167.732C220.534 167.732 219.982 167.888 219.49 168.2C219.01 168.5 218.626 168.908 218.338 169.424C218.05 169.928 217.906 170.51 217.906 171.17C217.906 171.818 218.05 172.406 218.338 172.934C218.626 173.462 219.01 173.876 219.49 174.176C219.982 174.476 220.534 174.626 221.146 174.626ZM218.014 164.51L220.156 161.9H222.1L224.26 164.51H222.424L221.128 163.052L219.85 164.51H218.014ZM222.118 160.784C221.866 160.784 221.656 160.73 221.488 160.622C221.32 160.502 221.17 160.376 221.038 160.244C220.918 160.1 220.798 159.974 220.678 159.866C220.57 159.746 220.432 159.686 220.264 159.686C220.108 159.686 219.982 159.77 219.886 159.938C219.802 160.094 219.76 160.352 219.76 160.712H218.446C218.446 160.172 218.518 159.728 218.662 159.38C218.818 159.02 219.022 158.75 219.274 158.57C219.526 158.39 219.808 158.3 220.12 158.3C220.396 158.3 220.618 158.354 220.786 158.462C220.954 158.57 221.098 158.696 221.218 158.84C221.35 158.984 221.476 159.11 221.596 159.218C221.716 159.326 221.854 159.38 222.01 159.38C222.19 159.38 222.316 159.29 222.388 159.11C222.472 158.93 222.514 158.684 222.514 158.372H223.846C223.834 159.116 223.66 159.704 223.324 160.136C223 160.568 222.598 160.784 222.118 160.784ZM235.369 176.138C234.421 176.138 233.689 175.868 233.173 175.328C232.669 174.788 232.417 174.026 232.417 173.042V167.93H230.653V166.328H231.013C231.445 166.328 231.787 166.196 232.039 165.932C232.291 165.668 232.417 165.32 232.417 164.888V164.096H234.091V166.328H236.269V167.93H234.091V172.988C234.091 173.312 234.139 173.594 234.235 173.834C234.343 174.074 234.517 174.266 234.757 174.41C234.997 174.542 235.315 174.608 235.711 174.608C235.795 174.608 235.897 174.602 236.017 174.59C236.149 174.578 236.269 174.566 236.377 174.554V176.03C236.221 176.066 236.047 176.09 235.855 176.102C235.663 176.126 235.501 176.138 235.369 176.138ZM238.564 176.03V166.328H240.202V168.11L240.022 167.858C240.25 167.306 240.598 166.898 241.066 166.634C241.534 166.358 242.104 166.22 242.776 166.22H243.37V167.804H242.524C241.84 167.804 241.288 168.02 240.868 168.452C240.448 168.872 240.238 169.472 240.238 170.252V176.03H238.564ZM249.465 176.246C248.529 176.246 247.683 176.03 246.927 175.598C246.171 175.154 245.571 174.548 245.127 173.78C244.683 173.012 244.461 172.142 244.461 171.17C244.461 170.198 244.677 169.334 245.109 168.578C245.553 167.822 246.153 167.222 246.909 166.778C247.665 166.334 248.517 166.112 249.465 166.112H251.445C251.589 166.112 251.727 166.094 251.859 166.058C252.003 166.01 252.117 165.92 252.201 165.788C252.297 165.656 252.345 165.452 252.345 165.176C252.345 164.948 252.309 164.714 252.237 164.474C252.165 164.234 252.075 163.994 251.967 163.754H253.533C253.641 164.006 253.737 164.258 253.821 164.51C253.905 164.75 253.947 165.026 253.947 165.338C253.947 165.938 253.791 166.406 253.479 166.742C253.167 167.066 252.765 167.27 252.273 167.354L252.363 167.012C252.999 167.456 253.503 168.038 253.875 168.758C254.259 169.466 254.451 170.27 254.451 171.17C254.451 172.154 254.223 173.03 253.767 173.798C253.311 174.554 252.705 175.154 251.949 175.598C251.205 176.03 250.377 176.246 249.465 176.246ZM249.465 174.626C250.065 174.626 250.605 174.476 251.085 174.176C251.577 173.876 251.961 173.462 252.237 172.934C252.525 172.406 252.669 171.818 252.669 171.17C252.669 170.51 252.525 169.928 252.237 169.424C251.961 168.908 251.577 168.5 251.085 168.2C250.605 167.888 250.065 167.732 249.465 167.732C248.853 167.732 248.301 167.888 247.809 168.2C247.329 168.5 246.945 168.908 246.657 169.424C246.369 169.928 246.225 170.51 246.225 171.17C246.225 171.818 246.369 172.406 246.657 172.934C246.945 173.462 247.329 173.876 247.809 174.176C248.301 174.476 248.853 174.626 249.465 174.626ZM248.457 179.666V177.65H250.473V179.666H248.457ZM264.371 179.99C263.687 179.99 263.051 179.882 262.463 179.666C261.887 179.45 261.389 179.15 260.969 178.766C260.561 178.394 260.249 177.956 260.033 177.452L261.599 176.732C261.767 177.188 262.085 177.572 262.553 177.884C263.033 178.208 263.633 178.37 264.353 178.37C264.905 178.37 265.403 178.262 265.847 178.046C266.303 177.842 266.663 177.53 266.927 177.11C267.191 176.702 267.323 176.204 267.323 175.616V173.438L267.629 173.762C267.293 174.422 266.807 174.926 266.171 175.274C265.547 175.622 264.857 175.796 264.101 175.796C263.189 175.796 262.373 175.586 261.653 175.166C260.933 174.734 260.369 174.152 259.961 173.42C259.553 172.676 259.349 171.854 259.349 170.954C259.349 170.042 259.553 169.22 259.961 168.488C260.369 167.756 260.927 167.18 261.635 166.76C262.355 166.328 263.171 166.112 264.083 166.112C264.839 166.112 265.523 166.286 266.135 166.634C266.759 166.97 267.257 167.438 267.629 168.038L267.377 168.488V166.328H269.015V175.616C269.015 176.456 268.817 177.206 268.421 177.866C268.025 178.526 267.473 179.042 266.765 179.414C266.069 179.798 265.271 179.99 264.371 179.99ZM264.245 174.176C264.821 174.176 265.337 174.032 265.793 173.744C266.261 173.456 266.633 173.072 266.909 172.592C267.185 172.1 267.323 171.554 267.323 170.954C267.323 170.366 267.185 169.826 266.909 169.334C266.633 168.842 266.261 168.452 265.793 168.164C265.337 167.876 264.821 167.732 264.245 167.732C263.657 167.732 263.123 167.876 262.643 168.164C262.163 168.452 261.785 168.842 261.509 169.334C261.245 169.814 261.113 170.354 261.113 170.954C261.113 171.554 261.245 172.1 261.509 172.592C261.785 173.072 262.157 173.456 262.625 173.744C263.105 174.032 263.645 174.176 264.245 174.176ZM271.358 176.03V166.328H273.032V176.03H271.358ZM271.34 164.51L269.342 161.666H271.592L273.032 164.51H271.34ZM278.484 176.03V162.404H280.158V171.746L279.474 171.584L284.622 166.328H286.764L283.038 170.234L287.016 176.03H285.036L281.4 170.774L282.444 170.72L279.618 173.672L280.158 172.448V176.03H278.484ZM288.521 176.03V162.404H290.195V168.218L289.889 168.056C290.129 167.444 290.513 166.97 291.041 166.634C291.581 166.286 292.211 166.112 292.931 166.112C293.627 166.112 294.245 166.268 294.785 166.58C295.337 166.892 295.769 167.324 296.081 167.876C296.405 168.428 296.567 169.052 296.567 169.748V176.03H294.875V170.288C294.875 169.748 294.773 169.292 294.569 168.92C294.377 168.548 294.107 168.26 293.759 168.056C293.411 167.84 293.009 167.732 292.553 167.732C292.109 167.732 291.707 167.84 291.347 168.056C290.987 168.26 290.705 168.554 290.501 168.938C290.297 169.31 290.195 169.76 290.195 170.288V176.03H288.521ZM303.57 176.246C302.634 176.246 301.788 176.03 301.032 175.598C300.276 175.154 299.676 174.548 299.232 173.78C298.788 173.012 298.566 172.142 298.566 171.17C298.566 170.198 298.782 169.334 299.214 168.578C299.658 167.822 300.258 167.222 301.014 166.778C301.77 166.334 302.622 166.112 303.57 166.112C304.506 166.112 305.352 166.334 306.108 166.778C306.864 167.21 307.458 167.804 307.89 168.56C308.334 169.316 308.556 170.186 308.556 171.17C308.556 172.154 308.328 173.03 307.872 173.798C307.416 174.554 306.81 175.154 306.054 175.598C305.31 176.03 304.482 176.246 303.57 176.246ZM303.57 174.626C304.17 174.626 304.71 174.476 305.19 174.176C305.682 173.876 306.066 173.462 306.342 172.934C306.63 172.406 306.774 171.818 306.774 171.17C306.774 170.51 306.63 169.928 306.342 169.424C306.066 168.908 305.682 168.5 305.19 168.2C304.71 167.888 304.17 167.732 303.57 167.732C302.958 167.732 302.406 167.888 301.914 168.2C301.434 168.5 301.05 168.908 300.762 169.424C300.474 169.928 300.33 170.51 300.33 171.17C300.33 171.818 300.474 172.406 300.762 172.934C301.05 173.462 301.434 173.876 301.914 174.176C302.406 174.476 302.958 174.626 303.57 174.626ZM300.456 164.51L302.598 161.72H304.524L306.684 164.51H304.848L303.57 162.872L302.292 164.51H300.456ZM310.739 176.03V166.328H312.377V168.218L312.107 168.056C312.347 167.444 312.731 166.97 313.259 166.634C313.799 166.286 314.429 166.112 315.149 166.112C315.845 166.112 316.463 166.268 317.003 166.58C317.555 166.892 317.987 167.324 318.299 167.876C318.623 168.428 318.785 169.052 318.785 169.748V176.03H317.093V170.288C317.093 169.748 316.997 169.292 316.805 168.92C316.613 168.548 316.337 168.26 315.977 168.056C315.629 167.84 315.227 167.732 314.771 167.732C314.315 167.732 313.907 167.84 313.547 168.056C313.199 168.26 312.923 168.554 312.719 168.938C312.515 169.31 312.413 169.76 312.413 170.288V176.03H310.739ZM325.807 179.99C325.123 179.99 324.487 179.882 323.899 179.666C323.323 179.45 322.825 179.15 322.405 178.766C321.997 178.394 321.685 177.956 321.469 177.452L323.035 176.732C323.203 177.188 323.521 177.572 323.989 177.884C324.469 178.208 325.069 178.37 325.789 178.37C326.341 178.37 326.839 178.262 327.283 178.046C327.739 177.842 328.099 177.53 328.363 177.11C328.627 176.702 328.759 176.204 328.759 175.616V173.438L329.065 173.762C328.729 174.422 328.243 174.926 327.607 175.274C326.983 175.622 326.293 175.796 325.537 175.796C324.625 175.796 323.809 175.586 323.089 175.166C322.369 174.734 321.805 174.152 321.397 173.42C320.989 172.676 320.785 171.854 320.785 170.954C320.785 170.042 320.989 169.22 321.397 168.488C321.805 167.756 322.363 167.18 323.071 166.76C323.791 166.328 324.607 166.112 325.519 166.112C326.275 166.112 326.959 166.286 327.571 166.634C328.195 166.97 328.693 167.438 329.065 168.038L328.813 168.488V166.328H330.451V175.616C330.451 176.456 330.253 177.206 329.857 177.866C329.461 178.526 328.909 179.042 328.201 179.414C327.505 179.798 326.707 179.99 325.807 179.99ZM325.681 174.176C326.257 174.176 326.773 174.032 327.229 173.744C327.697 173.456 328.069 173.072 328.345 172.592C328.621 172.1 328.759 171.554 328.759 170.954C328.759 170.366 328.621 169.826 328.345 169.334C328.069 168.842 327.697 168.452 327.229 168.164C326.773 167.876 326.257 167.732 325.681 167.732C325.093 167.732 324.559 167.876 324.079 168.164C323.599 168.452 323.221 168.842 322.945 169.334C322.681 169.814 322.549 170.354 322.549 170.954C322.549 171.554 322.681 172.1 322.945 172.592C323.221 173.072 323.593 173.456 324.061 173.744C324.541 174.032 325.081 174.176 325.681 174.176ZM339.001 176.246C338.365 176.246 337.801 176.132 337.309 175.904C336.829 175.664 336.451 175.34 336.175 174.932C335.899 174.512 335.761 174.032 335.761 173.492C335.761 172.976 335.869 172.514 336.085 172.106C336.313 171.686 336.661 171.332 337.129 171.044C337.609 170.756 338.209 170.552 338.929 170.432L342.529 169.838V171.242L339.307 171.782C338.683 171.89 338.227 172.088 337.939 172.376C337.663 172.664 337.525 173.018 337.525 173.438C337.525 173.834 337.681 174.164 337.993 174.428C338.317 174.692 338.719 174.824 339.199 174.824C339.811 174.824 340.339 174.698 340.783 174.446C341.239 174.182 341.593 173.828 341.845 173.384C342.109 172.94 342.241 172.448 342.241 171.908V169.442C342.241 168.914 342.043 168.488 341.647 168.164C341.263 167.828 340.753 167.66 340.117 167.66C339.565 167.66 339.073 167.804 338.641 168.092C338.221 168.368 337.909 168.74 337.705 169.208L336.247 168.452C336.427 168.008 336.715 167.612 337.111 167.264C337.507 166.904 337.969 166.622 338.497 166.418C339.025 166.214 339.577 166.112 340.153 166.112C340.897 166.112 341.551 166.256 342.115 166.544C342.679 166.82 343.117 167.21 343.429 167.714C343.753 168.206 343.915 168.782 343.915 169.442V176.03H342.277V174.194L342.583 174.302C342.379 174.686 342.103 175.022 341.755 175.31C341.407 175.598 340.999 175.826 340.531 175.994C340.063 176.162 339.553 176.246 339.001 176.246ZM339.037 179.666V177.65H341.053V179.666H339.037ZM348.491 172.106V171.872C348.491 171.332 348.581 170.858 348.761 170.45C348.953 170.03 349.187 169.658 349.463 169.334C349.751 168.998 350.051 168.686 350.363 168.398C350.783 167.978 351.161 167.57 351.497 167.174C351.845 166.778 352.019 166.31 352.019 165.77C352.019 165.458 351.941 165.164 351.785 164.888C351.629 164.612 351.395 164.39 351.083 164.222C350.783 164.054 350.411 163.97 349.967 163.97C349.355 163.97 348.827 164.162 348.383 164.546C347.939 164.93 347.663 165.44 347.555 166.076L345.971 165.716C346.079 165.056 346.313 164.48 346.673 163.988C347.045 163.484 347.513 163.094 348.077 162.818C348.653 162.542 349.289 162.404 349.985 162.404C350.765 162.404 351.437 162.566 352.001 162.89C352.577 163.202 353.021 163.61 353.333 164.114C353.645 164.618 353.801 165.164 353.801 165.752C353.801 166.28 353.693 166.748 353.477 167.156C353.261 167.552 352.985 167.918 352.649 168.254C352.325 168.59 352.001 168.926 351.677 169.262C351.281 169.646 350.933 170.048 350.633 170.468C350.345 170.876 350.201 171.356 350.201 171.908V172.106H348.491ZM348.509 176.03V173.87H350.255V176.03H348.509Z" fill="white"/>
</g>
<g filter="url(#filter1_d_729_2014)">
<path d="M-114.128 39.1592C-114.128 30.3226 -106.964 23.1592 -98.1279 23.1592H136.321C145.157 23.1592 152.321 30.3226 152.321 39.1592V72.2432C152.321 81.0797 145.157 88.2432 136.321 88.2432H-98.1279C-106.964 88.2432 -114.128 81.0797 -114.128 72.2432V39.1592Z" fill="white"/>
<path d="M25.3417 62.1885V48.7785H27.1057V54.7545H33.8197V48.7785H35.6017V62.1885H33.8197V56.3745H27.1057V62.1885H25.3417ZM38.38 62.1885V52.4865H40.054V62.1885H38.38ZM38.38 50.9385V48.7785H40.054V50.9385H38.38ZM42.9395 64.6905V63.8805C43.3115 63.7845 43.5935 63.5985 43.7855 63.3225C43.9775 63.0465 44.0855 62.6685 44.1095 62.1885H43.2995V60.0285H45.0455V61.5585C45.0455 62.4225 44.8655 63.1185 44.5055 63.6465C44.1575 64.1745 43.6355 64.5225 42.9395 64.6905ZM55.6417 62.4045C54.6937 62.4045 53.8477 62.1825 53.1037 61.7385C52.3717 61.2945 51.7957 60.6885 51.3757 59.9205C50.9557 59.1525 50.7457 58.2885 50.7457 57.3285C50.7457 56.3565 50.9557 55.4925 51.3757 54.7365C51.7957 53.9805 52.3717 53.3805 53.1037 52.9365C53.8477 52.4925 54.6937 52.2705 55.6417 52.2705C56.2777 52.2705 56.8717 52.3845 57.4237 52.6125C57.9757 52.8405 58.4617 53.1465 58.8817 53.5305C59.3017 53.9145 59.6077 54.3645 59.7997 54.8805L58.3057 55.6005C58.0777 55.0965 57.7297 54.6885 57.2617 54.3765C56.7937 54.0525 56.2537 53.8905 55.6417 53.8905C55.0537 53.8905 54.5197 54.0405 54.0397 54.3405C53.5717 54.6405 53.1997 55.0485 52.9237 55.5645C52.6477 56.0805 52.5097 56.6745 52.5097 57.3465C52.5097 57.9945 52.6477 58.5825 52.9237 59.1105C53.1997 59.6265 53.5717 60.0345 54.0397 60.3345C54.5197 60.6345 55.0537 60.7845 55.6417 60.7845C56.2537 60.7845 56.7937 60.6285 57.2617 60.3165C57.7297 59.9925 58.0777 59.5665 58.3057 59.0385L59.7997 59.7945C59.6077 60.2985 59.3017 60.7485 58.8817 61.1445C58.4617 61.5285 57.9757 61.8345 57.4237 62.0625C56.8717 62.2905 56.2777 62.4045 55.6417 62.4045ZM61.9874 62.1885V48.5625H63.6614V54.3765L63.3554 54.2145C63.5954 53.6025 63.9794 53.1285 64.5074 52.7925C65.0474 52.4445 65.6774 52.2705 66.3974 52.2705C67.0934 52.2705 67.7114 52.4265 68.2514 52.7385C68.8034 53.0505 69.2354 53.4825 69.5474 54.0345C69.8714 54.5865 70.0334 55.2105 70.0334 55.9065V62.1885H68.3414V56.4465C68.3414 55.9065 68.2394 55.4505 68.0354 55.0785C67.8434 54.7065 67.5734 54.4185 67.2254 54.2145C66.8774 53.9985 66.4754 53.8905 66.0194 53.8905C65.5754 53.8905 65.1734 53.9985 64.8134 54.2145C64.4534 54.4185 64.1714 54.7125 63.9674 55.0965C63.7634 55.4685 63.6614 55.9185 63.6614 56.4465V62.1885H61.9874ZM75.2728 62.4045C74.6368 62.4045 74.0728 62.2905 73.5808 62.0625C73.1008 61.8225 72.7228 61.4985 72.4468 61.0905C72.1708 60.6705 72.0328 60.1905 72.0328 59.6505C72.0328 59.1345 72.1408 58.6725 72.3568 58.2645C72.5848 57.8445 72.9328 57.4905 73.4008 57.2025C73.8808 56.9145 74.4808 56.7105 75.2008 56.5905L78.8008 55.9965V57.4005L75.5788 57.9405C74.9548 58.0485 74.4988 58.2465 74.2108 58.5345C73.9348 58.8225 73.7968 59.1765 73.7968 59.5965C73.7968 59.9925 73.9528 60.3225 74.2648 60.5865C74.5888 60.8505 74.9908 60.9825 75.4708 60.9825C76.0828 60.9825 76.6108 60.8565 77.0548 60.6045C77.5108 60.3405 77.8648 59.9865 78.1168 59.5425C78.3808 59.0985 78.5128 58.6065 78.5128 58.0665V55.6005C78.5128 55.0725 78.3148 54.6465 77.9188 54.3225C77.5348 53.9865 77.0248 53.8185 76.3888 53.8185C75.8368 53.8185 75.3448 53.9625 74.9128 54.2505C74.4928 54.5265 74.1808 54.8985 73.9768 55.3665L72.5188 54.6105C72.6988 54.1665 72.9868 53.7705 73.3828 53.4225C73.7788 53.0625 74.2408 52.7805 74.7688 52.5765C75.2968 52.3725 75.8488 52.2705 76.4248 52.2705C77.1688 52.2705 77.8228 52.4145 78.3868 52.7025C78.9508 52.9785 79.3888 53.3685 79.7008 53.8725C80.0248 54.3645 80.1868 54.9405 80.1868 55.6005V62.1885H78.5488V60.3525L78.8548 60.4605C78.6508 60.8445 78.3748 61.1805 78.0268 61.4685C77.6788 61.7565 77.2708 61.9845 76.8028 62.1525C76.3348 62.3205 75.8248 62.4045 75.2728 62.4045ZM75.5968 50.6685L73.5988 47.8245H75.8488L77.2888 50.6685H75.5968ZM87.3903 62.4045C86.4543 62.4045 85.6083 62.1885 84.8523 61.7565C84.0963 61.3125 83.4963 60.7065 83.0523 59.9385C82.6083 59.1705 82.3863 58.3005 82.3863 57.3285C82.3863 56.3565 82.6023 55.4925 83.0343 54.7365C83.4783 53.9805 84.0783 53.3805 84.8343 52.9365C85.5903 52.4925 86.4423 52.2705 87.3903 52.2705C88.3263 52.2705 89.1723 52.4925 89.9283 52.9365C90.6843 53.3685 91.2783 53.9625 91.7103 54.7185C92.1543 55.4745 92.3763 56.3445 92.3763 57.3285C92.3763 58.3125 92.1483 59.1885 91.6923 59.9565C91.2363 60.7125 90.6303 61.3125 89.8743 61.7565C89.1303 62.1885 88.3023 62.4045 87.3903 62.4045ZM87.3903 60.7845C87.9903 60.7845 88.5303 60.6345 89.0103 60.3345C89.5023 60.0345 89.8863 59.6205 90.1623 59.0925C90.4503 58.5645 90.5943 57.9765 90.5943 57.3285C90.5943 56.6685 90.4503 56.0865 90.1623 55.5825C89.8863 55.0665 89.5023 54.6585 89.0103 54.3585C88.5303 54.0465 87.9903 53.8905 87.3903 53.8905C86.7783 53.8905 86.2263 54.0465 85.7343 54.3585C85.2543 54.6585 84.8703 55.0665 84.5823 55.5825C84.2943 56.0865 84.1503 56.6685 84.1503 57.3285C84.1503 57.9765 84.2943 58.5645 84.5823 59.0925C84.8703 59.6205 85.2543 60.0345 85.7343 60.3345C86.2263 60.6345 86.7783 60.7845 87.3903 60.7845ZM102.135 62.4045C101.199 62.4045 100.365 62.1825 99.633 61.7385C98.901 61.2945 98.325 60.6885 97.905 59.9205C97.485 59.1405 97.275 58.2705 97.275 57.3105C97.275 56.3385 97.479 55.4745 97.887 54.7185C98.307 53.9625 98.871 53.3685 99.579 52.9365C100.299 52.4925 101.103 52.2705 101.991 52.2705C102.711 52.2705 103.347 52.4025 103.899 52.6665C104.463 52.9185 104.937 53.2665 105.321 53.7105C105.717 54.1425 106.017 54.6405 106.221 55.2045C106.437 55.7565 106.545 56.3325 106.545 56.9325C106.545 57.0645 106.533 57.2145 106.509 57.3825C106.497 57.5385 106.479 57.6885 106.455 57.8325H98.499V56.3925H105.483L104.691 57.0405C104.799 56.4165 104.739 55.8585 104.511 55.3665C104.283 54.8745 103.947 54.4845 103.503 54.1965C103.059 53.9085 102.555 53.7645 101.991 53.7645C101.427 53.7645 100.911 53.9085 100.443 54.1965C99.975 54.4845 99.609 54.8985 99.345 55.4385C99.093 55.9665 98.991 56.5965 99.039 57.3285C98.991 58.0365 99.099 58.6605 99.363 59.2005C99.639 59.7285 100.023 60.1425 100.515 60.4425C101.019 60.7305 101.565 60.8745 102.153 60.8745C102.801 60.8745 103.347 60.7245 103.791 60.4245C104.235 60.1245 104.595 59.7405 104.871 59.2725L106.275 59.9925C106.083 60.4365 105.783 60.8445 105.375 61.2165C104.979 61.5765 104.505 61.8645 103.953 62.0805C103.413 62.2965 102.807 62.4045 102.135 62.4045ZM108.728 62.1885V52.4865H110.366V54.4665L110.132 54.1605C110.372 53.5485 110.756 53.0805 111.284 52.7565C111.812 52.4325 112.406 52.2705 113.066 52.2705C113.822 52.2705 114.5 52.4805 115.1 52.9005C115.712 53.3205 116.132 53.8725 116.36 54.5565L115.892 54.5745C116.144 53.8185 116.57 53.2485 117.17 52.8645C117.77 52.4685 118.436 52.2705 119.168 52.2705C119.84 52.2705 120.446 52.4265 120.986 52.7385C121.538 53.0505 121.976 53.4825 122.3 54.0345C122.624 54.5865 122.786 55.2105 122.786 55.9065V62.1885H121.094V56.4465C121.094 55.9065 120.998 55.4505 120.806 55.0785C120.614 54.7065 120.35 54.4185 120.014 54.2145C119.69 53.9985 119.306 53.8905 118.862 53.8905C118.43 53.8905 118.04 53.9985 117.692 54.2145C117.356 54.4185 117.086 54.7125 116.882 55.0965C116.69 55.4685 116.594 55.9185 116.594 56.4465V62.1885H114.902V56.4465C114.902 55.9065 114.806 55.4505 114.614 55.0785C114.422 54.7065 114.158 54.4185 113.822 54.2145C113.498 53.9985 113.114 53.8905 112.67 53.8905C112.238 53.8905 111.848 53.9985 111.5 54.2145C111.164 54.4185 110.894 54.7125 110.69 55.0965C110.498 55.4685 110.402 55.9185 110.402 56.4465V62.1885H108.728ZM125.901 58.2645L125.793 48.7785H127.557L127.431 58.2645H125.901ZM125.793 62.1885V60.0285H127.557V62.1885H125.793Z" fill="#475467"/>
</g>
</g>
<defs>
<filter id="filter0_d_729_2014" x="118.385" y="113.446" width="340.091" height="91.1689" filterUnits="userSpaceOnUse" color-interpolation-filters="sRGB">
<feFlood flood-opacity="0" result="BackgroundImageFix"/>
<feColorMatrix in="SourceAlpha" type="matrix" values="0 0 0 0 0 0 0 0 0 0 0 0 0 0 0 0 0 0 127 0" result="hardAlpha"/>
<feOffset dy="4"/>
<feGaussianBlur stdDeviation="2"/>
<feComposite in2="hardAlpha" operator="out"/>
<feColorMatrix type="matrix" values="0 0 0 0 0.605602 0 0 0 0 0.605602 0 0 0 0 0.605602 0 0 0 0.25 0"/>
<feBlend mode="normal" in2="BackgroundImageFix" result="effect1_dropShadow_729_2014"/>
<feBlend mode="normal" in="SourceGraphic" in2="effect1_dropShadow_729_2014" result="shape"/>
</filter>
<filter id="filter1_d_729_2014" x="-118.128" y="23.1592" width="274.449" height="73.084" filterUnits="userSpaceOnUse" color-interpolation-filters="sRGB">
<feFlood flood-opacity="0" result="BackgroundImageFix"/>
<feColorMatrix in="SourceAlpha" type="matrix" values="0 0 0 0 0 0 0 0 0 0 0 0 0 0 0 0 0 0 127 0" result="hardAlpha"/>
<feOffset dy="4"/>
<feGaussianBlur stdDeviation="2"/>
<feComposite in2="hardAlpha" operator="out"/>
<feColorMatrix type="matrix" values="0 0 0 0 0.740109 0 0 0 0 0.740109 0 0 0 0 0.740109 0 0 0 0.15 0"/>
<feBlend mode="normal" in2="BackgroundImageFix" result="effect1_dropShadow_729_2014"/>
<feBlend mode="normal" in="SourceGraphic" in2="effect1_dropShadow_729_2014" result="shape"/>
</filter>
<linearGradient id="paint0_linear_729_2014" x1="323.234" y1="88.5822" x2="62.4931" y2="504.848" gradientUnits="userSpaceOnUse">
<stop offset="0.1022" stop-color="#B6D0FF" stop-opacity="0.45"/>
<stop offset="0.3859" stop-color="#B6D0FF" stop-opacity="0"/>
<stop offset="1" stop-color="#B6D0FF" stop-opacity="0.45"/>
</linearGradient>
<linearGradient id="paint1_linear_729_2014" x1="271.094" y1="178.568" x2="120.707" y2="418.665" gradientUnits="userSpaceOnUse">
<stop offset="0.1022" stop-color="#B6D0FF" stop-opacity="0.45"/>
<stop offset="0.3859" stop-color="#B6D0FF" stop-opacity="0"/>
<stop offset="1" stop-color="#B6D0FF" stop-opacity="0.45"/>
</linearGradient>
<linearGradient id="paint2_linear_729_2014" x1="410.289" y1="-16.2377" x2="-34.6651" y2="694.14" gradientUnits="userSpaceOnUse">
<stop offset="0.1022" stop-color="#B6D0FF" stop-opacity="0.45"/>
<stop offset="0.3859" stop-color="#B6D0FF" stop-opacity="0"/>
<stop offset="1" stop-color="#B6D0FF" stop-opacity="0.45"/>
</linearGradient>
<clipPath id="clip0_729_2014">
<rect width="400" height="362" fill="white"/>
</clipPath>
<clipPath id="clip1_729_2014">
<rect width="102" height="102" fill="white" transform="translate(149 227.92)"/>
</clipPath>
</defs>
</svg>
