<svg width="400" height="362" viewBox="0 0 400 362" fill="none" xmlns="http://www.w3.org/2000/svg">
<g clip-path="url(#clip0_729_2045)">
<rect x="21.7241" y="73.9355" width="356.573" height="318.963" rx="159.482" fill="url(#paint0_linear_729_2045)"/>
<rect x="95.3501" y="142.467" width="209.34" height="181.912" rx="90.9559" fill="url(#paint1_linear_729_2045)"/>
<rect x="-100.865" y="4.95996" width="601.729" height="548.123" rx="274.061" fill="url(#paint2_linear_729_2045)"/>
<path d="M232.573 206.623C219.076 208.715 208.412 202.775 199.796 193.799L198.02 195.818C189.471 205.499 176.635 208.554 164.109 206.123C166.06 234.708 168.952 262.692 199.989 274.18C230.837 262.465 233.858 234.726 235.806 206.123L232.573 206.623Z" fill="#5682FD"/>
<path d="M206.654 230.956C206.654 227.27 203.656 224.281 199.957 224.281C196.258 224.281 193.26 227.27 193.26 230.956C193.258 232.325 193.68 233.661 194.469 234.784C195.259 235.906 196.376 236.761 197.671 237.232L197.721 249.093C197.727 250.345 198.751 251.324 200.011 251.324H200.021C201.286 251.324 202.308 250.329 202.302 249.073L202.252 237.213C204.821 236.279 206.654 233.839 206.654 230.956Z" fill="white"/>
<path d="M247.96 291.679C251.443 291.679 254.267 288.88 254.267 285.428C254.267 281.976 251.443 279.178 247.96 279.178C244.476 279.178 241.652 281.976 241.652 285.428C241.652 288.88 244.476 291.679 247.96 291.679Z" fill="#4D9EFF"/>
<path d="M247.972 195.62C251.456 195.62 254.279 192.822 254.279 189.37C254.279 185.918 251.456 183.119 247.972 183.119C244.488 183.119 241.665 185.918 241.665 189.37C241.665 192.822 244.488 195.62 247.972 195.62Z" fill="#4D9EFF"/>
<path d="M152.708 291.679C156.191 291.679 159.015 288.88 159.015 285.428C159.015 281.976 156.191 279.178 152.708 279.178C149.224 279.178 146.4 281.976 146.4 285.428C146.4 288.88 149.224 291.679 152.708 291.679Z" fill="#4D9EFF"/>
<path d="M152.695 195.62C156.179 195.62 159.003 192.822 159.003 189.37C159.003 185.918 156.179 183.119 152.695 183.119C149.212 183.119 146.388 185.918 146.388 189.37C146.388 192.822 149.212 195.62 152.695 195.62Z" fill="#4D9EFF"/>
<path d="M258.402 243.082C261.885 243.082 264.709 240.284 264.709 236.831C264.709 233.379 261.885 230.581 258.402 230.581C254.918 230.581 252.094 233.379 252.094 236.831C252.094 240.284 254.918 243.082 258.402 243.082Z" fill="white"/>
<path d="M141.598 243.082C145.082 243.082 147.905 240.284 147.905 236.831C147.905 233.379 145.082 230.581 141.598 230.581C138.115 230.581 135.291 233.379 135.291 236.831C135.291 240.284 138.115 243.082 141.598 243.082Z" fill="white"/>
<path d="M258.402 228.307C254.455 228.307 251.123 230.863 250.117 234.557H234.699C235.603 230.294 236.261 226.032 236.772 221.485H247.96C249.225 221.485 250.107 220.555 250.107 219.299V197.588C253.829 196.595 256.498 193.288 256.498 189.37C256.498 184.669 252.677 180.846 247.936 180.846C243.195 180.846 239.285 184.669 239.285 189.37C239.285 193.279 242.09 196.58 245.526 197.581V216.938H237.246C237.579 213.527 237.844 209.854 238.091 206.233C238.19 204.782 236.872 203.676 235.453 203.894C232.733 204.411 229.983 204.8 227.208 204.8C217.991 204.799 209.522 200.651 201.455 192.245C200.308 191.275 199.18 191.296 198.071 192.308C189.504 202.283 177.617 206.43 164.548 203.894C163.124 203.617 161.724 204.782 161.823 206.234C162.075 209.912 162.339 213.527 162.662 216.938H155.047V197.581C158.483 196.58 161.318 193.279 161.318 189.37C161.318 184.669 157.449 180.846 152.708 180.846C147.967 180.846 144.128 184.669 144.128 189.37C144.128 193.288 146.744 196.595 150.466 197.588V219.299C150.466 220.555 151.443 221.484 152.708 221.484H163.125C163.631 226.031 164.277 230.294 165.167 234.557H149.883C148.877 230.863 145.545 228.307 141.598 228.307C136.857 228.307 133 232.131 133 236.831C133 241.531 136.857 245.355 141.598 245.355C145.545 245.355 148.877 242.799 149.883 239.104H166.26C167.486 243.661 169.22 247.888 171.152 252.177H152.708C151.443 252.177 150.466 253.107 150.466 254.362V277.214C146.744 278.211 144.134 281.515 144.134 285.429C144.134 290.129 147.979 293.953 152.72 293.953C157.461 293.953 161.336 290.129 161.336 285.429C161.336 281.515 158.769 278.211 155.047 277.214V256.724H173.774C179.641 265.818 188.027 272.223 199.189 276.354C199.716 276.515 200.279 276.516 200.807 276.358C211.866 272.159 220.193 265.534 226.041 256.724H245.526V277.214C242.09 278.211 239.29 281.515 239.29 285.429C239.29 290.129 243.183 293.953 247.924 293.953C252.665 293.953 256.468 290.129 256.468 285.429C256.468 281.515 253.829 278.211 250.107 277.214V254.363C250.107 253.107 249.225 252.177 247.96 252.177H228.678C230.647 247.901 232.376 243.656 233.601 239.105H250.117C251.123 242.799 254.455 245.355 258.402 245.355C263.143 245.355 267 241.531 267 236.831C267 232.131 263.143 228.307 258.402 228.307ZM243.955 189.37C243.955 187.177 245.757 185.393 247.972 185.393C250.187 185.393 251.989 187.177 251.989 189.37C251.989 191.563 250.187 193.347 247.972 193.347C245.757 193.347 243.955 191.563 243.955 189.37ZM148.679 189.37C148.679 187.177 150.481 185.393 152.695 185.393C154.91 185.393 156.712 187.177 156.712 189.37C156.712 191.563 154.91 193.347 152.695 193.347C150.481 193.347 148.679 191.563 148.679 189.37ZM141.598 240.808C139.383 240.808 137.581 239.024 137.581 236.831C137.581 234.638 139.383 232.854 141.598 232.854C143.813 232.854 145.615 234.638 145.615 236.831C145.615 239.024 143.813 240.808 141.598 240.808ZM156.725 285.429C156.725 287.622 154.922 289.406 152.708 289.406C150.493 289.406 148.691 287.622 148.691 285.429C148.691 283.236 150.493 281.452 152.708 281.452C154.922 281.452 156.725 283.236 156.725 285.429ZM251.977 285.429C251.977 287.622 250.174 289.406 247.96 289.406C245.745 289.406 243.943 287.622 243.943 285.429C243.943 283.236 245.745 281.452 247.96 281.452C250.174 281.452 251.977 283.236 251.977 285.429ZM166.596 208.826C178.955 210.407 191.583 206.586 199.903 197.135C208.907 205.8 220.649 210.906 233.32 208.809C231.178 238.026 226.766 261.15 199.979 271.743C173.176 261.399 168.753 238.193 166.596 208.826ZM258.402 240.808C256.187 240.808 254.385 239.024 254.385 236.831C254.385 234.638 256.187 232.854 258.402 232.854C260.617 232.854 262.419 234.638 262.419 236.831C262.419 239.024 260.617 240.808 258.402 240.808Z" fill="#BECFFF"/>
</g>
<defs>
<linearGradient id="paint0_linear_729_2045" x1="323.234" y1="43.0544" x2="101.832" y2="437.826" gradientUnits="userSpaceOnUse">
<stop offset="0.1022" stop-color="#B6D0FF" stop-opacity="0.45"/>
<stop offset="0.3859" stop-color="#B6D0FF" stop-opacity="0"/>
<stop offset="1" stop-color="#B6D0FF" stop-opacity="0.45"/>
</linearGradient>
<linearGradient id="paint1_linear_729_2045" x1="271.095" y1="123.626" x2="143.397" y2="351.324" gradientUnits="userSpaceOnUse">
<stop offset="0.1022" stop-color="#B6D0FF" stop-opacity="0.45"/>
<stop offset="0.3859" stop-color="#B6D0FF" stop-opacity="0"/>
<stop offset="1" stop-color="#B6D0FF" stop-opacity="0.45"/>
</linearGradient>
<linearGradient id="paint2_linear_729_2045" x1="410.29" y1="-45.8365" x2="32.4671" y2="627.858" gradientUnits="userSpaceOnUse">
<stop offset="0.1022" stop-color="#B6D0FF" stop-opacity="0.45"/>
<stop offset="0.3859" stop-color="#B6D0FF" stop-opacity="0"/>
<stop offset="1" stop-color="#B6D0FF" stop-opacity="0.45"/>
</linearGradient>
<clipPath id="clip0_729_2045">
<rect width="400" height="362" fill="white"/>
</clipPath>
</defs>
</svg>
