<svg width="1428" height="1120" viewBox="0 0 1428 1120" fill="none" xmlns="http://www.w3.org/2000/svg">
<g opacity="0.1">
<line x1="-0.199219" y1="32.5001" x2="1439.8" y2="32.5001" stroke="white"/>
<line x1="-0.199219" y1="48.5001" x2="1439.8" y2="48.5001" stroke="white"/>
<line x1="-0.199219" y1="148.5" x2="1439.8" y2="148.5" stroke="white"/>
<line x1="-0.199219" y1="248.5" x2="1439.8" y2="248.5" stroke="white"/>
<line x1="-0.199219" y1="348.5" x2="1439.8" y2="348.5" stroke="white"/>
<line x1="-0.199219" y1="448.5" x2="1439.8" y2="448.5" stroke="white"/>
<line x1="-0.199219" y1="548.5" x2="1439.8" y2="548.5" stroke="white"/>
<line x1="-0.199219" y1="648.5" x2="1439.8" y2="648.5" stroke="white"/>
<line x1="-0.199219" y1="748.5" x2="1439.8" y2="748.5" stroke="white"/>
<line x1="-0.199219" y1="848.5" x2="1439.8" y2="848.5" stroke="white"/>
<line x1="-0.199219" y1="948.5" x2="1439.8" y2="948.5" stroke="white"/>
<line x1="-0.199219" y1="1048.5" x2="1439.8" y2="1048.5" stroke="white"/>
<line x1="1425.5" y1="-85.0001" x2="1425.5" y2="1355" stroke="white"/>
<line x1="1325.5" y1="-85.0001" x2="1325.5" y2="1355" stroke="white"/>
<line x1="1225.5" y1="-85.0001" x2="1225.5" y2="1355" stroke="white"/>
<line x1="1125.5" y1="-85.0001" x2="1125.5" y2="1355" stroke="white"/>
<line x1="1025.5" y1="-85.0001" x2="1025.5" y2="1355" stroke="white"/>
<line x1="925.5" y1="-85.0001" x2="925.5" y2="1355" stroke="white"/>
<line x1="825.5" y1="-85.0001" x2="825.5" y2="1355" stroke="white"/>
<line x1="725.5" y1="-85.0001" x2="725.5" y2="1355" stroke="white"/>
<line x1="625.5" y1="-85.0001" x2="625.5" y2="1355" stroke="white"/>
<line x1="525.5" y1="-85.0001" x2="525.5" y2="1355" stroke="white"/>
<line x1="425.5" y1="-85.0001" x2="425.5" y2="1355" stroke="white"/>
<line x1="325.5" y1="-85.0001" x2="325.5" y2="1355" stroke="white"/>
<line x1="225.5" y1="-85.0001" x2="225.5" y2="1355" stroke="white"/>
<line x1="125.5" y1="-85.0001" x2="125.5" y2="1355" stroke="white"/>
<line x1="25.5" y1="-85.0001" x2="25.4999" y2="1355" stroke="white"/>
</g>
</svg>
