<svg width="1440" height="336" viewBox="0 0 1440 336" fill="none" xmlns="http://www.w3.org/2000/svg">
<mask id="mask0_719_1380" style="mask-type:alpha" maskUnits="userSpaceOnUse" x="-40" y="-109" width="1519" height="594">
<rect x="-39.5596" y="-109" width="1518" height="594" fill="url(#paint0_radial_719_1380)"/>
</mask>
<g mask="url(#mask0_719_1380)">
<rect x="-39" y="-3" width="66" height="66" stroke="#D1E1FF" stroke-width="1.11864"/>
<rect x="27" y="-3" width="66" height="66" stroke="#D1E1FF" stroke-width="1.11864"/>
<rect x="93" y="-3" width="66" height="66" stroke="#D1E1FF" stroke-width="1.11864"/>
<rect x="159" y="-3" width="66" height="66" stroke="#D1E1FF" stroke-width="1.11864"/>
<rect x="225" y="-3" width="66" height="66" stroke="#D1E1FF" stroke-width="1.11864"/>
<rect x="291" y="-3" width="66" height="66" stroke="#D1E1FF" stroke-width="1.11864"/>
<rect x="357" y="-3" width="66" height="66" stroke="#D1E1FF" stroke-width="1.11864"/>
<rect x="423" y="-3" width="66" height="66" stroke="#D1E1FF" stroke-width="1.11864"/>
<rect x="489" y="-3" width="66" height="66" stroke="#D1E1FF" stroke-width="1.11864"/>
<rect x="555" y="-3" width="66" height="66" stroke="#D1E1FF" stroke-width="1.11864"/>
<rect x="621" y="-3" width="66" height="66" stroke="#D1E1FF" stroke-width="1.11864"/>
<rect x="687" y="-3" width="66" height="66" stroke="#D1E1FF" stroke-width="1.11864"/>
<rect x="753" y="-3" width="66" height="66" stroke="#D1E1FF" stroke-width="1.11864"/>
<rect x="819" y="-3" width="66" height="66" stroke="#D1E1FF" stroke-width="1.11864"/>
<rect x="885" y="-3" width="66" height="66" stroke="#D1E1FF" stroke-width="1.11864"/>
<rect x="951" y="-3" width="66" height="66" stroke="#D1E1FF" stroke-width="1.11864"/>
<rect x="1017" y="-3" width="66" height="66" stroke="#D1E1FF" stroke-width="1.11864"/>
<rect x="1083" y="-3" width="66" height="66" stroke="#D1E1FF" stroke-width="1.11864"/>
<rect x="1149" y="-3" width="66" height="66" stroke="#D1E1FF" stroke-width="1.11864"/>
<rect x="1215" y="-3" width="66" height="66" stroke="#D1E1FF" stroke-width="1.11864"/>
<rect x="1281" y="-3" width="66" height="66" stroke="#D1E1FF" stroke-width="1.11864"/>
<rect x="1347" y="-3" width="66" height="66" stroke="#D1E1FF" stroke-width="1.11864"/>
<rect x="1413" y="-3" width="66" height="66" stroke="#D1E1FF" stroke-width="1.11864"/>
<rect x="-39" y="63" width="66" height="66" stroke="#D1E1FF" stroke-width="1.11864"/>
<rect x="27" y="63" width="66" height="66" stroke="#D1E1FF" stroke-width="1.11864"/>
<rect x="93" y="63" width="66" height="66" stroke="#D1E1FF" stroke-width="1.11864"/>
<rect x="159" y="63" width="66" height="66" stroke="#D1E1FF" stroke-width="1.11864"/>
<rect x="225" y="63" width="66" height="66" stroke="#D1E1FF" stroke-width="1.11864"/>
<rect x="291" y="63" width="66" height="66" stroke="#D1E1FF" stroke-width="1.11864"/>
<rect x="357" y="63" width="66" height="66" stroke="#D1E1FF" stroke-width="1.11864"/>
<rect x="423" y="63" width="66" height="66" stroke="#D1E1FF" stroke-width="1.11864"/>
<rect x="489" y="63" width="66" height="66" fill="#A3C9FF" fill-opacity="0.29" stroke="#D1E1FF" stroke-width="1.11864"/>
<rect x="555" y="63" width="66" height="66" stroke="#D1E1FF" stroke-width="1.11864"/>
<rect x="621" y="63" width="66" height="66" stroke="#D1E1FF" stroke-width="1.11864"/>
<rect x="687" y="63" width="66" height="66" stroke="#D1E1FF" stroke-width="1.11864"/>
<rect x="753" y="63" width="66" height="66" stroke="#D1E1FF" stroke-width="1.11864"/>
<rect x="819" y="63" width="66" height="66" fill="#A3C9FF" fill-opacity="0.29" stroke="#D1E1FF" stroke-width="1.11864"/>
<rect x="885" y="63" width="66" height="66" stroke="#D1E1FF" stroke-width="1.11864"/>
<rect x="951" y="63" width="66" height="66" stroke="#D1E1FF" stroke-width="1.11864"/>
<rect x="1017" y="63" width="66" height="66" stroke="#D1E1FF" stroke-width="1.11864"/>
<rect x="1083" y="63" width="66" height="66" stroke="#D1E1FF" stroke-width="1.11864"/>
<rect x="1149" y="63" width="66" height="66" stroke="#D1E1FF" stroke-width="1.11864"/>
<rect x="1215" y="63" width="66" height="66" stroke="#D1E1FF" stroke-width="1.11864"/>
<rect x="1281" y="63" width="66" height="66" stroke="#D1E1FF" stroke-width="1.11864"/>
<rect x="1347" y="63" width="66" height="66" stroke="#D1E1FF" stroke-width="1.11864"/>
<rect x="1413" y="63" width="66" height="66" stroke="#D1E1FF" stroke-width="1.11864"/>
<path d="M-39 129H27V195H-39V129Z" fill="#A3C9FF" fill-opacity="0.29" stroke="#D1E1FF" stroke-width="1.11864"/>
<rect x="27" y="129" width="66" height="66" stroke="#D1E1FF" stroke-width="1.11864"/>
<rect x="93" y="129" width="66" height="66" stroke="#D1E1FF" stroke-width="1.11864"/>
<rect x="159" y="129" width="66" height="66" stroke="#D1E1FF" stroke-width="1.11864"/>
<rect x="225" y="129" width="66" height="66" stroke="#D1E1FF" stroke-width="1.11864"/>
<rect x="291" y="129" width="66" height="66" stroke="#D1E1FF" stroke-width="1.11864"/>
<rect x="357" y="129" width="66" height="66" stroke="#D1E1FF" stroke-width="1.11864"/>
<rect x="423" y="129" width="66" height="66" stroke="#D1E1FF" stroke-width="1.11864"/>
<rect x="489" y="129" width="66" height="66" stroke="#D1E1FF" stroke-width="1.11864"/>
<rect x="555" y="129" width="66" height="66" stroke="#D1E1FF" stroke-width="1.11864"/>
<rect x="621" y="129" width="66" height="66" stroke="#D1E1FF" stroke-width="1.11864"/>
<rect x="687" y="129" width="66" height="66" stroke="#D1E1FF" stroke-width="1.11864"/>
<rect x="753" y="129" width="66" height="66" stroke="#D1E1FF" stroke-width="1.11864"/>
<rect x="819" y="129" width="66" height="66" stroke="#D1E1FF" stroke-width="1.11864"/>
<rect x="885" y="129" width="66" height="66" stroke="#D1E1FF" stroke-width="1.11864"/>
<rect x="951" y="129" width="66" height="66" stroke="#D1E1FF" stroke-width="1.11864"/>
<rect x="1017" y="129" width="66" height="66" stroke="#D1E1FF" stroke-width="1.11864"/>
<rect x="1083" y="129" width="66" height="66" stroke="#D1E1FF" stroke-width="1.11864"/>
<rect x="1149" y="129" width="66" height="66" stroke="#D1E1FF" stroke-width="1.11864"/>
<path d="M1215 129H1281V195H1215V129Z" fill="#A3C9FF" fill-opacity="0.29" stroke="#D1E1FF" stroke-width="1.11864"/>
<rect x="1281" y="129" width="66" height="66" stroke="#D1E1FF" stroke-width="1.11864"/>
<rect x="1347" y="129" width="66" height="66" stroke="#D1E1FF" stroke-width="1.11864"/>
<rect x="1413" y="129" width="66" height="66" stroke="#D1E1FF" stroke-width="1.11864"/>
<rect x="-39" y="195" width="66" height="66" stroke="#D1E1FF" stroke-width="1.11864"/>
<rect x="27" y="195" width="66" height="66" stroke="#D1E1FF" stroke-width="1.11864"/>
<rect x="93" y="195" width="66" height="66" stroke="#D1E1FF" stroke-width="1.11864"/>
<rect x="159" y="195" width="66" height="66" stroke="#D1E1FF" stroke-width="1.11864"/>
<rect x="225" y="195" width="66" height="66" stroke="#D1E1FF" stroke-width="1.11864"/>
<rect x="291" y="195" width="66" height="66" stroke="#D1E1FF" stroke-width="1.11864"/>
<rect x="357" y="195" width="66" height="66" stroke="#D1E1FF" stroke-width="1.11864"/>
<rect x="423" y="195" width="66" height="66" stroke="#D1E1FF" stroke-width="1.11864"/>
<rect x="489" y="195" width="66" height="66" stroke="#D1E1FF" stroke-width="1.11864"/>
<rect x="555" y="195" width="66" height="66" stroke="#D1E1FF" stroke-width="1.11864"/>
<rect x="621" y="195" width="66" height="66" fill="#A3C9FF" fill-opacity="0.29" stroke="#D1E1FF" stroke-width="1.11864"/>
<rect x="687" y="195" width="66" height="66" stroke="#D1E1FF" stroke-width="1.11864"/>
<rect x="753" y="195" width="66" height="66" stroke="#D1E1FF" stroke-width="1.11864"/>
<rect x="819" y="195" width="66" height="66" stroke="#D1E1FF" stroke-width="1.11864"/>
<rect x="885" y="195" width="66" height="66" stroke="#D1E1FF" stroke-width="1.11864"/>
<rect x="951" y="195" width="66" height="66" stroke="#D1E1FF" stroke-width="1.11864"/>
<rect x="1017" y="195" width="66" height="66" stroke="#D1E1FF" stroke-width="1.11864"/>
<rect x="1083" y="195" width="66" height="66" stroke="#D1E1FF" stroke-width="1.11864"/>
<rect x="1149" y="195" width="66" height="66" stroke="#D1E1FF" stroke-width="1.11864"/>
<rect x="1215" y="195" width="66" height="66" stroke="#D1E1FF" stroke-width="1.11864"/>
<rect x="1281" y="195" width="66" height="66" stroke="#D1E1FF" stroke-width="1.11864"/>
<rect x="1347" y="195" width="66" height="66" stroke="#D1E1FF" stroke-width="1.11864"/>
<rect x="1413" y="195" width="66" height="66" stroke="#D1E1FF" stroke-width="1.11864"/>
<rect x="-39" y="261" width="66" height="66" stroke="#D1E1FF" stroke-width="1.11864"/>
<rect x="27" y="261" width="66" height="66" stroke="#D1E1FF" stroke-width="1.11864"/>
<rect x="93" y="261" width="66" height="66" stroke="#D1E1FF" stroke-width="1.11864"/>
<path d="M159 261H225V327H159V261Z" fill="#A3C9FF" fill-opacity="0.29" stroke="#D1E1FF" stroke-width="1.11864"/>
<rect x="225" y="261" width="66" height="66" stroke="#D1E1FF" stroke-width="1.11864"/>
<rect x="291" y="261" width="66" height="66" stroke="#D1E1FF" stroke-width="1.11864"/>
<rect x="357" y="261" width="66" height="66" stroke="#D1E1FF" stroke-width="1.11864"/>
<rect x="423" y="261" width="66" height="66" stroke="#D1E1FF" stroke-width="1.11864"/>
<rect x="489" y="261" width="66" height="66" stroke="#D1E1FF" stroke-width="1.11864"/>
<rect x="555" y="261" width="66" height="66" stroke="#D1E1FF" stroke-width="1.11864"/>
<rect x="621" y="261" width="66" height="66" stroke="#D1E1FF" stroke-width="1.11864"/>
<rect x="687" y="261" width="66" height="66" stroke="#D1E1FF" stroke-width="1.11864"/>
<rect x="753" y="261" width="66" height="66" stroke="#D1E1FF" stroke-width="1.11864"/>
<rect x="819" y="261" width="66" height="66" stroke="#D1E1FF" stroke-width="1.11864"/>
<rect x="885" y="261" width="66" height="66" stroke="#D1E1FF" stroke-width="1.11864"/>
<rect x="951" y="261" width="66" height="66" stroke="#D1E1FF" stroke-width="1.11864"/>
<rect x="1017" y="261" width="66" height="66" stroke="#D1E1FF" stroke-width="1.11864"/>
<rect x="1083" y="261" width="66" height="66" stroke="#D1E1FF" stroke-width="1.11864"/>
<rect x="1149" y="261" width="66" height="66" stroke="#D1E1FF" stroke-width="1.11864"/>
<rect x="1215" y="261" width="66" height="66" stroke="#D1E1FF" stroke-width="1.11864"/>
<rect x="1281" y="261" width="66" height="66" stroke="#D1E1FF" stroke-width="1.11864"/>
<rect x="1347" y="261" width="66" height="66" stroke="#D1E1FF" stroke-width="1.11864"/>
<rect x="1413" y="261" width="66" height="66" stroke="#D1E1FF" stroke-width="1.11864"/>
<rect x="-39" y="327" width="66" height="66" stroke="#D1E1FF" stroke-width="1.11864"/>
<rect x="27" y="327" width="66" height="66" stroke="#D1E1FF" stroke-width="1.11864"/>
<rect x="93" y="327" width="66" height="66" stroke="#D1E1FF" stroke-width="1.11864"/>
<rect x="159" y="327" width="66" height="66" stroke="#D1E1FF" stroke-width="1.11864"/>
<rect x="225" y="327" width="66" height="66" stroke="#D1E1FF" stroke-width="1.11864"/>
<rect x="291" y="327" width="66" height="66" stroke="#D1E1FF" stroke-width="1.11864"/>
<rect x="357" y="327" width="66" height="66" stroke="#D1E1FF" stroke-width="1.11864"/>
<rect x="423" y="327" width="66" height="66" stroke="#D1E1FF" stroke-width="1.11864"/>
<rect x="489" y="327" width="66" height="66" stroke="#D1E1FF" stroke-width="1.11864"/>
<rect x="555" y="327" width="66" height="66" stroke="#D1E1FF" stroke-width="1.11864"/>
<rect x="621" y="327" width="66" height="66" stroke="#D1E1FF" stroke-width="1.11864"/>
<rect x="687" y="327" width="66" height="66" fill="#A3C9FF" fill-opacity="0.29" stroke="#D1E1FF" stroke-width="1.11864"/>
<rect x="753" y="327" width="66" height="66" stroke="#D1E1FF" stroke-width="1.11864"/>
<rect x="819" y="327" width="66" height="66" stroke="#D1E1FF" stroke-width="1.11864"/>
<rect x="885" y="327" width="66" height="66" stroke="#D1E1FF" stroke-width="1.11864"/>
<rect x="951" y="327" width="66" height="66" stroke="#D1E1FF" stroke-width="1.11864"/>
<rect x="1017" y="327" width="66" height="66" stroke="#D1E1FF" stroke-width="1.11864"/>
<rect x="1083" y="327" width="66" height="66" stroke="#D1E1FF" stroke-width="1.11864"/>
<rect x="1149" y="327" width="66" height="66" stroke="#D1E1FF" stroke-width="1.11864"/>
<rect x="1215" y="327" width="66" height="66" stroke="#D1E1FF" stroke-width="1.11864"/>
<rect x="1281" y="327" width="66" height="66" stroke="#D1E1FF" stroke-width="1.11864"/>
<rect x="1347" y="327" width="66" height="66" stroke="#D1E1FF" stroke-width="1.11864"/>
<rect x="1413" y="327" width="66" height="66" stroke="#D1E1FF" stroke-width="1.11864"/>
</g>
<defs>
<radialGradient id="paint0_radial_719_1380" cx="0" cy="0" r="1" gradientUnits="userSpaceOnUse" gradientTransform="translate(719.44 -195.735) rotate(90) scale(680.735 1082.95)">
<stop stop-color="#D9D9D9"/>
<stop offset="0.885" stop-color="#D9D9D9" stop-opacity="0.292"/>
<stop offset="1" stop-color="#D9D9D9" stop-opacity="0"/>
</radialGradient>
</defs>
</svg>
