<svg fill="none" height="512" viewBox="0 0 24 24" width="512" xmlns="http://www.w3.org/2000/svg" id="fi_9446983"><g fill="rgb(0,0,0)"><path d="m7.10786 7.85788c0-.41421.33579-.75.75-.75h8.00004c.4142 0 .75.33579.75.75s-.3358.75-.75.75h-8.00004c-.41421 0-.75-.33579-.75-.75z"></path><path d="m7.10786 11.8579c0-.4142.33579-.75.75-.75h8.00004c.4142 0 .75.3358.75.75s-.3358.75-.75.75h-8.00004c-.41421 0-.75-.3358-.75-.75z"></path><path d="m7.10786 15.8579c0-.4142.33579-.75.75-.75h8.00004c.4142 0 .75.3358.75.75s-.3358.75-.75.75h-8.00004c-.41421 0-.75-.3358-.75-.75z"></path><path clip-rule="evenodd" d="m4.3986 4.3986c4.19814-4.198133 11.0047-4.198133 15.2028 0 1.2336 1.23362 2.3616 3.12898 2.8668 5.24093.5077 2.12247.3971 4.51927-.9396 6.68247-.0694.1122-.1137.1841-.1454.2384-.0214.0368-.0296.0532-.0313.0566-.0142.0364-.0159.0498-.0159.0498s-.0024.0153.0008.057c-.0006-.0073-.0009.0001.0091.0444.0107.047.0266.1088.0537.2132l.0068.0265c.1572.6064.2847 1.0984.3594 1.4944.0751.3983.1152.7848.0395 1.1567-.2201 1.0812-1.0651 1.9262-2.1463 2.1463-.3719.0757-.7584.0356-1.1567-.0395-.396-.0747-.888-.2022-1.4944-.3594l-.0265-.0068c-.1044-.0271-.1662-.043-.2132-.0537-.0298-.0067-.0429-.0087-.046-.0092-.0409-.003-.0556-.0005-.0556-.0005s-.0141.0019-.05.0159c-.0034.0017-.0196.0099-.056.0312-.0538.0316-.125.0757-.2365.145-2.154 1.3386-4.5247 1.4779-6.64197.9803-2.10627-.495-4.00386-1.6275-5.28353-2.9072-4.198133-4.1981-4.198133-11.00466 0-15.2028zm14.1421 1.06066c-3.6123-3.61235-9.46909-3.61235-13.08144 0s-3.61235 9.46914 0 13.08144c1.08872 1.0888 2.74011 2.0786 4.56604 2.5077 1.8149.4266 3.7597.2918 5.507-.7941.0159-.0098.0317-.0197.0475-.0296.1659-.1034.3302-.2058.4774-.2644.2635-.1049.4987-.1408.7814-.1191.1576.0121.3212.0548.478.0956.0138.0036.0275.0072.0412.0107.6392.1657 1.0821.2801 1.4225.3443.3438.0648.4983.0602.5795.0436.4915-.1.8756-.4841.9756-.9756.0166-.0812.0212-.2357-.0436-.5795-.0642-.3404-.1786-.7833-.3443-1.4225-.0035-.0137-.0071-.0275-.0107-.0413-.0408-.1567-.0834-.32-.0955-.4771-.0219-.2824.0134-.5159.1177-.7792.0582-.1469.1604-.3118.2639-.4788.0099-.016.0198-.032.0297-.0479 1.0794-1.7467 1.1949-3.7134.7567-5.54499-.4406-1.84207-1.4305-3.49121-2.4686-4.52925z" fill-rule="evenodd"></path></g></svg>