<svg width="292" height="288" viewBox="0 0 292 288" fill="none" xmlns="http://www.w3.org/2000/svg">
<path fill-rule="evenodd" clip-rule="evenodd" d="M254.414 10.2453C258.56 14.7728 261.724 20.0734 263.906 25.65L264.015 25.9261L264.179 26.423C266.252 32.0548 267.397 38.1836 267.397 44.5885C267.397 50.9933 266.252 57.1221 264.179 62.7539L263.961 63.3061L263.852 63.5269C261.669 69.1588 258.505 74.4041 254.36 78.9317L75.9219 273.838C58.6291 292.721 30.3169 292.721 12.9696 273.838C-4.3232 254.954 -4.3232 223.979 12.9696 205.096L115.417 93.1769H44.7731C20.2795 93.1769 0.25912 71.3121 0.25912 44.5885C0.25912 17.8648 20.2795 -4 44.7731 -4H222.829C228.72 -4 234.339 -2.73007 239.467 -0.466287L239.849 -0.300651L240.176 -0.135005C245.304 2.2392 250.105 5.66249 254.25 10.19" fill="#EFF3FF" fill-opacity="0.75"/>
<path fill-rule="evenodd" clip-rule="evenodd" d="M291.986 241.611C291.986 267.064 271.093 287.659 245.345 287.659C219.596 287.659 198.703 267.064 198.703 241.611C198.703 216.157 219.596 195.617 245.345 195.617C271.093 195.617 291.986 216.212 291.986 241.611Z" fill="#EFF3FF" fill-opacity="0.75"/>
</svg>
