<svg xmlns="http://www.w3.org/2000/svg" viewBox="108.58 113.34 100.13 102.15">
  <g id="Layer_2" transform="matrix(1, 0, 0, 1, -108.01757, 139.410812)">
    <g id="Layer_1-2" data-name="Layer 1" transform="matrix(1, 0, 0, 1, 216.601654, -26.075006)">
      <path class="cls-1" d="M77.67,0H22.46C10.06,0,0,10.25,0,22.91v56.33c0,12.65,10.06,22.91,22.46,22.91h55.21c12.41,0,22.46-10.26,22.46-22.91V22.91c0-12.66-10.05-22.91-22.46-22.91Z" style="fill-rule: evenodd; fill: rgb(255, 255, 255);"/>
      <g>
        <path class="cls-3" d="M71.56,27.21h0c.76.82,1.34,1.78,1.74,2.79l.02.05.03.09c.38,1.02.59,2.13.59,3.29h0c0,1.16-.21,2.27-.59,3.29l-.04.1-.02.04c-.4,1.02-.98,1.97-1.74,2.79l-32.71,35.3c-3.17,3.42-8.36,3.42-11.54,0h0c-3.17-3.42-3.17-9.03,0-12.45l18.78-20.27h-12.95c-4.49,0-8.16-3.96-8.16-8.8h0c0-4.84,3.67-8.8,8.16-8.8h32.64c1.08,0,2.11.23,3.05.64l.07.03.06.03c.94.43,1.82,1.05,2.58,1.87" style="fill-rule: nonzero; stroke-linejoin: round; stroke-linecap: round; fill: rgb(2, 123, 255); stroke-width: 3px; stroke-dashoffset: -5px; paint-order: fill markers; stroke-opacity: 0.82;"/>
        <g>
          <path class="cls-2" d="M 75.86 69.596 C 75.905 73.904 72.253 77.388 67.711 77.389 C 65.692 77.388 41.99 78.33 31.488 77.372 C 30.707 77.302 29.925 77.156 29.337 76.869 C 29.035 76.723 28.777 76.628 28.541 76.481 C 28.401 76.393 28.175 76.274 28.054 76.18 C 28.024 76.157 28.018 76.159 28.012 76.157 C 28.006 76.154 28.006 76.153 27.894 76.09 C 27.306 75.761 26.194 74.463 26.057 74.31 C 26.016 74.263 25.991 74.223 25.955 74.174 C 25.94 74.154 25.923 74.131 25.906 74.107 C 25.896 74.094 25.889 74.081 25.879 74.067 C 25.828 74.002 25.779 73.918 25.741 73.865 C 25.084 72.97 24.671 71.791 24.472 70.605 C 24.396 70.153 24.354 69.683 24.351 69.233 C 24.349 69.078 24.359 68.921 24.357 68.771 C 24.35 68.056 24.544 66.94 24.933 65.99 C 25.164 65.426 25.443 64.902 25.69 64.516 C 25.809 64.33 26.021 64.067 26.021 64.067 C 26.129 63.847 27.277 62.84 27.836 62.522 C 30.098 61.233 37.35 61.169 45.154 61.211 C 55.259 61.265 66.194 61.579 67.802 61.579 C 72.345 61.58 75.817 65.298 75.86 69.596 Z" style="fill-rule: evenodd; stroke-linecap: round; stroke-miterlimit: 13.32; stroke-linejoin: round; paint-order: fill; stroke-opacity: 0.6; stroke-width: 3px; fill: rgb(17, 183, 121);"/>
        </g>
      </g>
    </g>
  </g>
</svg>